<?xml version="1.0" standalone="no"?>
<!DOCTYPE svg PUBLIC "-//W3C//DTD SVG 1.1//EN" "http://www.w3.org/Graphics/SVG/1.1/DTD/svg11.dtd" >
<svg xmlns="http://www.w3.org/2000/svg" xmlns:xlink="http://www.w3.org/1999/xlink" version="1.1">
<metadata>
Created by FontForge 20201107 at Sun Jun 14 09:53:40 2020
 By 
Copyright (c) 2020 by Connary Fagen. All rights reserved.
</metadata>
<defs>
<font id="ArticulatCF-Normal" horiz-adv-x="586" >
  <font-face 
    font-family="Articulat CF Normal"
    font-weight="400"
    font-stretch="normal"
    units-per-em="1000"
    panose-1="0 0 5 0 0 0 0 0 0 0"
    ascent="800"
    descent="-200"
    x-height="520"
    cap-height="700"
    bbox="-164 -236 1051 914"
    underline-thickness="50"
    underline-position="-100"
    unicode-range="U+0020-25CA"
  />
<missing-glyph horiz-adv-x="510" 
d="M418 -220h-323v1020h323v-1020zM171 732v-34h67v-38h-68v-33h170v33h-68v38h68v34h-169zM170 600v-106h170v35h-68v71h-102zM238 529h-34v36h34v-36zM170 466v-33h68v-38h-68v-34h102v72h68v33h-170zM306 405v-67h-136v-35h170v102h-34zM238 281v-57h34v23h34v-48h-102
v82h-34v-115h170v115h-102zM170 104v-115h170v115h-170zM306 23h-102v48h102v-48zM170 -34v-34h72l-72 -48v-34h170v34h-104l71 48h33v34h-170z" />
    <glyph glyph-name=".notdef" horiz-adv-x="510" 
d="M418 -220h-323v1020h323v-1020zM171 732v-34h67v-38h-68v-33h170v33h-68v38h68v34h-169zM170 600v-106h170v35h-68v71h-102zM238 529h-34v36h34v-36zM170 466v-33h68v-38h-68v-34h102v72h68v33h-170zM306 405v-67h-136v-35h170v102h-34zM238 281v-57h34v23h34v-48h-102
v82h-34v-115h170v115h-102zM170 104v-115h170v115h-170zM306 23h-102v48h102v-48zM170 -34v-34h72l-72 -48v-34h170v34h-104l71 48h33v34h-170z" />
    <glyph glyph-name=".null" horiz-adv-x="0" 
 />
    <glyph glyph-name="nonmarkingreturn" horiz-adv-x="333" 
 />
    <glyph glyph-name="space" unicode=" " horiz-adv-x="230" 
 />
    <glyph glyph-name="exclam" unicode="!" horiz-adv-x="221" 
d="M74 700h73l-7 -509h-59zM73.5 5q-15.5 15 -15.5 37q0 21 15.5 36.5t36.5 15.5q22 0 37.5 -15.5t15.5 -36.5q0 -22 -15.5 -37t-37.5 -15q-21 0 -36.5 15z" />
    <glyph glyph-name="quotedbl" unicode="&#x22;" horiz-adv-x="281" 
d="M174 700h67v-238h-67v238zM40 700h67v-238h-67v238z" />
    <glyph glyph-name="numbersign" unicode="#" horiz-adv-x="596" 
d="M548 458h-108l-22 -216h105v-48h-110l-19 -194h-49l19 194h-165l-19 -194h-48l19 194h-103v48h108l22 216h-104v48h109l19 194h48l-19 -194h165l19 194h49l-19 -194h103v-48zM369 242l22 216h-165l-22 -216h165z" />
    <glyph glyph-name="dollar" unicode="$" horiz-adv-x="588" 
d="M482.5 46q-61.5 -53 -171.5 -56v-80h-37v81q-111 6 -170.5 63t-59.5 146h70q4 -61 43.5 -100.5t116.5 -45.5v281l-29 6q-182 38 -182 183q0 81 55 131t156 54v81h37v-82q99 -4 156 -53.5t57 -127.5h-70q-3 49 -39.5 81.5t-103.5 36.5v-256l39 -8q95 -20 144.5 -63.5
t49.5 -125.5q0 -93 -61.5 -146zM274 397v249q-70 -4 -104 -38t-34 -84q0 -98 128 -125zM430 93q41 37 41 97q0 58 -36 88.5t-103 44.5l-21 4v-274q78 3 119 40z" />
    <glyph glyph-name="percent" unicode="%" horiz-adv-x="722" 
d="M80 443q-37 40 -37 112q0 70 37 110.5t96 40.5t96.5 -40.5t37.5 -110.5q0 -72 -37.5 -112t-96.5 -40t-96 40zM233.5 479.5q21.5 25.5 21.5 75.5q0 49 -21.5 74.5t-57.5 25.5q-35 0 -56.5 -25.5t-21.5 -74.5q0 -50 21.5 -75.5t56.5 -25.5q36 0 57.5 25.5zM71 169l550 403
l31 -44l-550 -403zM449.5 31q-37.5 40 -37.5 112q0 71 37.5 111.5t96.5 40.5t96 -40.5t37 -111.5q0 -72 -37 -112t-96 -40t-96.5 40zM602.5 68q21.5 25 21.5 75q0 49 -21.5 74.5t-56.5 25.5q-36 0 -57.5 -25.5t-21.5 -74.5q0 -50 21.5 -75t57.5 -25q35 0 56.5 25z" />
    <glyph glyph-name="ampersand" unicode="&#x26;" horiz-adv-x="674" 
d="M565 0l-66 74q-43 -43 -99 -63.5t-117 -20.5q-69 0 -124 25.5t-85.5 71t-30.5 103.5q0 67 41 117.5t124 93.5q-39 44 -61.5 83.5t-22.5 83.5q0 59 41.5 100t120.5 41q76 0 118.5 -39.5t42.5 -103.5q0 -50 -31.5 -95.5t-111.5 -84.5l189 -213q39 76 39 188h64
q0 -147 -59 -239l109 -122h-81zM213 631.5q-27 -24.5 -27 -63.5q0 -35 20 -66t58 -73q63 32 91.5 64t28.5 73q0 42 -27 66t-72 24t-72 -24.5zM382 67.5q43 17.5 75 53.5l-211 238q-130 -62 -130 -162q0 -65 49 -106t126 -41q48 0 91 17.5z" />
    <glyph glyph-name="quotesingle" unicode="'" horiz-adv-x="147" 
d="M40 700h67v-238h-67v238z" />
    <glyph glyph-name="parenleft" unicode="(" horiz-adv-x="262" 
d="M71.5 75.5q-26.5 110.5 -26.5 244.5q0 127 26.5 231.5t79.5 193.5h66q-50 -91 -75.5 -195.5t-25.5 -229.5q0 -256 101 -450h-66q-53 95 -79.5 205.5z" />
    <glyph glyph-name="parenright" unicode=")" horiz-adv-x="262" 
d="M45 -130q101 194 101 450q0 125 -25.5 229.5t-75.5 195.5h66q53 -89 79.5 -193.5t26.5 -231.5q0 -134 -26.5 -244.5t-79.5 -205.5h-66z" />
    <glyph glyph-name="asterisk" unicode="*" horiz-adv-x="450" 
d="M202 700h46l-4 -123h-37zM68 565l12 46l121 -39l-13 -39zM250 572l120 39l12 -46l-120 -32zM113 425l76 101l32 -25l-70 -102zM230 501l31 25l76 -101l-38 -26z" />
    <glyph glyph-name="plus" unicode="+" horiz-adv-x="535" 
d="M233 250h-175v64h175v176h67v-176h176v-64h-176v-176h-67v176z" />
    <glyph glyph-name="comma" unicode="," horiz-adv-x="198" 
d="M50 -66q33 0 44.5 13t10.5 44q-28 -1 -45 14t-17 38q0 21 14.5 36t37.5 15q26 0 42.5 -20.5t16.5 -64.5q0 -56 -26 -85.5t-68 -29.5h-17v40h7z" />
    <glyph glyph-name="hyphen" unicode="-" horiz-adv-x="351" 
d="M40 308h271v-56h-271v56z" />
    <glyph glyph-name="period" unicode="." horiz-adv-x="191" 
d="M58.5 5q-15.5 15 -15.5 37q0 21 15.5 36.5t36.5 15.5q22 0 37.5 -15.5t15.5 -36.5q0 -22 -15.5 -37t-37.5 -15q-21 0 -36.5 15z" />
    <glyph glyph-name="slash" unicode="/" horiz-adv-x="402" 
d="M301 700h71l-272 -700h-70z" />
    <glyph glyph-name="zero" unicode="0" horiz-adv-x="624" 
d="M173 31q-61 41 -95.5 122t-34.5 197q0 115 35 196t95.5 122t138.5 41t138.5 -41t95 -122t34.5 -196q0 -116 -34.5 -197t-95 -122t-138.5 -41t-139 41zM458.5 131q53.5 80 53.5 219t-53.5 218.5t-146.5 79.5q-62 0 -107 -36t-69.5 -103t-24.5 -159t24.5 -159.5
t69.5 -103.5t107 -36q93 0 146.5 80z" />
    <glyph glyph-name="one" unicode="1" horiz-adv-x="317" 
d="M116 562.5q-33 -16.5 -73 -17.5v60q46 4 80.5 31t44.5 64h71v-700h-71v602q-19 -23 -52 -39.5z" />
    <glyph glyph-name="two" unicode="2" horiz-adv-x="540" 
d="M85 181.5q45 63.5 153 129.5q71 44 104 68t55 56.5t22 75.5q0 63 -40.5 100t-107.5 37q-68 0 -110.5 -40.5t-42.5 -115.5v-14h-70v18q0 63 26.5 111t77 75t119.5 27q67 0 116.5 -25t76 -69t26.5 -101q0 -56 -25 -97t-63.5 -70.5t-104.5 -69.5q-91 -55 -134 -102t-43 -107
v-7h375v-61h-455v27q0 91 45 154.5z" />
    <glyph glyph-name="three" unicode="3" horiz-adv-x="572" 
d="M102 53q-63 63 -64 169h68q1 -79 48.5 -124.5t129.5 -45.5q77 0 127.5 40.5t50.5 110.5q0 68 -50 106.5t-139 38.5h-29v56h25q83 0 119.5 35.5t36.5 87.5q0 56 -38 88t-105 32q-69 0 -111 -39t-42 -121h-68q0 109 59.5 165.5t163.5 56.5q66 0 114 -22.5t72.5 -62
t24.5 -89.5q0 -56 -31 -97t-87 -57q65 -12 111 -58.5t46 -123.5q0 -61 -31.5 -108.5t-89 -74t-132.5 -26.5q-116 0 -179 63z" />
    <glyph glyph-name="four" unicode="4" horiz-adv-x="556" 
d="M366 189h-328v58l328 453h71v-453h80v-58h-80v-189h-71v189zM366 247v362l-262 -362h262z" />
    <glyph glyph-name="five" unicode="5" horiz-adv-x="568" 
d="M160 18.5q-54 28.5 -82.5 78.5t-29.5 113h65q2 -72 50 -116.5t125 -44.5q79 0 128 48t49 136t-48.5 136t-126.5 48q-49 0 -89 -20t-66 -59h-70l57 362h353v-57h-303l-40 -245q24 33 70 54.5t104 21.5q65 0 117 -28.5t82 -83t30 -129.5t-30.5 -129.5t-86 -84t-129.5 -29.5
q-75 0 -129 28.5z" />
    <glyph glyph-name="six" unicode="6" horiz-adv-x="579" 
d="M426.5 439q51.5 -28 80.5 -81t29 -125q0 -73 -31 -128.5t-85 -85t-123 -29.5q-118 0 -183.5 87.5t-65.5 262.5q0 160 58.5 264.5t197.5 104.5q67 0 113.5 -25t70.5 -65t25 -85h-64q-5 50 -43 83.5t-103 33.5q-186 0 -188 -296q26 55 78 83.5t117 28.5t116.5 -28z
M421.5 100.5q46.5 51.5 46.5 133.5q0 80 -45.5 128t-123.5 48t-125 -48t-47 -128q0 -81 47 -133t124 -52t123.5 51.5z" />
    <glyph glyph-name="seven" unicode="7" horiz-adv-x="482" 
d="M379 640h-349v60h417v-60q-222 -343 -250 -640h-69q31 300 251 640z" />
    <glyph glyph-name="eight" unicode="8" horiz-adv-x="577" 
d="M160 15q-57 25 -89.5 73t-32.5 112q0 72 40 120.5t109 71.5q-45 20 -72.5 59.5t-27.5 90.5q0 47 24 85t69.5 60t108.5 22q62 0 107.5 -22t69.5 -60t24 -85q0 -51 -27.5 -90.5t-72.5 -59.5q69 -23 109 -71.5t40 -120.5q0 -64 -32.5 -112t-89.5 -73t-128 -25q-72 0 -129 25
zM388.5 450q37.5 33 37.5 87q0 53 -36.5 85t-100.5 32q-65 0 -101.5 -32t-36.5 -85q0 -54 37.5 -87t100.5 -33q62 0 99.5 33zM419 92.5q49 41.5 49 112.5q0 70 -49 112t-130 42q-82 0 -131 -42t-49 -112q0 -71 49 -112.5t131 -41.5q81 0 130 41.5z" />
    <glyph glyph-name="nine" unicode="9" horiz-adv-x="579" 
d="M465.5 620.5q65.5 -87.5 65.5 -262.5q0 -160 -58.5 -264.5t-196.5 -104.5q-67 0 -113.5 25t-70.5 65t-25 85h63q5 -50 43.5 -83.5t103.5 -33.5q185 0 187 295q-26 -54 -78 -82.5t-117 -28.5t-116 28t-80 81t-29 125q0 74 30.5 129t85 84.5t122.5 29.5q118 0 183.5 -87.5z
M405.5 336q46.5 48 46.5 128q0 81 -47 133t-123 52q-77 0 -123.5 -51.5t-46.5 -133.5q0 -80 45.5 -128t123.5 -48t124.5 48z" />
    <glyph glyph-name="colon" unicode=":" horiz-adv-x="191" 
d="M58.5 5q-15.5 15 -15.5 37q0 21 15.5 36.5t36.5 15.5q22 0 37.5 -15.5t15.5 -36.5q0 -22 -15.5 -37t-37.5 -15q-21 0 -36.5 15zM58.5 431q-15.5 15 -15.5 37q0 21 15.5 36.5t36.5 15.5q22 0 37.5 -15.5t15.5 -36.5q0 -22 -15.5 -37t-37.5 -15q-21 0 -36.5 15z" />
    <glyph glyph-name="semicolon" unicode=";" horiz-adv-x="198" 
d="M58.5 431q-15.5 15 -15.5 37q0 21 15.5 36.5t36.5 15.5q22 0 37.5 -15.5t15.5 -36.5q0 -22 -15.5 -37t-37.5 -15q-21 0 -36.5 15zM50 -66q33 0 44.5 13t10.5 44q-28 -1 -45 14t-17 38q0 21 14.5 36t37.5 15q26 0 42.5 -20.5t16.5 -64.5q0 -56 -26 -85.5t-68 -29.5h-17v40
h7z" />
    <glyph glyph-name="less" unicode="&#x3c;" horiz-adv-x="507" 
d="M45 206v69l417 206v-70l-354 -171l354 -170v-70z" />
    <glyph glyph-name="equal" unicode="=" horiz-adv-x="410" 
d="M351 388v-56h-292v56h292zM351 228v-56h-292v56h292z" />
    <glyph glyph-name="greater" unicode="&#x3e;" horiz-adv-x="507" 
d="M45 70l354 170l-354 171v70l417 -206v-69l-417 -206v70z" />
    <glyph glyph-name="question" unicode="?" horiz-adv-x="518" 
d="M239.5 306.5q13.5 29.5 33 49t50.5 42.5q40 30 59.5 55t19.5 65q0 61 -38 94t-103 33q-66 0 -105.5 -41t-39.5 -119h-71q-1 106 58.5 164t157.5 58q94 0 153 -50t59 -139q0 -38 -12.5 -65.5t-30 -45t-47.5 -40.5q-28 -21 -44.5 -37t-27.5 -39.5t-11 -55.5v-44h-74v44
q0 42 13.5 71.5zM228.5 5q-15.5 15 -15.5 37q0 21 15.5 36.5t36.5 15.5q22 0 37.5 -15.5t15.5 -36.5q0 -22 -15.5 -37t-37.5 -15q-21 0 -36.5 15z" />
    <glyph glyph-name="at" unicode="@" horiz-adv-x="793" 
d="M227 33.5q-85 43.5 -134.5 125.5t-49.5 192q0 108 48 189.5t130 125t182 43.5q99 0 178 -43.5t124 -123t45 -183.5q0 -95 -37 -144.5t-94 -49.5q-43 0 -71 26t-34 69q-11 -42 -47.5 -68.5t-82.5 -26.5q-40 0 -75.5 20.5t-57.5 61t-22 98.5q0 59 22 98.5t57 59t75 19.5
q47 0 83.5 -26t43.5 -67l4 82h39v-208q0 -45 18.5 -71t48.5 -26q39 0 61.5 41t22.5 111q0 92 -38.5 161.5t-107 107t-156.5 37.5t-159 -37.5t-112 -108.5t-41 -166q0 -99 44 -170.5t119 -109t167 -37.5q64 0 107 14v-44q-40 -15 -110 -15q-105 0 -190 43.5zM469 246
q33 38 33 100t-33 97t-81 35t-80.5 -34.5t-32.5 -97.5q0 -64 32.5 -101t80.5 -37t81 38z" />
    <glyph glyph-name="A" unicode="A" horiz-adv-x="674" 
d="M574 0l-68 181h-337l-68 -181h-78l270 700h89l269 -700h-77zM191 238h293l-144 382h-5z" />
    <glyph glyph-name="B" unicode="B" horiz-adv-x="601" 
d="M318 700q103 0 154 -45.5t51 -121.5q0 -56 -26 -94.5t-78 -55.5q70 -17 109 -63t39 -119q0 -92 -62.5 -146.5t-184.5 -54.5h-262v700h260zM414 438.5q34 30.5 34 86.5q0 54 -34 83t-103 29h-179v-229h179q69 0 103 30.5zM445.5 101.5q44.5 37.5 44.5 103.5
q0 65 -44.5 102.5t-130.5 37.5h-183v-281h183q86 0 130.5 37.5z" />
    <glyph glyph-name="C" unicode="C" horiz-adv-x="658" 
d="M193.5 31q-70.5 41 -110.5 122t-40 197t40 196.5t110.5 121.5t163.5 41q109 0 181 -53.5t90 -154.5h-72q-19 69 -70.5 106.5t-128.5 37.5q-110 0 -174.5 -76.5t-64.5 -218.5t64.5 -219t174.5 -77q76 0 128 37.5t71 107.5h72q-18 -102 -90 -155.5t-181 -53.5
q-93 0 -163.5 41z" />
    <glyph glyph-name="D" unicode="D" horiz-adv-x="654" 
d="M280 700q164 0 247.5 -90.5t83.5 -259.5t-83.5 -259.5t-247.5 -90.5h-222v700h222zM472 135.5q64 70.5 64 214.5q0 145 -63.5 215t-199.5 70h-141v-570h141q135 0 199 70.5z" />
    <glyph glyph-name="E" unicode="E" horiz-adv-x="542" 
d="M58 700h441v-65h-367v-245h337v-60h-337v-265h377v-65h-451v700z" />
    <glyph glyph-name="F" unicode="F" horiz-adv-x="531" 
d="M58 700h443v-65h-369v-254h302v-62h-302v-319h-74v700z" />
    <glyph glyph-name="G" unicode="G" horiz-adv-x="695" 
d="M196.5 31q-72.5 41 -113 122t-40.5 197q0 115 40.5 196t112 122t165.5 41q102 0 170.5 -47t89.5 -136h-72q-21 58 -68.5 88.5t-119.5 30.5q-112 0 -177.5 -76.5t-65.5 -218.5q0 -143 66 -219.5t179 -76.5q101 0 157 61t55 180h-181v60h253v-41q0 -160 -72.5 -242
t-209.5 -82q-96 0 -168.5 41z" />
    <glyph glyph-name="H" unicode="H" horiz-adv-x="645" 
d="M514 700h73v-700h-73v311h-382v-311h-74v700h74v-327h382v327z" />
    <glyph glyph-name="I" unicode="I" horiz-adv-x="190" 
d="M58 700h74v-700h-74v700z" />
    <glyph glyph-name="J" unicode="J" horiz-adv-x="650" 
d="M129.5 62q-71.5 72 -71.5 202h74q0 -99 51 -154t142 -55t142 55.5t51 157.5v432h74v-436q0 -130 -71.5 -202t-195.5 -72t-195.5 72z" />
    <glyph glyph-name="K" unicode="K" horiz-adv-x="626" 
d="M516 0l-276 325l-108 -119v-206h-74v700h74v-397l358 397h88l-292 -324l317 -376h-87z" />
    <glyph glyph-name="L" unicode="L" horiz-adv-x="528" 
d="M58 700h74v-635h363v-65h-437v700z" />
    <glyph glyph-name="M" unicode="M" horiz-adv-x="826" 
d="M58 700h88l267 -606l268 606h87v-700h-73v562h-3l-248 -562h-62l-248 562h-2v-562h-74v700z" />
    <glyph glyph-name="N" unicode="N" horiz-adv-x="658" 
d="M58 700h84l382 -589h2v589h73v-700h-85l-380 587h-2v-587h-74v700z" />
    <glyph glyph-name="O" unicode="O" horiz-adv-x="717" 
d="M196.5 32q-71.5 42 -112.5 123t-41 195t41 195t112.5 122.5t162.5 41.5t162 -41.5t112 -122.5t41 -195t-41 -195t-112 -123t-162 -42t-162.5 42zM483.5 87.5q54.5 33.5 85 100t30.5 162.5q0 95 -30.5 161.5t-85 100t-124.5 33.5q-71 0 -125 -33.5t-85 -100t-31 -161.5
q0 -96 31 -162.5t85 -100t125 -33.5q70 0 124.5 33.5z" />
    <glyph glyph-name="P" unicode="P" horiz-adv-x="587" 
d="M310 700q119 0 181.5 -56.5t62.5 -157.5q0 -100 -62.5 -156t-181.5 -56h-178v-274h-74v700h252zM435.5 377.5q43.5 37.5 43.5 108.5q0 73 -43.5 111t-128.5 38h-175v-295h175q85 0 128.5 37.5z" />
    <glyph glyph-name="Q" unicode="Q" horiz-adv-x="717" 
d="M601 103l72 -73l-44 -43l-70 71q-82 -68 -200 -68q-91 0 -162.5 42t-112.5 123t-41 195t41 195t112.5 122.5t162.5 41.5t162 -41.5t112 -122.5t41 -195q0 -152 -73 -247zM510 107l-135 137l44 43l131 -133q49 76 49 196q0 95 -30.5 161.5t-85 100t-124.5 33.5
q-71 0 -125 -33.5t-85 -100t-31 -161.5q0 -96 31 -162.5t85 -100t125 -33.5q90 0 151 53z" />
    <glyph glyph-name="R" unicode="R" horiz-adv-x="592" 
d="M484 0l-162 274h-12h-178v-274h-74v700h252q119 0 181.5 -56.5t62.5 -157.5q0 -81 -41 -133.5t-121 -70.5l167 -282h-75zM132 340h175q85 0 128.5 37.5t43.5 108.5q0 73 -43.5 111t-128.5 38h-175v-295z" />
    <glyph glyph-name="S" unicode="S" horiz-adv-x="607" 
d="M164 17q-60 27 -90.5 74.5t-30.5 108.5h74q4 -66 52 -106.5t141 -40.5q87 0 132.5 37t45.5 100q0 58 -37.5 88.5t-106.5 44.5l-91 18q-189 38 -189 183q0 84 61.5 134.5t174.5 50.5q74 0 129 -23t84.5 -64t29.5 -95h-73q-3 52 -46.5 85.5t-123.5 33.5q-81 0 -120.5 -34.5
t-39.5 -87.5q0 -98 133 -125l89 -18q99 -20 150.5 -63.5t51.5 -125.5q0 -95 -67.5 -148.5t-187.5 -53.5q-85 0 -145 27z" />
    <glyph glyph-name="T" unicode="T" horiz-adv-x="577" 
d="M252 635h-224v65h520v-65h-223v-635h-73v635z" />
    <glyph glyph-name="U" unicode="U" horiz-adv-x="650" 
d="M129 62q-71 72 -71 202v436h74v-432q0 -102 50.5 -157.5t142.5 -55.5q91 0 142 55.5t51 157.5v432h74v-436q0 -130 -71.5 -202t-195.5 -72q-125 0 -196 72z" />
    <glyph glyph-name="V" unicode="V" horiz-adv-x="684" 
d="M28 700h78l234 -620h5l234 620h77l-269 -700h-89z" />
    <glyph glyph-name="W" unicode="W" horiz-adv-x="964" 
d="M28 700h75l155 -598h4l181 598h79l180 -598h4l155 598h75l-188 -700h-80l-186 606l-186 -606h-79z" />
    <glyph glyph-name="X" unicode="X" horiz-adv-x="641" 
d="M617 0h-83l-214 303l-214 -303h-83l256 362l-239 338h82l198 -280l198 280h83l-239 -339z" />
    <glyph glyph-name="Y" unicode="Y" horiz-adv-x="645" 
d="M285 276l-257 424h83l211 -353l212 353h83l-257 -424v-276h-75v276z" />
    <glyph glyph-name="Z" unicode="Z" horiz-adv-x="609" 
d="M40 65l442 570h-424v65h507l-1 -65l-442 -570h447v-65h-529v65z" />
    <glyph glyph-name="bracketleft" unicode="[" horiz-adv-x="274" 
d="M58 745h158v-62h-87v-751h87v-62h-158v875z" />
    <glyph glyph-name="backslash" unicode="\" horiz-adv-x="402" 
d="M372 0h-71l-271 700h70z" />
    <glyph glyph-name="bracketright" unicode="]" horiz-adv-x="274" 
d="M216 -130h-158v62h87v751h-87v62h158v-875z" />
    <glyph glyph-name="asciicircum" unicode="^" horiz-adv-x="477" 
d="M213 700h51l168 -235h-67l-126 176l-126 -176h-68z" />
    <glyph glyph-name="underscore" unicode="_" horiz-adv-x="590" 
d="M45 0h500v-63h-500v63z" />
    <glyph glyph-name="grave" unicode="`" horiz-adv-x="167" 
d="M99 582l-97 130h68l97 -130h-68z" />
    <glyph glyph-name="a" unicode="a" horiz-adv-x="530" 
d="M422 488q50 -42 50 -135v-353h-67v90h-3q-9 -18 -32.5 -41t-66 -41t-100.5 -18q-78 0 -124 35.5t-46 104.5q0 64 43.5 99t131.5 47l114 15q79 11 79 34v28q0 66 -33.5 94t-101.5 28q-67 0 -100 -25t-33 -76v-11h-68v16q0 76 53 113.5t151 37.5q103 0 153 -42zM401 268
q-3 -19 -73 -28l-105 -15q-66 -9 -92.5 -31.5t-26.5 -59.5q0 -45 30.5 -66t81.5 -21q59 0 101 24t63 56t21 55v86z" />
    <glyph glyph-name="b" unicode="b" 
d="M434 500.5q53 -29.5 85.5 -90.5t32.5 -150t-32.5 -150t-85.5 -90.5t-117 -29.5q-60 0 -110 25.5t-78 73.5v-89h-71v700h71v-269q28 48 78 73.5t110 25.5q64 0 117 -29.5zM394.5 73.5q40.5 23.5 65.5 71t25 115.5t-25 115.5t-65.5 71t-88.5 23.5q-47 0 -88.5 -23.5
t-66.5 -71t-25 -115.5t25 -115.5t66.5 -71t88.5 -23.5q48 0 88.5 23.5z" />
    <glyph glyph-name="c" unicode="c" horiz-adv-x="532" 
d="M157 20q-57 30 -90.5 90.5t-33.5 148.5q0 89 33.5 150t90.5 91t126 30q81 0 143.5 -43t75.5 -141h-64q-11 64 -54.5 94t-101.5 30q-80 0 -130 -54.5t-50 -156.5q0 -100 50 -154.5t130 -54.5q58 0 101.5 30.5t54.5 95.5h64q-12 -99 -74.5 -142.5t-144.5 -43.5
q-69 0 -126 30z" />
    <glyph glyph-name="d" unicode="d" 
d="M527 700v-700h-71v88q-28 -47 -78 -72.5t-110 -25.5q-63 0 -116.5 29.5t-86 90.5t-32.5 150t32.5 150t86 90.5t116.5 29.5q60 0 110 -25.5t78 -72.5v268h71zM368.5 73.5q41.5 23.5 66.5 71t25 115.5t-25 115.5t-66.5 71t-88.5 23.5q-48 0 -88.5 -23.5t-65.5 -71
t-25 -115.5t25 -115.5t65.5 -71t88.5 -23.5q47 0 88.5 23.5z" />
    <glyph glyph-name="e" unicode="e" horiz-adv-x="537" 
d="M501 239h-399q4 -96 50 -144.5t130 -48.5q115 0 150 96h65q-25 -81 -82.5 -117t-135.5 -36q-112 0 -179 68.5t-67 200.5q0 91 32 152t86.5 90.5t122.5 29.5q104 0 167 -65.5t63 -189.5q0 -22 -3 -36zM436 291q-1 88 -44.5 135t-118.5 47q-73 0 -119.5 -46.5t-50.5 -135.5
h333z" />
    <glyph glyph-name="f" unicode="f" horiz-adv-x="303" 
d="M183.5 641.5q-17.5 -17.5 -17.5 -60.5v-61h109v-57h-109v-463h-71v463h-72v57h72v73q0 123 130 123h53v-57h-35q-42 0 -59.5 -17.5z" />
    <glyph glyph-name="g" unicode="g" horiz-adv-x="581" 
d="M523 520v-513q0 -117 -73 -166.5t-175 -49.5q-93 0 -158 39.5t-66 120.5h62q2 -48 47 -75.5t115 -27.5q79 0 128 39t49 120v101q-28 -47 -79 -72t-110 -25q-62 0 -114.5 28t-84 86.5t-31.5 144.5t32 145t84 87t114 28q59 0 110 -25t79 -72v87h71zM364.5 93
q40.5 22 65.5 67t25 110t-25 110t-65.5 67.5t-87.5 22.5q-48 0 -88 -22.5t-64 -67.5t-24 -110t24 -110t64 -67t88 -22q47 0 87.5 22z" />
    <glyph glyph-name="h" unicode="h" horiz-adv-x="557" 
d="M447.5 479.5q51.5 -50.5 51.5 -159.5v-320h-71v306q0 163 -140 163q-73 0 -116 -43.5t-43 -119.5v-306h-71v700h71v-277q7 21 28.5 45.5t60.5 43t94 18.5q84 0 135.5 -50.5z" />
    <glyph glyph-name="i" unicode="i" horiz-adv-x="188" 
d="M61 642.5q-14 13.5 -14 32.5t14 32.5t33 13.5t32.5 -13.5t13.5 -32.5t-13.5 -32.5t-32.5 -13.5t-33 13.5zM58 520h71v-520h-71v520z" />
    <glyph glyph-name="j" unicode="j" horiz-adv-x="206" 
d="M79.5 642.5q-13.5 13.5 -13.5 32.5t13.5 32.5t32.5 13.5t32.5 -13.5t13.5 -32.5t-13.5 -32.5t-32.5 -13.5t-32.5 13.5zM-34 -184v56h31q44 0 62 18t18 61v569h71v-583q0 -124 -130 -124q-23 0 -52 3z" />
    <glyph glyph-name="k" unicode="k" horiz-adv-x="534" 
d="M439 0l-215 248l-95 -97v-151h-71v700h71v-471l280 291h82l-222 -227l252 -293h-82z" />
    <glyph glyph-name="l" unicode="l" horiz-adv-x="188" 
d="M58 700h71v-700h-71v700z" />
    <glyph glyph-name="m" unicode="m" horiz-adv-x="871" 
d="M763.5 480q48.5 -50 48.5 -160v-320h-71v306q0 163 -129 163q-67 0 -104 -43t-37 -120v-306h-71v306q0 163 -129 163q-67 0 -104.5 -43t-37.5 -120v-306h-71v520h71v-97q6 21 25.5 46t55 43t86.5 18q58 0 100.5 -27t61.5 -86q16 42 58.5 77.5t117.5 35.5q81 0 129.5 -50z
" />
    <glyph glyph-name="n" unicode="n" horiz-adv-x="557" 
d="M447.5 479.5q51.5 -50.5 51.5 -159.5v-320h-71v306q0 163 -140 163q-73 0 -116 -43.5t-43 -119.5v-306h-71v520h71v-97q7 21 28.5 45.5t60.5 43t94 18.5q84 0 135.5 -50.5z" />
    <glyph glyph-name="o" unicode="o" horiz-adv-x="564" 
d="M158.5 20q-56.5 30 -91 91t-34.5 149t34.5 149t91 91t123.5 30q66 0 122.5 -30t91 -91t34.5 -149t-34.5 -149t-91 -91t-122.5 -30q-67 0 -123.5 30zM371 73q41 23 66 70.5t25 116.5t-25 116.5t-66 70.5t-89 23q-49 0 -90 -23t-65.5 -70.5t-24.5 -116.5t24.5 -116.5
t65.5 -70.5t90 -23q48 0 89 23z" />
    <glyph glyph-name="p" unicode="p" 
d="M434 500.5q53 -29.5 85.5 -90.5t32.5 -150t-32.5 -150t-85.5 -90.5t-117 -29.5q-60 0 -110 25.5t-78 73.5v-279h-71v710h71v-89q28 48 78 73.5t110 25.5q64 0 117 -29.5zM394.5 73.5q40.5 23.5 65.5 71t25 115.5t-25 115.5t-65.5 71t-88.5 23.5q-47 0 -88.5 -23.5
t-66.5 -71t-25 -115.5t25 -115.5t66.5 -71t88.5 -23.5q48 0 88.5 23.5z" />
    <glyph glyph-name="q" unicode="q" 
d="M527 520v-710h-71v278q-28 -47 -78 -72.5t-110 -25.5q-63 0 -116.5 29.5t-86 90.5t-32.5 150t32.5 150t86 90.5t116.5 29.5q60 0 110 -25.5t78 -72.5v88h71zM368.5 73.5q41.5 23.5 66.5 71t25 115.5t-25 115.5t-66.5 71t-88.5 23.5q-48 0 -88.5 -23.5t-65.5 -71
t-25 -115.5t25 -115.5t65.5 -71t88.5 -23.5q47 0 88.5 23.5z" />
    <glyph glyph-name="r" unicode="r" horiz-adv-x="359" 
d="M336 519v-60q-18 3 -37 3q-80 0 -125 -49.5t-45 -132.5v-280h-71v520h71v-115h2q13 47 54.5 83t111.5 36q25 0 39 -5z" />
    <glyph glyph-name="s" unicode="s" horiz-adv-x="477" 
d="M91 29q-59 39 -63 115h65q7 -51 49 -74.5t100 -23.5q59 0 97 24t38 73q0 38 -23.5 55.5t-73.5 30.5l-98 23q-68 17 -102 50.5t-34 85.5q0 67 52 104.5t139 37.5q86 0 138.5 -38t57.5 -113h-60q-9 51 -43.5 73t-91.5 22q-58 0 -91 -22t-33 -62q0 -31 22 -51.5t70 -32.5
l97 -22q73 -18 109.5 -48.5t36.5 -91.5q0 -79 -60 -116.5t-148 -37.5q-91 0 -150 39z" />
    <glyph glyph-name="t" unicode="t" horiz-adv-x="318" 
d="M289 52v-56q-18 -3 -53 -3q-129 0 -129 124v346h-84v57h84v129h71v-129h103v-57h-103v-332q0 -43 17.5 -61t60.5 -18h33z" />
    <glyph glyph-name="u" unicode="u" horiz-adv-x="558" 
d="M499 520v-520h-71v97q-7 -21 -28.5 -45.5t-60.5 -43t-93 -18.5q-84 0 -136 50.5t-52 159.5v320h71v-306q0 -79 34.5 -121t105.5 -42q73 0 116 43.5t43 119.5v306h71z" />
    <glyph glyph-name="v" unicode="v" horiz-adv-x="541" 
d="M23 520h73l173 -453h3l174 453h72l-203 -520h-89z" />
    <glyph glyph-name="w" unicode="w" horiz-adv-x="791" 
d="M23 520h70l122 -446h4l145 446h63l144 -446h4l123 446h69l-150 -520h-81l-141 426l-141 -426h-81z" />
    <glyph glyph-name="x" unicode="x" horiz-adv-x="518" 
d="M220 263l-182 257h80l141 -204l141 204h80l-182 -257l186 -263h-79l-146 210l-146 -210h-80z" />
    <glyph glyph-name="y" unicode="y" horiz-adv-x="529" 
d="M105 -131q41 0 68 21.5t44 64.5q9 24 9 41q0 11 -5 26l-198 498h74l168 -438l167 438h74l-226 -568q-31 -75 -72 -110t-99 -35q-21 0 -32 2v62q20 -2 28 -2z" />
    <glyph glyph-name="z" unicode="z" horiz-adv-x="496" 
d="M40 61l332 398h-322v61h406v-61l-332 -398h332v-61h-416v61z" />
    <glyph glyph-name="braceleft" unicode="{" horiz-adv-x="276" 
d="M114 -108q-24 22 -24 61v282l-45 71l45 73v283q0 39 24 61t58 22h59v-62h-35q-16 0 -25.5 -9t-9.5 -25v-275l-43 -68l43 -66v-274q0 -16 9.5 -25t25.5 -9h35v-62h-59q-34 0 -58 22z" />
    <glyph glyph-name="bar" unicode="|" horiz-adv-x="213" 
d="M75 800h63v-990h-63v990z" />
    <glyph glyph-name="braceright" unicode="}" horiz-adv-x="276" 
d="M45 -130v62h35q16 0 25.5 9t9.5 25v274l44 66l-44 68v275q0 16 -9.5 25t-25.5 9h-35v62h59q34 0 58 -22t24 -61v-283l45 -73l-45 -71v-282q0 -39 -24 -61t-58 -22h-59z" />
    <glyph glyph-name="asciitilde" unicode="~" horiz-adv-x="505" 
d="M296.5 236.5q-22.5 11.5 -52.5 34.5q-25 20 -43 30t-40 10q-29 0 -43.5 -17.5t-14.5 -39.5h-45q-1 47 28 74.5t71 27.5q29 0 51 -11.5t52 -34.5q27 -20 44.5 -30t39.5 -10q29 0 43 17.5t14 39.5h45q1 -47 -27 -74.5t-71 -27.5q-29 0 -51.5 11.5z" />
    <glyph glyph-name="exclamdown" unicode="&#xa1;" horiz-adv-x="221" 
d="M147.5 515q15.5 -15 15.5 -37q0 -21 -15.5 -36.5t-37.5 -15.5q-21 0 -36.5 15.5t-15.5 36.5q0 22 15.5 37t36.5 15q22 0 37.5 -15zM81 329h59l7 -509h-73z" />
    <glyph glyph-name="cent" unicode="&#xa2;" horiz-adv-x="532" 
d="M387 156.5q41 29.5 51 91.5h64q-12 -95 -72.5 -138t-139.5 -45v-105h-34v106q-63 6 -113.5 37t-80 88.5t-29.5 137.5q0 121 62.5 188t160.5 76v107h34v-106q79 -2 139 -44t73 -136h-64q-10 60 -51 89t-97 32v-411q56 3 97 32.5zM144 186.5q42 -52.5 112 -60.5v407
q-70 -8 -112 -60.5t-42 -143.5q0 -90 42 -142.5z" />
    <glyph glyph-name="sterling" unicode="&#xa3;" horiz-adv-x="541" 
d="M425 480v17q0 70 -40.5 109t-107.5 39q-66 0 -106.5 -36t-40.5 -98q0 -31 10 -59t30 -71l19 -42h138v-45h-122q8 -29 8 -56q0 -95 -93 -184q47 17 93 17q32 0 92 -10q64 -10 97 -10q42 0 82 11v-62q-35 -10 -80 -10q-37 0 -105 12q-6 1 -38.5 6t-63.5 5q-59 0 -114 -23
l-34 51q97 95 97 189q0 31 -10 64h-88v45h69q-8 18 -13 26q-22 45 -32.5 77t-10.5 71q0 59 27.5 103t76.5 67.5t111 23.5q97 0 156.5 -55.5t59.5 -152.5v-19h-67z" />
    <glyph glyph-name="currency" unicode="&#xa4;" horiz-adv-x="560" 
d="M462 347l46 -46l-47 -47l-45 45q-60 -47 -137 -47t-137 46l-43 -44l-48 47l46 45q-42 56 -42 130q0 71 42 131l-46 46l48 47l45 -45q59 45 135 45t136 -46l46 46l47 -47l-46 -47q41 -58 41 -130q0 -71 -41 -129zM363 335.5q38 23.5 59.5 61t21.5 79.5q0 41 -21.5 79
t-59.5 61.5t-84 23.5q-45 0 -82.5 -23.5t-59 -61.5t-21.5 -79q0 -42 21.5 -79.5t59 -61t82.5 -23.5q46 0 84 23.5z" />
    <glyph glyph-name="yen" unicode="&#xa5;" horiz-adv-x="645" 
d="M360 276v-1h134v-43h-134v-52h134v-43h-134v-137h-75v137h-133v43h133v52h-133v43h133v1l-257 424h83l211 -353l212 353h83z" />
    <glyph glyph-name="brokenbar" unicode="&#xa6;" horiz-adv-x="213" 
d="M75 800h63v-320h-63v320zM75 130h63v-320h-63v320z" />
    <glyph glyph-name="section" unicode="&#xa7;" horiz-adv-x="628" 
d="M535 66q33 -44 33 -109q0 -92 -68 -142.5t-190 -50.5q-120 0 -184.5 54t-75.5 149h77q11 -64 52.5 -100.5t130.5 -36.5q91 0 135.5 33.5t44.5 94.5q0 59 -36 90t-100 44l-103 22q-183 39 -183 184q0 73 47 119q-37 43 -37 109q0 82 61 132t174 50q109 0 169 -46t72 -130
h-77q-8 52 -46 81t-118 29q-82 0 -120 -32.5t-38 -84.5q0 -96 122 -121l91 -20q103 -21 156.5 -67t53.5 -132q0 -71 -43 -119zM479 114q21 30 21 71q0 59 -36 90.5t-100 44.5l-103 22q-49 11 -87 30q-29 -30 -29 -75q0 -96 122 -121l91 -20q76 -16 121 -42z" />
    <glyph glyph-name="dieresis" unicode="&#xa8;" horiz-adv-x="275" 
d="M14 642.5q-14 13.5 -14 32.5t14 32.5t32 13.5q19 0 33 -13.5t14 -32.5t-14 -32.5t-33 -13.5q-18 0 -32 13.5zM196 642.5q-14 13.5 -14 32.5t14 32.5t33 13.5q18 0 32 -13.5t14 -32.5t-14 -32.5t-32 -13.5q-19 0 -33 13.5z" />
    <glyph glyph-name="copyright" unicode="&#xa9;" horiz-adv-x="801" 
d="M220.5 39q-81.5 46 -129.5 128t-48 183t48 182.5t129.5 127.5t179.5 46t179.5 -46t129.5 -127.5t48 -182.5t-48 -183t-129.5 -128t-179.5 -46t-179.5 46zM556.5 78q71.5 40 113 111.5t41.5 160.5t-41.5 160t-113 111t-156.5 40t-156 -40t-112.5 -111t-41.5 -160
t41.5 -160.5t112.5 -111.5t156 -40t156.5 40zM299.5 163q-46.5 25 -73.5 73.5t-27 113.5t27 113t73.5 73t102.5 25q59 0 107 -29t67 -94h-50q-14 39 -47 58t-77 19q-68 0 -111 -43.5t-43 -121.5t43 -122t111 -44q45 0 78.5 19.5t47.5 59.5h49q-19 -65 -67.5 -95t-107.5 -30
q-56 0 -102.5 25z" />
    <glyph glyph-name="ordfeminine" unicode="&#xaa;" horiz-adv-x="385" 
d="M63 406q-30 23 -30 70q0 45 29 65.5t80 24.5l116 10q0 46 -18.5 67.5t-62.5 21.5q-35 0 -56 -12.5t-21 -36.5h-47q1 45 34 68t93 23q72 0 100.5 -35t28.5 -113v-97q0 -31 3.5 -46.5t14.5 -30.5h-48q-15 15 -15 57q-18 -25 -49.5 -42t-72.5 -17q-49 0 -79 23zM223.5 447
q26.5 21 34.5 43v52l-109 -10q-64 -6 -64 -53q0 -26 18 -39.5t52 -13.5q42 0 68.5 21z" />
    <glyph glyph-name="guillemotleft" unicode="&#xab;" horiz-adv-x="394" 
d="M40 269v58l144 123v-70l-94 -82l94 -82v-70zM210 269v58l144 123v-70l-94 -82l94 -82v-70z" />
    <glyph glyph-name="logicalnot" unicode="&#xac;" horiz-adv-x="512" 
d="M383 254h-325v58h396v-174h-71v116z" />
    <glyph glyph-name="uni00AD" unicode="&#xad;" horiz-adv-x="351" 
d="M40 308h271v-56h-271v56z" />
    <glyph glyph-name="registered" unicode="&#xae;" horiz-adv-x="801" 
d="M579.5 660q81.5 -46 129.5 -127.5t48 -182.5t-48 -183t-129.5 -128t-179.5 -46t-179.5 46t-129.5 128t-48 183t48 182.5t129.5 127.5t179.5 46t179.5 -46zM556.5 78q71.5 40 113 111.5t41.5 160.5t-41.5 160t-113 111t-156.5 40t-156 -40t-112.5 -111t-41.5 -160
t41.5 -160.5t112.5 -111.5t156 -40t156.5 40zM547 342q-25 -30 -69 -40l95 -141h-53l-90 136h-125v-136h-48v378h177q65 0 102 -32.5t37 -89.5q-1 -45 -26 -75zM502.5 359q23.5 22 23.5 59t-24 59t-73 22h-124v-162h124q50 0 73.5 22z" />
    <glyph glyph-name="macron" unicode="&#xaf;" horiz-adv-x="291" 
d="M0 712h291v-46h-291v46z" />
    <glyph glyph-name="degree" unicode="&#xb0;" horiz-adv-x="370" 
d="M110.5 442q-33.5 19 -53 53t-19.5 75t19.5 74.5t53 52.5t74.5 19t74.5 -19t53 -52.5t19.5 -74.5t-19.5 -75t-53 -53t-74.5 -19t-74.5 19zM253 501.5q27 26.5 27 68.5t-26.5 68t-68.5 26t-68.5 -26t-26.5 -68t27 -68.5t68 -26.5t68 26.5z" />
    <glyph glyph-name="plusminus" unicode="&#xb1;" horiz-adv-x="535" 
d="M233 325h-175v64h175v175h67v-175h176v-64h-176v-177h-67v177zM96 56h343v-56h-343v56z" />
    <glyph glyph-name="uni00B2" unicode="&#xb2;" horiz-adv-x="252" 
d="M57 512.5q17 27.5 57 53.5q34 20 45.5 31.5t11.5 33.5q0 20 -13.5 32t-35.5 12q-23 0 -36 -13.5t-13 -37.5v-6h-33v6q0 37 22 59t60 22t60 -21t22 -53q0 -29 -18.5 -48.5t-55.5 -41.5q-27 -16 -41 -34t-14 -34v-3h132v-30h-167v9q0 36 17 63.5z" />
    <glyph glyph-name="uni00B3" unicode="&#xb3;" horiz-adv-x="267" 
d="M64.5 459q-24.5 23 -24.5 62h31q1 -28 18 -42.5t46 -14.5q27 0 44 13t17 37q0 25 -18 37.5t-49 12.5h-11v25h11q27 0 41.5 13.5t14.5 32.5t-13.5 30.5t-37.5 11.5q-26 0 -40.5 -13.5t-14.5 -40.5h-30q0 39 23 60.5t62 21.5q38 0 59.5 -19.5t21.5 -49.5q0 -22 -13 -37
t-33 -20q23 -4 40.5 -20.5t17.5 -45.5q0 -34 -24.5 -55.5t-68.5 -21.5q-45 0 -69.5 23z" />
    <glyph glyph-name="acute" unicode="&#xb4;" horiz-adv-x="166" 
d="M97 712h69l-98 -130h-68z" />
    <glyph glyph-name="uni00B5" unicode="&#xb5;" horiz-adv-x="557" 
d="M499 520v-520h-71v97q-7 -21 -28.5 -45.5t-60.5 -43t-93 -18.5q-72 0 -117 34v-214h-71v710h71v-306q0 -79 34.5 -121t105.5 -42q73 0 116 43.5t43 119.5v306h71z" />
    <glyph glyph-name="paragraph" unicode="&#xb6;" horiz-adv-x="578" 
d="M520 -220h-59v872h-87v-872h-63v527h-72q-64 0 -110.5 25.5t-71 70t-24.5 100.5q0 57 24.5 101.5t71 70t110.5 25.5h281v-920z" />
    <glyph glyph-name="periodcentered" unicode="&#xb7;" horiz-adv-x="201" 
d="M63.5 244q-15.5 15 -15.5 37q0 21 15.5 36.5t36.5 15.5q22 0 37.5 -15.5t15.5 -36.5q0 -22 -15.5 -37t-37.5 -15q-21 0 -36.5 15z" />
    <glyph glyph-name="cedilla" unicode="&#xb8;" horiz-adv-x="154" 
d="M131 -68.5q23 -21.5 23 -57.5q0 -47 -38 -69.5t-95 -22.5v44q37 0 57.5 12t20.5 35q0 19 -12 30t-32 11q-15 0 -30 -7l-25 29l52 64h56l-43 -48q4 1 12 1q31 0 54 -21.5z" />
    <glyph glyph-name="uni00B9" unicode="&#xb9;" horiz-adv-x="169" 
d="M72 638q-14 -6 -32 -4v30q17 -1 32 10t21 26h31v-261h-31v217q-7 -12 -21 -18z" />
    <glyph glyph-name="ordmasculine" unicode="&#xba;" horiz-adv-x="384" 
d="M114 402q-36 19 -58.5 56t-22.5 87q0 51 22.5 87.5t58.5 55.5t78 19t78 -19t58 -55.5t22 -87.5q0 -50 -22 -87t-58 -56t-78 -19t-78 19zM268 461q31 31 31 84q0 54 -31 84.5t-76 30.5t-76.5 -30.5t-31.5 -84.5q0 -53 31.5 -84t76.5 -31t76 31z" />
    <glyph glyph-name="guillemotright" unicode="&#xbb;" horiz-adv-x="378" 
d="M28 146v70l94 82l-94 82v70l144 -123v-58zM198 146v70l95 82l-95 82v70l145 -123v-58z" />
    <glyph glyph-name="onequarter" unicode="&#xbc;" 
d="M72 638q-14 -6 -32 -4v30q17 -1 32 10t21 26h31v-261h-31v217q-7 -12 -21 -18zM485 700h40l-436 -700h-41zM479 66h-119v26l119 169h32v-169h30v-26h-30v-66h-32v66zM479 92v127l-89 -127h89z" />
    <glyph glyph-name="onehalf" unicode="&#xbd;" horiz-adv-x="584" 
d="M75 638q-14 -6 -32 -4v30q17 -1 32 10t21 26h31v-261h-31v217q-7 -12 -21 -18zM496 700h40l-436 -700h-41zM389 72.5q17 27.5 57 53.5q34 20 45.5 31.5t11.5 33.5q0 20 -13.5 32t-35.5 12q-23 0 -36 -13.5t-13 -37.5v-6h-33v6q0 37 22 59t60 22t60 -21t22 -53
q0 -29 -18.5 -48.5t-55.5 -41.5q-27 -16 -41 -34t-14 -34v-3h132v-30h-167v9q0 36 17 63.5z" />
    <glyph glyph-name="threequarters" unicode="&#xbe;" horiz-adv-x="617" 
d="M64.5 459q-24.5 23 -24.5 62h31q1 -28 18 -42.5t46 -14.5q27 0 44 13t17 37q0 25 -18 37.5t-49 12.5h-11v25h11q27 0 41.5 13.5t14.5 32.5t-13.5 30.5t-37.5 11.5q-26 0 -40.5 -13.5t-14.5 -40.5h-30q0 39 23 60.5t62 21.5q38 0 59.5 -19.5t21.5 -49.5q0 -22 -13 -37
t-33 -20q23 -4 40.5 -20.5t17.5 -45.5q0 -34 -24.5 -55.5t-68.5 -21.5q-45 0 -69.5 23zM532 700h40l-436 -700h-41zM500 66h-119v26l119 169h32v-169h30v-26h-30v-66h-32v66zM500 92v127l-89 -127h89z" />
    <glyph glyph-name="questiondown" unicode="&#xbf;" horiz-adv-x="518" 
d="M289.5 515q15.5 -15 15.5 -37q0 -21 -15.5 -36.5t-36.5 -15.5q-22 0 -37 15.5t-15 36.5q0 22 15 37t37 15q21 0 36.5 -15zM279.5 213.5q-13.5 -29.5 -33 -48.5t-51.5 -43q-40 -30 -59.5 -55t-19.5 -64q0 -61 38 -94.5t103 -33.5q67 0 106 41t39 119h71q1 -106 -58.5 -164
t-157.5 -58q-94 0 -153 50t-59 140q0 38 12.5 65t30 44.5t47.5 40.5q28 21 44.5 37t27.5 39.5t11 55.5v45h75v-45q0 -42 -13.5 -71.5z" />
    <glyph glyph-name="Agrave" unicode="&#xc0;" horiz-adv-x="674" 
d="M574 0l-68 181h-337l-68 -181h-78l270 700h89l269 -700h-77zM191 238h293l-144 382h-5zM318 762l-97 130h68l97 -130h-68z" />
    <glyph glyph-name="Aacute" unicode="&#xc1;" horiz-adv-x="674" 
d="M574 0l-68 181h-337l-68 -181h-78l270 700h89l269 -700h-77zM191 238h293l-144 382h-5zM383 892h69l-98 -130h-68z" />
    <glyph glyph-name="Acircumflex" unicode="&#xc2;" horiz-adv-x="674" 
d="M574 0l-68 181h-337l-68 -181h-78l270 700h89l269 -700h-77zM191 238h293l-144 382h-5zM284 892h105l98 -128h-72l-79 104l-78 -104h-72z" />
    <glyph glyph-name="Atilde" unicode="&#xc3;" horiz-adv-x="674" 
d="M574 0l-68 181h-337l-68 -181h-78l270 700h89l269 -700h-77zM191 238h293l-144 382h-5zM373 796q-19 10 -44 30q-22 17 -36.5 25t-32.5 8q-24 0 -36 -15.5t-11 -33.5h-43q0 45 23.5 68.5t61.5 23.5q26 0 45.5 -10t43.5 -29q22 -17 36.5 -25t32.5 -8q24 0 36 15t11 34h43
q0 -45 -23.5 -69t-61.5 -24q-26 0 -45 10z" />
    <glyph glyph-name="Adieresis" unicode="&#xc4;" horiz-adv-x="674" 
d="M574 0l-68 181h-337l-68 -181h-78l270 700h89l269 -700h-77zM191 238h293l-144 382h-5zM214 822.5q-14 13.5 -14 32.5t14 32.5t32 13.5q19 0 33 -13.5t14 -32.5t-14 -32.5t-33 -13.5q-18 0 -32 13.5zM396 822.5q-14 13.5 -14 32.5t14 32.5t33 13.5q18 0 32 -13.5
t14 -32.5t-14 -32.5t-32 -13.5q-19 0 -33 13.5z" />
    <glyph glyph-name="Aring" unicode="&#xc5;" horiz-adv-x="674" 
d="M574 0l-68 181h-337l-68 -181h-78l270 700h89l269 -700h-77zM191 238h293l-144 382h-5zM277 771.5q-25 24.5 -25 59.5t24.5 59t61.5 24t61.5 -24t24.5 -59t-25 -59.5t-61 -24.5t-61 24.5zM371.5 797.5q13.5 13.5 13.5 33.5t-13.5 33.5t-33.5 13.5q-19 0 -33 -13.5
t-14 -33.5t13.5 -33.5t33.5 -13.5t33.5 13.5z" />
    <glyph glyph-name="AE" unicode="&#xc6;" horiz-adv-x="985" 
d="M575 65h377v-65h-450v185h-273l-126 -185h-80l478 700h441v-65h-367v-245h337v-60h-337v-265zM270 245h232v341z" />
    <glyph glyph-name="Ccedilla" unicode="&#xc7;" horiz-adv-x="658" 
d="M485 91.5q52 37.5 71 107.5h72q-17 -97 -83.5 -150t-166.5 -58l-35 -39q4 1 12 1q31 0 54 -21.5t23 -57.5q0 -47 -38 -69.5t-95 -22.5v44q37 0 57.5 12t20.5 35q0 19 -12 30t-32 11q-15 0 -30 -7l-25 29l45 55q-84 8 -147 51t-98 121t-35 187q0 116 40 196.5t110.5 121.5
t163.5 41q109 0 181 -53.5t90 -154.5h-72q-19 69 -70.5 106.5t-128.5 37.5q-110 0 -174.5 -76.5t-64.5 -218.5t64.5 -219t174.5 -77q76 0 128 37.5z" />
    <glyph glyph-name="Egrave" unicode="&#xc8;" horiz-adv-x="542" 
d="M58 700h441v-65h-367v-245h337v-60h-337v-265h377v-65h-451v700zM258 762l-97 130h68l97 -130h-68z" />
    <glyph glyph-name="Eacute" unicode="&#xc9;" horiz-adv-x="542" 
d="M58 700h441v-65h-367v-245h337v-60h-337v-265h377v-65h-451v700zM324 892h69l-98 -130h-68z" />
    <glyph glyph-name="Ecircumflex" unicode="&#xca;" horiz-adv-x="542" 
d="M58 700h441v-65h-367v-245h337v-60h-337v-265h377v-65h-451v700zM225 892h105l98 -128h-72l-79 104l-78 -104h-72z" />
    <glyph glyph-name="Edieresis" unicode="&#xcb;" horiz-adv-x="542" 
d="M58 700h441v-65h-367v-245h337v-60h-337v-265h377v-65h-451v700zM154 822.5q-14 13.5 -14 32.5t14 32.5t32 13.5q19 0 33 -13.5t14 -32.5t-14 -32.5t-33 -13.5q-18 0 -32 13.5zM336 822.5q-14 13.5 -14 32.5t14 32.5t33 13.5q18 0 32 -13.5t14 -32.5t-14 -32.5t-32 -13.5
q-19 0 -33 13.5z" />
    <glyph glyph-name="Igrave" unicode="&#xcc;" horiz-adv-x="190" 
d="M58 700h74v-700h-74v700zM75 762l-97 130h68l97 -130h-68z" />
    <glyph glyph-name="Iacute" unicode="&#xcd;" horiz-adv-x="190" 
d="M58 700h74v-700h-74v700zM141 892h69l-98 -130h-68z" />
    <glyph glyph-name="Icircumflex" unicode="&#xce;" horiz-adv-x="190" 
d="M58 700h74v-700h-74v700zM41 892h105l98 -128h-72l-79 104l-78 -104h-72z" />
    <glyph glyph-name="Idieresis" unicode="&#xcf;" horiz-adv-x="190" 
d="M58 700h74v-700h-74v700zM-29 822.5q-14 13.5 -14 32.5t14 32.5t32 13.5q19 0 33 -13.5t14 -32.5t-14 -32.5t-33 -13.5q-18 0 -32 13.5zM153 822.5q-14 13.5 -14 32.5t14 32.5t33 13.5q18 0 32 -13.5t14 -32.5t-14 -32.5t-32 -13.5q-19 0 -33 13.5z" />
    <glyph glyph-name="Eth" unicode="&#xd0;" horiz-adv-x="675" 
d="M548.5 609.5q83.5 -90.5 83.5 -259.5t-83.5 -259.5t-247.5 -90.5h-221v320h-60v56h60v324h221q164 0 247.5 -90.5zM494 135.5q64 70.5 64 214.5q0 145 -63.5 215t-199.5 70h-142v-259h138v-56h-138v-255h142q135 0 199 70.5z" />
    <glyph glyph-name="Ntilde" unicode="&#xd1;" horiz-adv-x="658" 
d="M58 700h84l382 -589h2v589h73v-700h-85l-380 587h-2v-587h-74v700zM364 796q-19 10 -44 30q-22 17 -36.5 25t-32.5 8q-24 0 -36 -15.5t-11 -33.5h-43q0 45 23.5 68.5t61.5 23.5q26 0 45.5 -10t43.5 -29q22 -17 36.5 -25t32.5 -8q24 0 36 15t11 34h43q0 -45 -23.5 -69
t-61.5 -24q-26 0 -45 10z" />
    <glyph glyph-name="Ograve" unicode="&#xd2;" horiz-adv-x="717" 
d="M196.5 32q-71.5 42 -112.5 123t-41 195t41 195t112.5 122.5t162.5 41.5t162 -41.5t112 -122.5t41 -195t-41 -195t-112 -123t-162 -42t-162.5 42zM483.5 87.5q54.5 33.5 85 100t30.5 162.5q0 95 -30.5 161.5t-85 100t-124.5 33.5q-71 0 -125 -33.5t-85 -100t-31 -161.5
q0 -96 31 -162.5t85 -100t125 -33.5q70 0 124.5 33.5zM339 762l-97 130h68l97 -130h-68z" />
    <glyph glyph-name="Oacute" unicode="&#xd3;" horiz-adv-x="717" 
d="M196.5 32q-71.5 42 -112.5 123t-41 195t41 195t112.5 122.5t162.5 41.5t162 -41.5t112 -122.5t41 -195t-41 -195t-112 -123t-162 -42t-162.5 42zM483.5 87.5q54.5 33.5 85 100t30.5 162.5q0 95 -30.5 161.5t-85 100t-124.5 33.5q-71 0 -125 -33.5t-85 -100t-31 -161.5
q0 -96 31 -162.5t85 -100t125 -33.5q70 0 124.5 33.5zM405 892h69l-98 -130h-68z" />
    <glyph glyph-name="Ocircumflex" unicode="&#xd4;" horiz-adv-x="717" 
d="M196.5 32q-71.5 42 -112.5 123t-41 195t41 195t112.5 122.5t162.5 41.5t162 -41.5t112 -122.5t41 -195t-41 -195t-112 -123t-162 -42t-162.5 42zM483.5 87.5q54.5 33.5 85 100t30.5 162.5q0 95 -30.5 161.5t-85 100t-124.5 33.5q-71 0 -125 -33.5t-85 -100t-31 -161.5
q0 -96 31 -162.5t85 -100t125 -33.5q70 0 124.5 33.5zM305 892h105l98 -128h-72l-79 104l-78 -104h-72z" />
    <glyph glyph-name="Otilde" unicode="&#xd5;" horiz-adv-x="717" 
d="M196.5 32q-71.5 42 -112.5 123t-41 195t41 195t112.5 122.5t162.5 41.5t162 -41.5t112 -122.5t41 -195t-41 -195t-112 -123t-162 -42t-162.5 42zM483.5 87.5q54.5 33.5 85 100t30.5 162.5q0 95 -30.5 161.5t-85 100t-124.5 33.5q-71 0 -125 -33.5t-85 -100t-31 -161.5
q0 -96 31 -162.5t85 -100t125 -33.5q70 0 124.5 33.5zM394 796q-19 10 -44 30q-22 17 -36.5 25t-32.5 8q-24 0 -36 -15.5t-11 -33.5h-43q0 45 23.5 68.5t61.5 23.5q26 0 45.5 -10t43.5 -29q22 -17 36.5 -25t32.5 -8q24 0 36 15t11 34h43q0 -45 -23.5 -69t-61.5 -24
q-26 0 -45 10z" />
    <glyph glyph-name="Odieresis" unicode="&#xd6;" horiz-adv-x="717" 
d="M196.5 32q-71.5 42 -112.5 123t-41 195t41 195t112.5 122.5t162.5 41.5t162 -41.5t112 -122.5t41 -195t-41 -195t-112 -123t-162 -42t-162.5 42zM483.5 87.5q54.5 33.5 85 100t30.5 162.5q0 95 -30.5 161.5t-85 100t-124.5 33.5q-71 0 -125 -33.5t-85 -100t-31 -161.5
q0 -96 31 -162.5t85 -100t125 -33.5q70 0 124.5 33.5zM235 822.5q-14 13.5 -14 32.5t14 32.5t32 13.5q19 0 33 -13.5t14 -32.5t-14 -32.5t-33 -13.5q-18 0 -32 13.5zM417 822.5q-14 13.5 -14 32.5t14 32.5t33 13.5q18 0 32 -13.5t14 -32.5t-14 -32.5t-32 -13.5
q-19 0 -33 13.5z" />
    <glyph glyph-name="multiply" unicode="&#xd7;" horiz-adv-x="439" 
d="M50 125l125 126l-125 126l45 44l125 -126l124 126l45 -44l-125 -126l125 -126l-45 -44l-124 125l-125 -125z" />
    <glyph glyph-name="Oslash" unicode="&#xd8;" horiz-adv-x="717" 
d="M639.5 532q34.5 -77 34.5 -182q0 -114 -41 -195t-112 -123t-162 -42q-71 0 -132 26l-33 -66h-64l47 94q-63 45 -98.5 123t-35.5 183q0 114 41 195t112.5 122.5t162.5 41.5q73 0 133 -27l31 63h64l-45 -91q63 -45 97.5 -122zM141.5 205q23.5 -61 66.5 -98l255 516
q-45 22 -104 22q-71 0 -125 -33.5t-85 -100t-31 -161.5q0 -84 23.5 -145zM483.5 87.5q54.5 33.5 85 100t30.5 162.5q0 82 -23 143t-65 98l-255 -515q45 -22 103 -22q70 0 124.5 33.5z" />
    <glyph glyph-name="Ugrave" unicode="&#xd9;" horiz-adv-x="650" 
d="M129 62q-71 72 -71 202v436h74v-432q0 -102 50.5 -157.5t142.5 -55.5q91 0 142 55.5t51 157.5v432h74v-436q0 -130 -71.5 -202t-195.5 -72q-125 0 -196 72zM303 762l-97 130h68l97 -130h-68z" />
    <glyph glyph-name="Uacute" unicode="&#xda;" horiz-adv-x="650" 
d="M129 62q-71 72 -71 202v436h74v-432q0 -102 50.5 -157.5t142.5 -55.5q91 0 142 55.5t51 157.5v432h74v-436q0 -130 -71.5 -202t-195.5 -72q-125 0 -196 72zM369 892h69l-98 -130h-68z" />
    <glyph glyph-name="Ucircumflex" unicode="&#xdb;" horiz-adv-x="650" 
d="M129 62q-71 72 -71 202v436h74v-432q0 -102 50.5 -157.5t142.5 -55.5q91 0 142 55.5t51 157.5v432h74v-436q0 -130 -71.5 -202t-195.5 -72q-125 0 -196 72zM269 892h105l98 -128h-72l-79 104l-78 -104h-72z" />
    <glyph glyph-name="Udieresis" unicode="&#xdc;" horiz-adv-x="650" 
d="M129 62q-71 72 -71 202v436h74v-432q0 -102 50.5 -157.5t142.5 -55.5q91 0 142 55.5t51 157.5v432h74v-436q0 -130 -71.5 -202t-195.5 -72q-125 0 -196 72zM199 822.5q-14 13.5 -14 32.5t14 32.5t32 13.5q19 0 33 -13.5t14 -32.5t-14 -32.5t-33 -13.5q-18 0 -32 13.5z
M381 822.5q-14 13.5 -14 32.5t14 32.5t33 13.5q18 0 32 -13.5t14 -32.5t-14 -32.5t-32 -13.5q-19 0 -33 13.5z" />
    <glyph glyph-name="Yacute" unicode="&#xdd;" horiz-adv-x="645" 
d="M285 276l-257 424h83l211 -353l212 353h83l-257 -424v-276h-75v276zM368 892h69l-98 -130h-68z" />
    <glyph glyph-name="Thorn" unicode="&#xde;" horiz-adv-x="587" 
d="M491.5 506.5q62.5 -56.5 62.5 -157.5q0 -100 -62.5 -156t-181.5 -56h-178v-137h-74v700h74v-137h178q119 0 181.5 -56.5zM435.5 240q43.5 37 43.5 109q0 73 -43.5 111t-128.5 38h-175v-295h175q85 0 128.5 37z" />
    <glyph glyph-name="germandbls" unicode="&#xdf;" horiz-adv-x="572" 
d="M277 709q104 0 161.5 -43.5t57.5 -127.5q0 -58 -28.5 -96t-82.5 -49q75 -15 114.5 -63t39.5 -126q0 -101 -66 -152.5t-195 -51.5h-66v63h62q194 0 194 146q0 76 -51 113t-142 37h-63v58h63q76 0 113 27.5t37 84.5q0 59 -38 88.5t-110 29.5q-75 0 -111.5 -31.5
t-36.5 -98.5v-517h-71v517q0 192 219 192z" />
    <glyph glyph-name="agrave" unicode="&#xe0;" horiz-adv-x="530" 
d="M422 488q50 -42 50 -135v-353h-67v90h-3q-9 -18 -32.5 -41t-66 -41t-100.5 -18q-78 0 -124 35.5t-46 104.5q0 64 43.5 99t131.5 47l114 15q79 11 79 34v28q0 66 -33.5 94t-101.5 28q-67 0 -100 -25t-33 -76v-11h-68v16q0 76 53 113.5t151 37.5q103 0 153 -42zM401 268
q-3 -19 -73 -28l-105 -15q-66 -9 -92.5 -31.5t-26.5 -59.5q0 -45 30.5 -66t81.5 -21q59 0 101 24t63 56t21 55v86zM246 582l-97 130h68l97 -130h-68z" />
    <glyph glyph-name="aacute" unicode="&#xe1;" horiz-adv-x="530" 
d="M422 488q50 -42 50 -135v-353h-67v90h-3q-9 -18 -32.5 -41t-66 -41t-100.5 -18q-78 0 -124 35.5t-46 104.5q0 64 43.5 99t131.5 47l114 15q79 11 79 34v28q0 66 -33.5 94t-101.5 28q-67 0 -100 -25t-33 -76v-11h-68v16q0 76 53 113.5t151 37.5q103 0 153 -42zM401 268
q-3 -19 -73 -28l-105 -15q-66 -9 -92.5 -31.5t-26.5 -59.5q0 -45 30.5 -66t81.5 -21q59 0 101 24t63 56t21 55v86zM311 712h69l-98 -130h-68z" />
    <glyph glyph-name="acircumflex" unicode="&#xe2;" horiz-adv-x="530" 
d="M422 488q50 -42 50 -135v-353h-67v90h-3q-9 -18 -32.5 -41t-66 -41t-100.5 -18q-78 0 -124 35.5t-46 104.5q0 64 43.5 99t131.5 47l114 15q79 11 79 34v28q0 66 -33.5 94t-101.5 28q-67 0 -100 -25t-33 -76v-11h-68v16q0 76 53 113.5t151 37.5q103 0 153 -42zM401 268
q-3 -19 -73 -28l-105 -15q-66 -9 -92.5 -31.5t-26.5 -59.5q0 -45 30.5 -66t81.5 -21q59 0 101 24t63 56t21 55v86zM212 712h105l98 -128h-72l-79 104l-78 -104h-72z" />
    <glyph glyph-name="atilde" unicode="&#xe3;" horiz-adv-x="530" 
d="M422 488q50 -42 50 -135v-353h-67v90h-3q-9 -18 -32.5 -41t-66 -41t-100.5 -18q-78 0 -124 35.5t-46 104.5q0 64 43.5 99t131.5 47l114 15q79 11 79 34v28q0 66 -33.5 94t-101.5 28q-67 0 -100 -25t-33 -76v-11h-68v16q0 76 53 113.5t151 37.5q103 0 153 -42zM401 268
q-3 -19 -73 -28l-105 -15q-66 -9 -92.5 -31.5t-26.5 -59.5q0 -45 30.5 -66t81.5 -21q59 0 101 24t63 56t21 55v86zM300 616q-19 10 -44 30q-22 17 -36.5 25t-32.5 8q-24 0 -36 -15.5t-11 -33.5h-43q0 45 23.5 68.5t61.5 23.5q26 0 45.5 -10t43.5 -29q22 -17 36.5 -25
t32.5 -8q24 0 36 15t11 34h43q0 -45 -23.5 -69t-61.5 -24q-26 0 -45 10z" />
    <glyph glyph-name="adieresis" unicode="&#xe4;" horiz-adv-x="530" 
d="M422 488q50 -42 50 -135v-353h-67v90h-3q-9 -18 -32.5 -41t-66 -41t-100.5 -18q-78 0 -124 35.5t-46 104.5q0 64 43.5 99t131.5 47l114 15q79 11 79 34v28q0 66 -33.5 94t-101.5 28q-67 0 -100 -25t-33 -76v-11h-68v16q0 76 53 113.5t151 37.5q103 0 153 -42zM401 268
q-3 -19 -73 -28l-105 -15q-66 -9 -92.5 -31.5t-26.5 -59.5q0 -45 30.5 -66t81.5 -21q59 0 101 24t63 56t21 55v86zM141 642.5q-14 13.5 -14 32.5t14 32.5t32 13.5q19 0 33 -13.5t14 -32.5t-14 -32.5t-33 -13.5q-18 0 -32 13.5zM323 642.5q-14 13.5 -14 32.5t14 32.5t33 13.5
q18 0 32 -13.5t14 -32.5t-14 -32.5t-32 -13.5q-19 0 -33 13.5z" />
    <glyph glyph-name="aring" unicode="&#xe5;" horiz-adv-x="530" 
d="M422 488q50 -42 50 -135v-353h-67v90h-3q-9 -18 -32.5 -41t-66 -41t-100.5 -18q-78 0 -124 35.5t-46 104.5q0 64 43.5 99t131.5 47l114 15q79 11 79 34v28q0 66 -33.5 94t-101.5 28q-67 0 -100 -25t-33 -76v-11h-68v16q0 76 53 113.5t151 37.5q103 0 153 -42zM401 268
q-3 -19 -73 -28l-105 -15q-66 -9 -92.5 -31.5t-26.5 -59.5q0 -45 30.5 -66t81.5 -21q59 0 101 24t63 56t21 55v86zM205 591.5q-25 24.5 -25 59.5t24.5 59t61.5 24t61.5 -24t24.5 -59t-25 -59.5t-61 -24.5t-61 24.5zM299.5 617.5q13.5 13.5 13.5 33.5t-13.5 33.5t-33.5 13.5
q-19 0 -33 -13.5t-14 -33.5t13.5 -33.5t33.5 -13.5t33.5 13.5z" />
    <glyph glyph-name="ae" unicode="&#xe6;" horiz-adv-x="905" 
d="M868 239h-399q4 -96 50 -144.5t130 -48.5q117 0 150 96h65q-24 -80 -81.5 -116.5t-135.5 -36.5q-76 0 -132.5 32t-85.5 95q-25 -52 -82.5 -89t-144.5 -37q-79 0 -124 35t-45 104q0 64 43 98t132 46l111 15q44 6 62.5 15.5t18.5 26.5v37q0 107 -135 107q-65 0 -99 -23.5
t-34 -68.5v-10h-66v15q0 71 53.5 107t149.5 36q74 0 117.5 -22.5t61.5 -71.5q32 47 82.5 70.5t110.5 23.5q104 0 167 -65.5t63 -189.5q0 -22 -3 -36zM803 291q-1 87 -44 134.5t-118 47.5q-74 0 -120 -46t-51 -136h333zM400 271q-5 -10 -22.5 -15.5t-52.5 -10.5l-100 -15
q-66 -9 -93.5 -33.5t-27.5 -62.5q0 -45 31 -66.5t83 -21.5q58 0 99 22.5t62 53.5t21 54v95z" />
    <glyph glyph-name="ccedilla" unicode="&#xe7;" horiz-adv-x="532" 
d="M383.5 80.5q43.5 30.5 54.5 95.5h64q-12 -93 -67.5 -137t-131.5 -48l-35 -39q4 1 12 1q31 0 54 -21.5t23 -57.5q0 -47 -38 -69.5t-95 -22.5v44q37 0 57.5 12t20.5 35q0 19 -12 30t-32 11q-15 0 -30 -7l-25 29l45 56q-94 11 -154.5 79.5t-60.5 187.5q0 89 33.5 150
t90.5 91t126 30q81 0 143.5 -43t75.5 -141h-64q-11 64 -54.5 94t-101.5 30q-80 0 -130 -54.5t-50 -156.5q0 -100 50 -154.5t130 -54.5q58 0 101.5 30.5z" />
    <glyph glyph-name="egrave" unicode="&#xe8;" horiz-adv-x="537" 
d="M501 239h-399q4 -96 50 -144.5t130 -48.5q115 0 150 96h65q-25 -81 -82.5 -117t-135.5 -36q-112 0 -179 68.5t-67 200.5q0 91 32 152t86.5 90.5t122.5 29.5q104 0 167 -65.5t63 -189.5q0 -22 -3 -36zM436 291q-1 88 -44.5 135t-118.5 47q-73 0 -119.5 -46.5t-50.5 -135.5
h333zM251 582l-97 130h68l97 -130h-68z" />
    <glyph glyph-name="eacute" unicode="&#xe9;" horiz-adv-x="537" 
d="M501 239h-399q4 -96 50 -144.5t130 -48.5q115 0 150 96h65q-25 -81 -82.5 -117t-135.5 -36q-112 0 -179 68.5t-67 200.5q0 91 32 152t86.5 90.5t122.5 29.5q104 0 167 -65.5t63 -189.5q0 -22 -3 -36zM436 291q-1 88 -44.5 135t-118.5 47q-73 0 -119.5 -46.5t-50.5 -135.5
h333zM317 712h69l-98 -130h-68z" />
    <glyph glyph-name="ecircumflex" unicode="&#xea;" horiz-adv-x="537" 
d="M501 239h-399q4 -96 50 -144.5t130 -48.5q115 0 150 96h65q-25 -81 -82.5 -117t-135.5 -36q-112 0 -179 68.5t-67 200.5q0 91 32 152t86.5 90.5t122.5 29.5q104 0 167 -65.5t63 -189.5q0 -22 -3 -36zM436 291q-1 88 -44.5 135t-118.5 47q-73 0 -119.5 -46.5t-50.5 -135.5
h333zM218 712h105l98 -128h-72l-79 104l-78 -104h-72z" />
    <glyph glyph-name="edieresis" unicode="&#xeb;" horiz-adv-x="537" 
d="M501 239h-399q4 -96 50 -144.5t130 -48.5q115 0 150 96h65q-25 -81 -82.5 -117t-135.5 -36q-112 0 -179 68.5t-67 200.5q0 91 32 152t86.5 90.5t122.5 29.5q104 0 167 -65.5t63 -189.5q0 -22 -3 -36zM436 291q-1 88 -44.5 135t-118.5 47q-73 0 -119.5 -46.5t-50.5 -135.5
h333zM147 642.5q-14 13.5 -14 32.5t14 32.5t32 13.5q19 0 33 -13.5t14 -32.5t-14 -32.5t-33 -13.5q-18 0 -32 13.5zM329 642.5q-14 13.5 -14 32.5t14 32.5t33 13.5q18 0 32 -13.5t14 -32.5t-14 -32.5t-32 -13.5q-19 0 -33 13.5z" />
    <glyph glyph-name="igrave" unicode="&#xec;" horiz-adv-x="166" 
d="M47 520h71v-520h-71v520zM63 582l-97 130h68l97 -130h-68z" />
    <glyph glyph-name="iacute" unicode="&#xed;" horiz-adv-x="166" 
d="M47 520h71v-520h-71v520zM129 712h69l-98 -130h-68z" />
    <glyph glyph-name="icircumflex" unicode="&#xee;" horiz-adv-x="166" 
d="M47 520h71v-520h-71v520zM29 712h105l98 -128h-72l-79 104l-78 -104h-72z" />
    <glyph glyph-name="idieresis" unicode="&#xef;" horiz-adv-x="166" 
d="M47 520h71v-520h-71v520zM-41 642.5q-14 13.5 -14 32.5t14 32.5t32 13.5q19 0 33 -13.5t14 -32.5t-14 -32.5t-33 -13.5q-18 0 -32 13.5zM141 642.5q-14 13.5 -14 32.5t14 32.5t33 13.5q18 0 32 -13.5t14 -32.5t-14 -32.5t-32 -13.5q-19 0 -33 13.5z" />
    <glyph glyph-name="eth" unicode="&#xf0;" horiz-adv-x="570" 
d="M458 482q30 -53 42 -102.5t12 -112.5q0 -90 -32 -152.5t-86 -93.5t-122 -31q-67 0 -121.5 31t-86 92.5t-31.5 148.5q0 122 61 190t170 68q84 0 134 -49q-39 65 -96 138h-111v38h80l-46 53h75l43 -53h135v-38h-106q56 -74 86 -127zM393.5 105.5q47.5 52.5 47.5 156.5
q0 99 -43.5 147.5t-124.5 48.5t-125 -48.5t-44 -147.5q0 -104 48 -156.5t121 -52.5t120.5 52.5z" />
    <glyph glyph-name="ntilde" unicode="&#xf1;" horiz-adv-x="557" 
d="M447.5 479.5q51.5 -50.5 51.5 -159.5v-320h-71v306q0 163 -140 163q-73 0 -116 -43.5t-43 -119.5v-306h-71v520h71v-97q7 21 28.5 45.5t60.5 43t94 18.5q84 0 135.5 -50.5zM315 616q-19 10 -44 30q-22 17 -36.5 25t-32.5 8q-24 0 -36 -15.5t-11 -33.5h-43q0 45 23.5 68.5
t61.5 23.5q26 0 45.5 -10t43.5 -29q22 -17 36.5 -25t32.5 -8q24 0 36 15t11 34h43q0 -45 -23.5 -69t-61.5 -24q-26 0 -45 10z" />
    <glyph glyph-name="ograve" unicode="&#xf2;" horiz-adv-x="564" 
d="M158.5 20q-56.5 30 -91 91t-34.5 149t34.5 149t91 91t123.5 30q66 0 122.5 -30t91 -91t34.5 -149t-34.5 -149t-91 -91t-122.5 -30q-67 0 -123.5 30zM371 73q41 23 66 70.5t25 116.5t-25 116.5t-66 70.5t-89 23q-49 0 -90 -23t-65.5 -70.5t-24.5 -116.5t24.5 -116.5
t65.5 -70.5t90 -23q48 0 89 23zM262 582l-97 130h68l97 -130h-68z" />
    <glyph glyph-name="oacute" unicode="&#xf3;" horiz-adv-x="564" 
d="M158.5 20q-56.5 30 -91 91t-34.5 149t34.5 149t91 91t123.5 30q66 0 122.5 -30t91 -91t34.5 -149t-34.5 -149t-91 -91t-122.5 -30q-67 0 -123.5 30zM371 73q41 23 66 70.5t25 116.5t-25 116.5t-66 70.5t-89 23q-49 0 -90 -23t-65.5 -70.5t-24.5 -116.5t24.5 -116.5
t65.5 -70.5t90 -23q48 0 89 23zM328 712h69l-98 -130h-68z" />
    <glyph glyph-name="ocircumflex" unicode="&#xf4;" horiz-adv-x="564" 
d="M158.5 20q-56.5 30 -91 91t-34.5 149t34.5 149t91 91t123.5 30q66 0 122.5 -30t91 -91t34.5 -149t-34.5 -149t-91 -91t-122.5 -30q-67 0 -123.5 30zM371 73q41 23 66 70.5t25 116.5t-25 116.5t-66 70.5t-89 23q-49 0 -90 -23t-65.5 -70.5t-24.5 -116.5t24.5 -116.5
t65.5 -70.5t90 -23q48 0 89 23zM228 712h105l98 -128h-72l-79 104l-78 -104h-72z" />
    <glyph glyph-name="otilde" unicode="&#xf5;" horiz-adv-x="564" 
d="M158.5 20q-56.5 30 -91 91t-34.5 149t34.5 149t91 91t123.5 30q66 0 122.5 -30t91 -91t34.5 -149t-34.5 -149t-91 -91t-122.5 -30q-67 0 -123.5 30zM371 73q41 23 66 70.5t25 116.5t-25 116.5t-66 70.5t-89 23q-49 0 -90 -23t-65.5 -70.5t-24.5 -116.5t24.5 -116.5
t65.5 -70.5t90 -23q48 0 89 23zM317 616q-19 10 -44 30q-22 17 -36.5 25t-32.5 8q-24 0 -36 -15.5t-11 -33.5h-43q0 45 23.5 68.5t61.5 23.5q26 0 45.5 -10t43.5 -29q22 -17 36.5 -25t32.5 -8q24 0 36 15t11 34h43q0 -45 -23.5 -69t-61.5 -24q-26 0 -45 10z" />
    <glyph glyph-name="odieresis" unicode="&#xf6;" horiz-adv-x="564" 
d="M158.5 20q-56.5 30 -91 91t-34.5 149t34.5 149t91 91t123.5 30q66 0 122.5 -30t91 -91t34.5 -149t-34.5 -149t-91 -91t-122.5 -30q-67 0 -123.5 30zM371 73q41 23 66 70.5t25 116.5t-25 116.5t-66 70.5t-89 23q-49 0 -90 -23t-65.5 -70.5t-24.5 -116.5t24.5 -116.5
t65.5 -70.5t90 -23q48 0 89 23zM158 642.5q-14 13.5 -14 32.5t14 32.5t32 13.5q19 0 33 -13.5t14 -32.5t-14 -32.5t-33 -13.5q-18 0 -32 13.5zM340 642.5q-14 13.5 -14 32.5t14 32.5t33 13.5q18 0 32 -13.5t14 -32.5t-14 -32.5t-32 -13.5q-19 0 -33 13.5z" />
    <glyph glyph-name="divide" unicode="&#xf7;" horiz-adv-x="410" 
d="M180.5 411q-10.5 11 -10.5 25t10.5 25t24.5 11t25 -11t11 -25t-11 -25t-25 -11t-24.5 11zM351 308v-56h-292v56h292zM180.5 99q-10.5 11 -10.5 25t10.5 24.5t24.5 10.5t25 -10.5t11 -24.5t-11 -25t-25 -11t-24.5 11z" />
    <glyph glyph-name="oslash" unicode="&#xf8;" horiz-adv-x="564" 
d="M501 399.5q29 -58.5 29 -139.5q0 -88 -34.5 -149t-91 -91t-122.5 -30q-49 0 -95 17l-28 -57h-57l39 80q-50 34 -79 91.5t-29 138.5q0 88 34.5 149t91 91t123.5 30q51 0 93 -16l31 64h57l-42 -87q51 -33 80 -91.5zM120 159q18 -43 49 -70l179 369q-31 12 -66 12
q-49 0 -90 -23t-65.5 -70.5t-24.5 -116.5q0 -58 18 -101zM371 73q41 23 66 70.5t25 116.5q0 59 -18.5 102.5t-50.5 69.5l-179 -369q30 -13 68 -13q48 0 89 23z" />
    <glyph glyph-name="ugrave" unicode="&#xf9;" horiz-adv-x="558" 
d="M499 520v-520h-71v97q-7 -21 -28.5 -45.5t-60.5 -43t-93 -18.5q-84 0 -136 50.5t-52 159.5v320h71v-306q0 -79 34.5 -121t105.5 -42q73 0 116 43.5t43 119.5v306h71zM255 582l-97 130h68l97 -130h-68z" />
    <glyph glyph-name="uacute" unicode="&#xfa;" horiz-adv-x="558" 
d="M499 520v-520h-71v97q-7 -21 -28.5 -45.5t-60.5 -43t-93 -18.5q-84 0 -136 50.5t-52 159.5v320h71v-306q0 -79 34.5 -121t105.5 -42q73 0 116 43.5t43 119.5v306h71zM321 712h69l-98 -130h-68z" />
    <glyph glyph-name="ucircumflex" unicode="&#xfb;" horiz-adv-x="558" 
d="M499 520v-520h-71v97q-7 -21 -28.5 -45.5t-60.5 -43t-93 -18.5q-84 0 -136 50.5t-52 159.5v320h71v-306q0 -79 34.5 -121t105.5 -42q73 0 116 43.5t43 119.5v306h71zM221 712h105l98 -128h-72l-79 104l-78 -104h-72z" />
    <glyph glyph-name="udieresis" unicode="&#xfc;" horiz-adv-x="558" 
d="M499 520v-520h-71v97q-7 -21 -28.5 -45.5t-60.5 -43t-93 -18.5q-84 0 -136 50.5t-52 159.5v320h71v-306q0 -79 34.5 -121t105.5 -42q73 0 116 43.5t43 119.5v306h71zM151 642.5q-14 13.5 -14 32.5t14 32.5t32 13.5q19 0 33 -13.5t14 -32.5t-14 -32.5t-33 -13.5
q-18 0 -32 13.5zM333 642.5q-14 13.5 -14 32.5t14 32.5t33 13.5q18 0 32 -13.5t14 -32.5t-14 -32.5t-32 -13.5q-19 0 -33 13.5z" />
    <glyph glyph-name="yacute" unicode="&#xfd;" horiz-adv-x="529" 
d="M105 -131q41 0 68 21.5t44 64.5q9 24 9 41q0 11 -5 26l-198 498h74l168 -438l167 438h74l-226 -568q-31 -75 -72 -110t-99 -35q-21 0 -32 2v62q20 -2 28 -2zM312 712h69l-98 -130h-68z" />
    <glyph glyph-name="thorn" unicode="&#xfe;" 
d="M129 700v-268q28 47 78.5 72.5t109.5 25.5q64 0 117 -29.5t85.5 -90.5t32.5 -150t-32.5 -150t-85.5 -90.5t-117 -29.5q-59 0 -109.5 25.5t-78.5 72.5v-278h-71v890h71zM394.5 73.5q40.5 23.5 65.5 71t25 115.5t-25 115.5t-65.5 71t-88.5 23.5q-47 0 -88.5 -23.5
t-66.5 -71t-25 -115.5t25 -115.5t66.5 -71t88.5 -23.5q48 0 88.5 23.5z" />
    <glyph glyph-name="ydieresis" unicode="&#xff;" horiz-adv-x="529" 
d="M105 -131q41 0 68 21.5t44 64.5q9 24 9 41q0 11 -5 26l-198 498h74l168 -438l167 438h74l-226 -568q-31 -75 -72 -110t-99 -35q-21 0 -32 2v62q20 -2 28 -2zM142 642.5q-14 13.5 -14 32.5t14 32.5t32 13.5q19 0 33 -13.5t14 -32.5t-14 -32.5t-33 -13.5q-18 0 -32 13.5z
M324 642.5q-14 13.5 -14 32.5t14 32.5t33 13.5q18 0 32 -13.5t14 -32.5t-14 -32.5t-32 -13.5q-19 0 -33 13.5z" />
    <glyph glyph-name="Amacron" unicode="&#x100;" horiz-adv-x="674" 
d="M574 0l-68 181h-337l-68 -181h-78l270 700h89l269 -700h-77zM191 238h293l-144 382h-5zM192 892h291v-46h-291v46z" />
    <glyph glyph-name="amacron" unicode="&#x101;" horiz-adv-x="530" 
d="M422 488q50 -42 50 -135v-353h-67v90h-3q-9 -18 -32.5 -41t-66 -41t-100.5 -18q-78 0 -124 35.5t-46 104.5q0 64 43.5 99t131.5 47l114 15q79 11 79 34v28q0 66 -33.5 94t-101.5 28q-67 0 -100 -25t-33 -76v-11h-68v16q0 76 53 113.5t151 37.5q103 0 153 -42zM401 268
q-3 -19 -73 -28l-105 -15q-66 -9 -92.5 -31.5t-26.5 -59.5q0 -45 30.5 -66t81.5 -21q59 0 101 24t63 56t21 55v86zM120 712h291v-46h-291v46z" />
    <glyph glyph-name="Abreve" unicode="&#x102;" horiz-adv-x="674" 
d="M574 0l-68 181h-337l-68 -181h-78l270 700h89l269 -700h-77zM191 238h293l-144 382h-5zM233 802.5q-34 35.5 -34 89.5h52q3 -76 87 -76q82 0 87 76h52q0 -54 -34 -89.5t-105 -35.5t-105 35.5z" />
    <glyph glyph-name="abreve" unicode="&#x103;" horiz-adv-x="530" 
d="M422 488q50 -42 50 -135v-353h-67v90h-3q-9 -18 -32.5 -41t-66 -41t-100.5 -18q-78 0 -124 35.5t-46 104.5q0 64 43.5 99t131.5 47l114 15q79 11 79 34v28q0 66 -33.5 94t-101.5 28q-67 0 -100 -25t-33 -76v-11h-68v16q0 76 53 113.5t151 37.5q103 0 153 -42zM401 268
q-3 -19 -73 -28l-105 -15q-66 -9 -92.5 -31.5t-26.5 -59.5q0 -45 30.5 -66t81.5 -21q59 0 101 24t63 56t21 55v86zM160 622.5q-34 35.5 -34 89.5h52q3 -76 87 -76q82 0 87 76h52q0 -54 -34 -89.5t-105 -35.5t-105 35.5z" />
    <glyph glyph-name="Aogonek" unicode="&#x104;" horiz-adv-x="674" 
d="M554 -126.5q19 -16.5 50 -16.5q6 0 20 2v-43q-20 -4 -32 -4q-46 0 -79.5 26t-33.5 73q0 41 25 69.5t63 38.5l-61 162h-337l-68 -181h-78l270 700h89l269 -699l1 -1q-58 0 -87.5 -23t-29.5 -59q0 -28 19 -44.5zM191 238h293l-144 382h-5z" />
    <glyph glyph-name="aogonek" unicode="&#x105;" horiz-adv-x="530" 
d="M384.5 -23q-29.5 -23 -29.5 -59q0 -28 19 -44.5t50 -16.5q6 0 20 2v-43q-20 -4 -32 -4q-46 0 -79.5 26t-33.5 73q0 45 31 75.5t75 36.5v67h-3q-9 -18 -32.5 -41t-66 -41t-100.5 -18q-78 0 -124 35.5t-46 104.5q0 64 43.5 99t131.5 47l114 15q79 11 79 34v28
q0 66 -33.5 94t-101.5 28q-67 0 -100 -25t-33 -76v-11h-68v16q0 76 53 113.5t151 37.5q103 0 153 -42t50 -135v-353q-58 0 -87.5 -23zM401 268q-3 -19 -73 -28l-105 -15q-66 -9 -92.5 -31.5t-26.5 -59.5q0 -45 30.5 -66t81.5 -21q59 0 101 24t63 56t21 55v86z" />
    <glyph glyph-name="Cacute" unicode="&#x106;" horiz-adv-x="658" 
d="M193.5 31q-70.5 41 -110.5 122t-40 197t40 196.5t110.5 121.5t163.5 41q109 0 181 -53.5t90 -154.5h-72q-19 69 -70.5 106.5t-128.5 37.5q-110 0 -174.5 -76.5t-64.5 -218.5t64.5 -219t174.5 -77q76 0 128 37.5t71 107.5h72q-18 -102 -90 -155.5t-181 -53.5
q-93 0 -163.5 41zM403 892h69l-98 -130h-68z" />
    <glyph glyph-name="cacute" unicode="&#x107;" horiz-adv-x="532" 
d="M157 20q-57 30 -90.5 90.5t-33.5 148.5q0 89 33.5 150t90.5 91t126 30q81 0 143.5 -43t75.5 -141h-64q-11 64 -54.5 94t-101.5 30q-80 0 -130 -54.5t-50 -156.5q0 -100 50 -154.5t130 -54.5q58 0 101.5 30.5t54.5 95.5h64q-12 -99 -74.5 -142.5t-144.5 -43.5
q-69 0 -126 30zM324 712h69l-98 -130h-68z" />
    <glyph glyph-name="Cdotaccent" unicode="&#x10a;" horiz-adv-x="658" 
d="M193.5 31q-70.5 41 -110.5 122t-40 197t40 196.5t110.5 121.5t163.5 41q109 0 181 -53.5t90 -154.5h-72q-19 69 -70.5 106.5t-128.5 37.5q-110 0 -174.5 -76.5t-64.5 -218.5t64.5 -219t174.5 -77q76 0 128 37.5t71 107.5h72q-18 -102 -90 -155.5t-181 -53.5
q-93 0 -163.5 41zM325 822.5q-14 13.5 -14 32.5t14 32.5t32 13.5q19 0 33 -13.5t14 -32.5t-14 -32.5t-33 -13.5q-18 0 -32 13.5z" />
    <glyph glyph-name="cdotaccent" unicode="&#x10b;" horiz-adv-x="532" 
d="M157 20q-57 30 -90.5 90.5t-33.5 148.5q0 89 33.5 150t90.5 91t126 30q81 0 143.5 -43t75.5 -141h-64q-11 64 -54.5 94t-101.5 30q-80 0 -130 -54.5t-50 -156.5q0 -100 50 -154.5t130 -54.5q58 0 101.5 30.5t54.5 95.5h64q-12 -99 -74.5 -142.5t-144.5 -43.5
q-69 0 -126 30zM246 642.5q-14 13.5 -14 32.5t14 32.5t32 13.5q19 0 33 -13.5t14 -32.5t-14 -32.5t-33 -13.5q-18 0 -32 13.5z" />
    <glyph glyph-name="Ccaron" unicode="&#x10c;" horiz-adv-x="658" 
d="M193.5 31q-70.5 41 -110.5 122t-40 197t40 196.5t110.5 121.5t163.5 41q109 0 181 -53.5t90 -154.5h-72q-19 69 -70.5 106.5t-128.5 37.5q-110 0 -174.5 -76.5t-64.5 -218.5t64.5 -219t174.5 -77q76 0 128 37.5t71 107.5h72q-18 -102 -90 -155.5t-181 -53.5
q-93 0 -163.5 41zM202 892h72l78 -104l79 104h72l-98 -128h-105z" />
    <glyph glyph-name="ccaron" unicode="&#x10d;" horiz-adv-x="532" 
d="M157 20q-57 30 -90.5 90.5t-33.5 148.5q0 89 33.5 150t90.5 91t126 30q81 0 143.5 -43t75.5 -141h-64q-11 64 -54.5 94t-101.5 30q-80 0 -130 -54.5t-50 -156.5q0 -100 50 -154.5t130 -54.5q58 0 101.5 30.5t54.5 95.5h64q-12 -99 -74.5 -142.5t-144.5 -43.5
q-69 0 -126 30zM123 712h72l78 -104l79 104h72l-98 -128h-105z" />
    <glyph glyph-name="Dcaron" unicode="&#x10e;" horiz-adv-x="654" 
d="M280 700q164 0 247.5 -90.5t83.5 -259.5t-83.5 -259.5t-247.5 -90.5h-222v700h222zM472 135.5q64 70.5 64 214.5q0 145 -63.5 215t-199.5 70h-141v-570h141q135 0 199 70.5zM175 892h72l78 -104l79 104h72l-98 -128h-105z" />
    <glyph glyph-name="dcaron" unicode="&#x10f;" horiz-adv-x="690" 
d="M527 700v-700h-71v88q-28 -47 -78 -72.5t-110 -25.5q-63 0 -116.5 29.5t-86 90.5t-32.5 150t32.5 150t86 90.5t116.5 29.5q60 0 110 -25.5t78 -72.5v268h71zM368.5 73.5q41.5 23.5 66.5 71t25 115.5t-25 115.5t-66.5 71t-88.5 23.5q-48 0 -88.5 -23.5t-65.5 -71
t-25 -115.5t25 -115.5t65.5 -71t88.5 -23.5q47 0 88.5 23.5zM646 700h69l-98 -130h-68z" />
    <glyph glyph-name="Dcroat" unicode="&#x110;" horiz-adv-x="675" 
d="M548.5 609.5q83.5 -90.5 83.5 -259.5t-83.5 -259.5t-247.5 -90.5h-221v320h-60v56h60v324h221q164 0 247.5 -90.5zM494 135.5q64 70.5 64 214.5q0 145 -63.5 215t-199.5 70h-142v-259h138v-56h-138v-255h142q135 0 199 70.5z" />
    <glyph glyph-name="dcroat" unicode="&#x111;" horiz-adv-x="622" 
d="M590 609h-63v-609h-71v88q-28 -47 -78 -72.5t-110 -25.5q-63 0 -116.5 29.5t-86 90.5t-32.5 150t32.5 150t86 90.5t116.5 29.5q60 0 110 -25.5t78 -72.5v177h-152v38h152v53h71v-53h63v-38zM368.5 73.5q41.5 23.5 66.5 71t25 115.5t-25 115.5t-66.5 71t-88.5 23.5
q-48 0 -88.5 -23.5t-65.5 -71t-25 -115.5t25 -115.5t65.5 -71t88.5 -23.5q47 0 88.5 23.5z" />
    <glyph glyph-name="Emacron" unicode="&#x112;" horiz-adv-x="542" 
d="M58 700h441v-65h-367v-245h337v-60h-337v-265h377v-65h-451v700zM133 892h291v-46h-291v46z" />
    <glyph glyph-name="emacron" unicode="&#x113;" horiz-adv-x="537" 
d="M501 239h-399q4 -96 50 -144.5t130 -48.5q115 0 150 96h65q-25 -81 -82.5 -117t-135.5 -36q-112 0 -179 68.5t-67 200.5q0 91 32 152t86.5 90.5t122.5 29.5q104 0 167 -65.5t63 -189.5q0 -22 -3 -36zM436 291q-1 88 -44.5 135t-118.5 47q-73 0 -119.5 -46.5t-50.5 -135.5
h333zM126 712h291v-46h-291v46z" />
    <glyph glyph-name="Edotaccent" unicode="&#x116;" horiz-adv-x="542" 
d="M58 700h441v-65h-367v-245h337v-60h-337v-265h377v-65h-451v700zM246 822.5q-14 13.5 -14 32.5t14 32.5t32 13.5q19 0 33 -13.5t14 -32.5t-14 -32.5t-33 -13.5q-18 0 -32 13.5z" />
    <glyph glyph-name="edotaccent" unicode="&#x117;" horiz-adv-x="537" 
d="M501 239h-399q4 -96 50 -144.5t130 -48.5q115 0 150 96h65q-25 -81 -82.5 -117t-135.5 -36q-112 0 -179 68.5t-67 200.5q0 91 32 152t86.5 90.5t122.5 29.5q104 0 167 -65.5t63 -189.5q0 -22 -3 -36zM436 291q-1 88 -44.5 135t-118.5 47q-73 0 -119.5 -46.5t-50.5 -135.5
h333zM239 642.5q-14 13.5 -14 32.5t14 32.5t32 13.5q19 0 33 -13.5t14 -32.5t-14 -32.5t-33 -13.5q-18 0 -32 13.5z" />
    <glyph glyph-name="Eogonek" unicode="&#x118;" horiz-adv-x="542" 
d="M421.5 -23q-29.5 -23 -29.5 -59q0 -28 19 -44.5t50 -16.5q6 0 20 2v-43q-20 -4 -32 -4q-46 0 -79.5 26t-33.5 73q0 29 13 51.5t35 37.5h-326v700h441v-65h-367v-245h337v-60h-337v-265h377v-65q-58 0 -87.5 -23z" />
    <glyph glyph-name="eogonek" unicode="&#x119;" horiz-adv-x="537" 
d="M501 239h-399q4 -96 50 -144.5t130 -48.5q115 0 150 96h65q-38 -124 -162 -148q-32 -10 -48.5 -30t-16.5 -46q0 -28 19 -44.5t50 -16.5q6 0 20 2v-43q-20 -4 -32 -4q-46 0 -79.5 26t-33.5 73t35 79q-100 9 -158 77t-58 191q0 91 32 152t86.5 90.5t122.5 29.5
q104 0 167 -65.5t63 -189.5q0 -22 -3 -36zM436 291q-1 88 -44.5 135t-118.5 47q-73 0 -119.5 -46.5t-50.5 -135.5h333z" />
    <glyph glyph-name="Ecaron" unicode="&#x11a;" horiz-adv-x="542" 
d="M58 700h441v-65h-367v-245h337v-60h-337v-265h377v-65h-451v700zM123 892h72l78 -104l79 104h72l-98 -128h-105z" />
    <glyph glyph-name="ecaron" unicode="&#x11b;" horiz-adv-x="537" 
d="M501 239h-399q4 -96 50 -144.5t130 -48.5q115 0 150 96h65q-25 -81 -82.5 -117t-135.5 -36q-112 0 -179 68.5t-67 200.5q0 91 32 152t86.5 90.5t122.5 29.5q104 0 167 -65.5t63 -189.5q0 -22 -3 -36zM436 291q-1 88 -44.5 135t-118.5 47q-73 0 -119.5 -46.5t-50.5 -135.5
h333zM116 712h72l78 -104l79 104h72l-98 -128h-105z" />
    <glyph glyph-name="Gbreve" unicode="&#x11e;" horiz-adv-x="695" 
d="M196.5 31q-72.5 41 -113 122t-40.5 197q0 115 40.5 196t112 122t165.5 41q102 0 170.5 -47t89.5 -136h-72q-21 58 -68.5 88.5t-119.5 30.5q-112 0 -177.5 -76.5t-65.5 -218.5q0 -143 66 -219.5t179 -76.5q101 0 157 61t55 180h-181v60h253v-41q0 -160 -72.5 -242
t-209.5 -82q-96 0 -168.5 41zM253 802.5q-34 35.5 -34 89.5h52q3 -76 87 -76q82 0 87 76h52q0 -54 -34 -89.5t-105 -35.5t-105 35.5z" />
    <glyph glyph-name="gbreve" unicode="&#x11f;" horiz-adv-x="581" 
d="M523 520v-513q0 -117 -73 -166.5t-175 -49.5q-93 0 -158 39.5t-66 120.5h62q2 -48 47 -75.5t115 -27.5q79 0 128 39t49 120v101q-28 -47 -79 -72t-110 -25q-62 0 -114.5 28t-84 86.5t-31.5 144.5t32 145t84 87t114 28q59 0 110 -25t79 -72v87h71zM364.5 93
q40.5 22 65.5 67t25 110t-25 110t-65.5 67.5t-87.5 22.5q-48 0 -88 -22.5t-64 -67.5t-24 -110t24 -110t64 -67t88 -22q47 0 87.5 22zM181 622.5q-34 35.5 -34 89.5h52q3 -76 87 -76q82 0 87 76h52q0 -54 -34 -89.5t-105 -35.5t-105 35.5z" />
    <glyph glyph-name="Gdotaccent" unicode="&#x120;" horiz-adv-x="695" 
d="M196.5 31q-72.5 41 -113 122t-40.5 197q0 115 40.5 196t112 122t165.5 41q102 0 170.5 -47t89.5 -136h-72q-21 58 -68.5 88.5t-119.5 30.5q-112 0 -177.5 -76.5t-65.5 -218.5q0 -143 66 -219.5t179 -76.5q101 0 157 61t55 180h-181v60h253v-41q0 -160 -72.5 -242
t-209.5 -82q-96 0 -168.5 41zM326 822.5q-14 13.5 -14 32.5t14 32.5t32 13.5q19 0 33 -13.5t14 -32.5t-14 -32.5t-33 -13.5q-18 0 -32 13.5z" />
    <glyph glyph-name="gdotaccent" unicode="&#x121;" horiz-adv-x="581" 
d="M523 520v-513q0 -117 -73 -166.5t-175 -49.5q-93 0 -158 39.5t-66 120.5h62q2 -48 47 -75.5t115 -27.5q79 0 128 39t49 120v101q-28 -47 -79 -72t-110 -25q-62 0 -114.5 28t-84 86.5t-31.5 144.5t32 145t84 87t114 28q59 0 110 -25t79 -72v87h71zM364.5 93
q40.5 22 65.5 67t25 110t-25 110t-65.5 67.5t-87.5 22.5q-48 0 -88 -22.5t-64 -67.5t-24 -110t24 -110t64 -67t88 -22q47 0 87.5 22zM254 642.5q-14 13.5 -14 32.5t14 32.5t32 13.5q19 0 33 -13.5t14 -32.5t-14 -32.5t-33 -13.5q-18 0 -32 13.5z" />
    <glyph glyph-name="uni0122" unicode="&#x122;" horiz-adv-x="695" 
d="M196.5 31q-72.5 41 -113 122t-40.5 197q0 115 40.5 196t112 122t165.5 41q102 0 170.5 -47t89.5 -136h-72q-21 58 -68.5 88.5t-119.5 30.5q-112 0 -177.5 -76.5t-65.5 -218.5q0 -143 66 -219.5t179 -76.5q101 0 157 61t55 180h-181v60h253v-41q0 -160 -72.5 -242
t-209.5 -82q-96 0 -168.5 41zM316 -181q33 0 44.5 13t10.5 44q-28 -1 -45 14t-17 38q0 21 14.5 36t37.5 15q26 0 42.5 -20.5t16.5 -64.5q0 -56 -26 -85.5t-68 -29.5h-17v40h7z" />
    <glyph glyph-name="uni0123" unicode="&#x123;" horiz-adv-x="581" 
d="M233.5 588q-16.5 20 -16.5 64q0 57 26 86.5t68 29.5h17v-40h-7q-32 0 -44 -13.5t-11 -43.5q28 1 45 -14t17 -38q0 -21 -14.5 -36t-37.5 -15q-26 0 -42.5 20zM523 520v-513q0 -117 -73 -166.5t-175 -49.5q-93 0 -158 39.5t-66 120.5h62q2 -48 47 -75.5t115 -27.5
q79 0 128 39t49 120v101q-28 -47 -79 -72t-110 -25q-62 0 -114.5 28t-84 86.5t-31.5 144.5t32 145t84 87t114 28q59 0 110 -25t79 -72v87h71zM364.5 93q40.5 22 65.5 67t25 110t-25 110t-65.5 67.5t-87.5 22.5q-48 0 -88 -22.5t-64 -67.5t-24 -110t24 -110t64 -67t88 -22
q47 0 87.5 22z" />
    <glyph glyph-name="Hbar" unicode="&#x126;" horiz-adv-x="645" 
d="M514 700h73v-700h-73v311h-382v-311h-74v700h74v-164h382v164zM132 373h382v101h-382v-101z" />
    <glyph glyph-name="hbar" unicode="&#x127;" horiz-adv-x="557" 
d="M447.5 479.5q51.5 -50.5 51.5 -159.5v-320h-71v306q0 163 -140 163q-73 0 -116 -43.5t-43 -119.5v-306h-71v609h-65v38h65v53h71v-53h151v-38h-151v-186q7 21 28.5 45.5t60.5 43t94 18.5q84 0 135.5 -50.5z" />
    <glyph glyph-name="Imacron" unicode="&#x12a;" horiz-adv-x="190" 
d="M58 700h74v-700h-74v700zM-51 892h291v-46h-291v46z" />
    <glyph glyph-name="imacron" unicode="&#x12b;" horiz-adv-x="166" 
d="M47 520h71v-520h-71v520zM-62 712h291v-46h-291v46z" />
    <glyph glyph-name="Iogonek" unicode="&#x12e;" horiz-adv-x="190" 
d="M44.5 -23q-29.5 -23 -29.5 -59q0 -28 19 -44.5t50 -16.5q6 0 20 2v-43q-20 -4 -32 -4q-46 0 -79.5 26t-33.5 73q0 44 28.5 73t70.5 37v679h74v-700q-58 0 -87.5 -23z" />
    <glyph glyph-name="iogonek" unicode="&#x12f;" horiz-adv-x="166" 
d="M51 642.5q-14 13.5 -14 32.5t14 32.5t32 13.5q19 0 33 -13.5t14 -32.5t-14 -32.5t-33 -13.5q-18 0 -32 13.5zM31.5 -23q-29.5 -23 -29.5 -59q0 -28 19 -44.5t50 -16.5q6 0 20 2v-43q-20 -4 -32 -4q-46 0 -79.5 26t-33.5 73q0 44 29 73.5t72 37.5v498h71v-519l1 -1
q-58 0 -87.5 -23z" />
    <glyph glyph-name="Idotaccent" unicode="&#x130;" horiz-adv-x="190" 
d="M58 700h74v-700h-74v700zM63 822.5q-14 13.5 -14 32.5t14 32.5t32 13.5q19 0 33 -13.5t14 -32.5t-14 -32.5t-33 -13.5q-18 0 -32 13.5z" />
    <glyph glyph-name="dotlessi" unicode="&#x131;" horiz-adv-x="166" 
d="M47 520h71v-520h-71v520z" />
    <glyph glyph-name="IJ" unicode="&#x132;" horiz-adv-x="840" 
d="M58 700h74v-700h-74v700zM319.5 62q-71.5 72 -71.5 202h74q0 -99 51 -154t142 -55t142 55.5t51 157.5v432h74v-436q0 -130 -71.5 -202t-195.5 -72t-195.5 72z" />
    <glyph glyph-name="ij" unicode="&#x133;" horiz-adv-x="383" 
d="M61 642.5q-14 13.5 -14 32.5t14 32.5t33 13.5t32.5 -13.5t13.5 -32.5t-13.5 -32.5t-32.5 -13.5t-33 13.5zM58 520h71v-520h-71v520zM257.5 642.5q-13.5 13.5 -13.5 32.5t13.5 32.5t32.5 13.5t32.5 -13.5t13.5 -32.5t-13.5 -32.5t-32.5 -13.5t-32.5 13.5zM144 -184v56h31
q44 0 62 18t18 61v569h71v-583q0 -124 -130 -124q-23 0 -52 3z" />
    <glyph glyph-name="uni0136" unicode="&#x136;" horiz-adv-x="626" 
d="M516 0l-276 325l-108 -119v-206h-74v700h74v-397l358 397h88l-292 -324l317 -376h-87zM275 -181q33 0 44.5 13t10.5 44q-28 -1 -45 14t-17 38q0 21 14.5 36t37.5 15q26 0 42.5 -20.5t16.5 -64.5q0 -56 -26 -85.5t-68 -29.5h-17v40h7z" />
    <glyph glyph-name="uni0137" unicode="&#x137;" horiz-adv-x="534" 
d="M439 0l-215 248l-95 -97v-151h-71v700h71v-471l280 291h82l-222 -227l252 -293h-82zM229 -181q33 0 44.5 13t10.5 44q-28 -1 -45 14t-17 38q0 21 14.5 36t37.5 15q26 0 42.5 -20.5t16.5 -64.5q0 -56 -26 -85.5t-68 -29.5h-17v40h7z" />
    <glyph glyph-name="Lacute" unicode="&#x139;" horiz-adv-x="528" 
d="M58 700h74v-635h363v-65h-437v700zM162 890h69l-98 -130h-68z" />
    <glyph glyph-name="lacute" unicode="&#x13a;" horiz-adv-x="188" 
d="M58 700h71v-700h-71v700zM140 892h69l-98 -130h-68z" />
    <glyph glyph-name="uni013B" unicode="&#x13b;" horiz-adv-x="528" 
d="M58 700h74v-635h363v-65h-437v700zM220 -186q33 0 44.5 13t10.5 44q-28 -1 -45 14t-17 38q0 21 14.5 36t37.5 15q26 0 42.5 -20.5t16.5 -64.5q0 -56 -26 -85.5t-68 -29.5h-17v40h7z" />
    <glyph glyph-name="uni013C" unicode="&#x13c;" horiz-adv-x="188" 
d="M58 700h71v-700h-71v700zM49 -181q33 0 44.5 13t10.5 44q-28 -1 -45 14t-17 38q0 21 14.5 36t37.5 15q26 0 42.5 -20.5t16.5 -64.5q0 -56 -26 -85.5t-68 -29.5h-17v40h7z" />
    <glyph glyph-name="Lcaron" unicode="&#x13d;" horiz-adv-x="528" 
d="M58 700h74v-635h363v-65h-437v700zM251 551q33 0 44.5 13t10.5 44q-28 -1 -45 14t-17 38q0 21 14.5 36t37.5 15q26 0 42.5 -20.5t16.5 -64.5q0 -56 -26 -85.5t-68 -29.5h-17v40h7z" />
    <glyph glyph-name="lcaron" unicode="&#x13e;" horiz-adv-x="343" 
d="M58 700h71v-700h-71v700zM227 549q33 0 44.5 13t10.5 44q-28 -1 -45 14t-17 38q0 21 14.5 36t37.5 15q26 0 42.5 -20.5t16.5 -64.5q0 -56 -26 -85.5t-68 -29.5h-17v40h7z" />
    <glyph glyph-name="Lslash" unicode="&#x141;" horiz-adv-x="561" 
d="M164 65h364v-65h-437v247l-73 -76v78l73 76v375h73v-299l121 126v-77l-121 -126v-259z" />
    <glyph glyph-name="lslash" unicode="&#x142;" horiz-adv-x="215" 
d="M210 531v-77l-66 -90v-364h-71v266l-68 -93v77l68 94v356h71v-259l65 90h1z" />
    <glyph glyph-name="Nacute" unicode="&#x143;" horiz-adv-x="658" 
d="M58 700h84l382 -589h2v589h73v-700h-85l-380 587h-2v-587h-74v700zM375 892h69l-98 -130h-68z" />
    <glyph glyph-name="nacute" unicode="&#x144;" horiz-adv-x="557" 
d="M447.5 479.5q51.5 -50.5 51.5 -159.5v-320h-71v306q0 163 -140 163q-73 0 -116 -43.5t-43 -119.5v-306h-71v520h71v-97q7 21 28.5 45.5t60.5 43t94 18.5q84 0 135.5 -50.5zM326 712h69l-98 -130h-68z" />
    <glyph glyph-name="uni0145" unicode="&#x145;" horiz-adv-x="658" 
d="M58 700h84l382 -589h2v589h73v-700h-85l-380 587h-2v-587h-74v700zM285 -181q33 0 44.5 13t10.5 44q-28 -1 -45 14t-17 38q0 21 14.5 36t37.5 15q26 0 42.5 -20.5t16.5 -64.5q0 -56 -26 -85.5t-68 -29.5h-17v40h7z" />
    <glyph glyph-name="uni0146" unicode="&#x146;" horiz-adv-x="557" 
d="M447.5 479.5q51.5 -50.5 51.5 -159.5v-320h-71v306q0 163 -140 163q-73 0 -116 -43.5t-43 -119.5v-306h-71v520h71v-97q7 21 28.5 45.5t60.5 43t94 18.5q84 0 135.5 -50.5zM236 -181q33 0 44.5 13t10.5 44q-28 -1 -45 14t-17 38q0 21 14.5 36t37.5 15q26 0 42.5 -20.5
t16.5 -64.5q0 -56 -26 -85.5t-68 -29.5h-17v40h7z" />
    <glyph glyph-name="Ncaron" unicode="&#x147;" horiz-adv-x="658" 
d="M58 700h84l382 -589h2v589h73v-700h-85l-380 587h-2v-587h-74v700zM174 892h72l78 -104l79 104h72l-98 -128h-105z" />
    <glyph glyph-name="ncaron" unicode="&#x148;" horiz-adv-x="557" 
d="M447.5 479.5q51.5 -50.5 51.5 -159.5v-320h-71v306q0 163 -140 163q-73 0 -116 -43.5t-43 -119.5v-306h-71v520h71v-97q7 21 28.5 45.5t60.5 43t94 18.5q84 0 135.5 -50.5zM125 712h72l78 -104l79 104h72l-98 -128h-105z" />
    <glyph glyph-name="Eng" unicode="&#x14a;" horiz-adv-x="658" 
d="M599 700v-646q0 -130 -71 -202t-194 -72q-71 0 -122 25v70q52 -30 120 -30q76 0 124.5 38t63.5 110l-386 593h-2v-586h-74v700h82l384 -589h2v589h73z" />
    <glyph glyph-name="eng" unicode="&#x14b;" horiz-adv-x="560" 
d="M502 0v-84q0 -136 -123 -136q-55 0 -92 22v60q43 -19 79 -19q33 0 49 21t16 57v79h-3v306q0 163 -140 163q-73 0 -116 -43.5t-43 -119.5v-306h-71v520h71v-97q7 21 28.5 45.5t60.5 43t94 18.5q84 0 135.5 -50.5t51.5 -159.5v-320h3z" />
    <glyph glyph-name="Omacron" unicode="&#x14c;" horiz-adv-x="717" 
d="M196.5 32q-71.5 42 -112.5 123t-41 195t41 195t112.5 122.5t162.5 41.5t162 -41.5t112 -122.5t41 -195t-41 -195t-112 -123t-162 -42t-162.5 42zM483.5 87.5q54.5 33.5 85 100t30.5 162.5q0 95 -30.5 161.5t-85 100t-124.5 33.5q-71 0 -125 -33.5t-85 -100t-31 -161.5
q0 -96 31 -162.5t85 -100t125 -33.5q70 0 124.5 33.5zM213 892h291v-46h-291v46z" />
    <glyph glyph-name="omacron" unicode="&#x14d;" horiz-adv-x="564" 
d="M158.5 20q-56.5 30 -91 91t-34.5 149t34.5 149t91 91t123.5 30q66 0 122.5 -30t91 -91t34.5 -149t-34.5 -149t-91 -91t-122.5 -30q-67 0 -123.5 30zM371 73q41 23 66 70.5t25 116.5t-25 116.5t-66 70.5t-89 23q-49 0 -90 -23t-65.5 -70.5t-24.5 -116.5t24.5 -116.5
t65.5 -70.5t90 -23q48 0 89 23zM137 712h291v-46h-291v46z" />
    <glyph glyph-name="Ohungarumlaut" unicode="&#x150;" horiz-adv-x="717" 
d="M196.5 32q-71.5 42 -112.5 123t-41 195t41 195t112.5 122.5t162.5 41.5t162 -41.5t112 -122.5t41 -195t-41 -195t-112 -123t-162 -42t-162.5 42zM483.5 87.5q54.5 33.5 85 100t30.5 162.5q0 95 -30.5 161.5t-85 100t-124.5 33.5q-71 0 -125 -33.5t-85 -100t-31 -161.5
q0 -96 31 -162.5t85 -100t125 -33.5q70 0 124.5 33.5zM472 892h69l-98 -130h-68zM336 892h69l-98 -130h-68z" />
    <glyph glyph-name="ohungarumlaut" unicode="&#x151;" horiz-adv-x="564" 
d="M158.5 20q-56.5 30 -91 91t-34.5 149t34.5 149t91 91t123.5 30q66 0 122.5 -30t91 -91t34.5 -149t-34.5 -149t-91 -91t-122.5 -30q-67 0 -123.5 30zM371 73q41 23 66 70.5t25 116.5t-25 116.5t-66 70.5t-89 23q-49 0 -90 -23t-65.5 -70.5t-24.5 -116.5t24.5 -116.5
t65.5 -70.5t90 -23q48 0 89 23zM395 712h69l-98 -130h-68zM259 712h69l-98 -130h-68z" />
    <glyph glyph-name="OE" unicode="&#x152;" horiz-adv-x="1084" 
d="M1051 65v-65h-451v102q-42 -55 -104 -83.5t-137 -28.5q-91 0 -162.5 42t-112.5 123t-41 195t41 195t112.5 122.5t162.5 41.5q75 0 137 -28.5t104 -82.5v102h441v-65h-367v-245h337v-60h-337v-265h377zM483.5 87.5q54.5 33.5 85 100t30.5 162.5q0 95 -30.5 161.5t-85 100
t-124.5 33.5q-71 0 -125 -33.5t-85 -100t-31 -161.5q0 -96 31 -162.5t85 -100t125 -33.5q70 0 124.5 33.5z" />
    <glyph glyph-name="oe" unicode="&#x153;" horiz-adv-x="968" 
d="M932 239h-400q4 -96 50.5 -144.5t130.5 -48.5q115 0 150 96h65q-25 -80 -82.5 -116.5t-135.5 -36.5q-74 0 -130 30t-85 90q-33 -58 -89.5 -88.5t-123.5 -30.5t-123.5 30t-91 91t-34.5 149t34.5 149t91 91t123.5 30t124 -31t90 -90q30 60 85 90.5t124 30.5
q104 0 167 -65.5t63 -189.5q0 -22 -3 -36zM867 291q-1 88 -44.5 135t-118.5 47q-73 0 -119.5 -46.5t-51.5 -135.5h334zM371 73q41 23 66 70.5t25 116.5t-25 116.5t-66 70.5t-89 23q-49 0 -90 -23t-65.5 -70.5t-24.5 -116.5t24.5 -116.5t65.5 -70.5t90 -23q48 0 89 23z" />
    <glyph glyph-name="Racute" unicode="&#x154;" horiz-adv-x="617" 
d="M556.5 25.5q2.5 -14.5 7.5 -25.5h-72q-6 11 -8 25t-2 49v101q0 116 -141 116h-209v-291h-74v700h270q115 0 173.5 -52t58.5 -144q0 -66 -30.5 -112t-88.5 -65q55 -15 84 -51t29 -101v-101q0 -34 2.5 -48.5zM445 388.5q41 37.5 41 107.5q0 139 -162 139h-192v-284h192
q80 0 121 37.5zM350 892h69l-98 -130h-68z" />
    <glyph glyph-name="racute" unicode="&#x155;" horiz-adv-x="359" 
d="M336 519v-60q-18 3 -37 3q-80 0 -125 -49.5t-45 -132.5v-280h-71v520h71v-115h2q13 47 54.5 83t111.5 36q25 0 39 -5zM236 712h69l-98 -130h-68z" />
    <glyph glyph-name="uni0156" unicode="&#x156;" horiz-adv-x="617" 
d="M556.5 25.5q2.5 -14.5 7.5 -25.5h-72q-6 11 -8 25t-2 49v101q0 116 -141 116h-209v-291h-74v700h270q115 0 173.5 -52t58.5 -144q0 -66 -30.5 -112t-88.5 -65q55 -15 84 -51t29 -101v-101q0 -34 2.5 -48.5zM445 388.5q41 37.5 41 107.5q0 139 -162 139h-192v-284h192
q80 0 121 37.5zM259 -181q33 0 44.5 13t10.5 44q-28 -1 -45 14t-17 38q0 21 14.5 36t37.5 15q26 0 42.5 -20.5t16.5 -64.5q0 -56 -26 -85.5t-68 -29.5h-17v40h7z" />
    <glyph glyph-name="uni0157" unicode="&#x157;" horiz-adv-x="359" 
d="M336 519v-60q-18 3 -37 3q-80 0 -125 -49.5t-45 -132.5v-280h-71v520h71v-115h2q13 47 54.5 83t111.5 36q25 0 39 -5zM50 -181q33 0 44.5 13t10.5 44q-28 -1 -45 14t-17 38q0 21 14.5 36t37.5 15q26 0 42.5 -20.5t16.5 -64.5q0 -56 -26 -85.5t-68 -29.5h-17v40h7z" />
    <glyph glyph-name="Rcaron" unicode="&#x158;" horiz-adv-x="617" 
d="M556.5 25.5q2.5 -14.5 7.5 -25.5h-72q-6 11 -8 25t-2 49v101q0 116 -141 116h-209v-291h-74v700h270q115 0 173.5 -52t58.5 -144q0 -66 -30.5 -112t-88.5 -65q55 -15 84 -51t29 -101v-101q0 -34 2.5 -48.5zM445 388.5q41 37.5 41 107.5q0 139 -162 139h-192v-284h192
q80 0 121 37.5zM149 892h72l78 -104l79 104h72l-98 -128h-105z" />
    <glyph glyph-name="rcaron" unicode="&#x159;" horiz-adv-x="359" 
d="M336 519v-60q-18 3 -37 3q-80 0 -125 -49.5t-45 -132.5v-280h-71v520h71v-115h2q13 47 54.5 83t111.5 36q25 0 39 -5zM34 712h72l78 -104l79 104h72l-98 -128h-105z" />
    <glyph glyph-name="Sacute" unicode="&#x15a;" horiz-adv-x="607" 
d="M164 17q-60 27 -90.5 74.5t-30.5 108.5h74q4 -66 52 -106.5t141 -40.5q87 0 132.5 37t45.5 100q0 58 -37.5 88.5t-106.5 44.5l-91 18q-189 38 -189 183q0 84 61.5 134.5t174.5 50.5q74 0 129 -23t84.5 -64t29.5 -95h-73q-3 52 -46.5 85.5t-123.5 33.5q-81 0 -120.5 -34.5
t-39.5 -87.5q0 -98 133 -125l89 -18q99 -20 150.5 -63.5t51.5 -125.5q0 -95 -67.5 -148.5t-187.5 -53.5q-85 0 -145 27zM345 892h69l-98 -130h-68z" />
    <glyph glyph-name="sacute" unicode="&#x15b;" horiz-adv-x="477" 
d="M91 29q-59 39 -63 115h65q7 -51 49 -74.5t100 -23.5q59 0 97 24t38 73q0 38 -23.5 55.5t-73.5 30.5l-98 23q-68 17 -102 50.5t-34 85.5q0 67 52 104.5t139 37.5q86 0 138.5 -38t57.5 -113h-60q-9 51 -43.5 73t-91.5 22q-58 0 -91 -22t-33 -62q0 -31 22 -51.5t70 -32.5
l97 -22q73 -18 109.5 -48.5t36.5 -91.5q0 -79 -60 -116.5t-148 -37.5q-91 0 -150 39zM285 712h69l-98 -130h-68z" />
    <glyph glyph-name="Scedilla" unicode="&#x15e;" horiz-adv-x="607" 
d="M500 46.5q-64 -53.5 -178 -56.5l-34 -38q4 1 12 1q31 0 54 -21.5t23 -57.5q0 -47 -38 -69.5t-95 -22.5v44q37 0 57.5 12t20.5 35q0 19 -12 30t-32 11q-15 0 -30 -7l-25 29l45 56q-108 10 -166.5 66.5t-58.5 141.5h74q4 -66 52 -106.5t141 -40.5q87 0 132.5 37t45.5 100
q0 58 -37.5 88.5t-106.5 44.5l-91 18q-189 38 -189 183q0 84 61.5 134.5t174.5 50.5q74 0 129 -23t84.5 -64t29.5 -95h-73q-3 52 -46.5 85.5t-123.5 33.5q-81 0 -120.5 -34.5t-39.5 -87.5q0 -98 133 -125l89 -18q99 -20 150.5 -63.5t51.5 -125.5q0 -92 -64 -145.5z" />
    <glyph glyph-name="scedilla" unicode="&#x15f;" horiz-adv-x="477" 
d="M396.5 32.5q-52.5 -37.5 -132.5 -41.5l-35 -39q4 1 12 1q31 0 54 -21.5t23 -57.5q0 -47 -38 -69.5t-95 -22.5v44q37 0 57.5 12t20.5 35q0 19 -12 30t-32 11q-15 0 -30 -7l-25 29l45 55q-79 7 -128 45.5t-53 107.5h65q7 -51 49 -74.5t100 -23.5q59 0 97 24t38 73
q0 38 -23.5 55.5t-73.5 30.5l-98 23q-68 17 -102 50.5t-34 85.5q0 67 52 104.5t139 37.5q86 0 138.5 -38t57.5 -113h-60q-9 51 -43.5 73t-91.5 22q-58 0 -91 -22t-33 -62q0 -31 22 -51.5t70 -32.5l97 -22q73 -18 109.5 -48.5t36.5 -91.5q0 -74 -52.5 -111.5z" />
    <glyph glyph-name="Scaron" unicode="&#x160;" horiz-adv-x="607" 
d="M164 17q-60 27 -90.5 74.5t-30.5 108.5h74q4 -66 52 -106.5t141 -40.5q87 0 132.5 37t45.5 100q0 58 -37.5 88.5t-106.5 44.5l-91 18q-189 38 -189 183q0 84 61.5 134.5t174.5 50.5q74 0 129 -23t84.5 -64t29.5 -95h-73q-3 52 -46.5 85.5t-123.5 33.5q-81 0 -120.5 -34.5
t-39.5 -87.5q0 -98 133 -125l89 -18q99 -20 150.5 -63.5t51.5 -125.5q0 -95 -67.5 -148.5t-187.5 -53.5q-85 0 -145 27zM144 892h72l78 -104l79 104h72l-98 -128h-105z" />
    <glyph glyph-name="scaron" unicode="&#x161;" horiz-adv-x="477" 
d="M91 29q-59 39 -63 115h65q7 -51 49 -74.5t100 -23.5q59 0 97 24t38 73q0 38 -23.5 55.5t-73.5 30.5l-98 23q-68 17 -102 50.5t-34 85.5q0 67 52 104.5t139 37.5q86 0 138.5 -38t57.5 -113h-60q-9 51 -43.5 73t-91.5 22q-58 0 -91 -22t-33 -62q0 -31 22 -51.5t70 -32.5
l97 -22q73 -18 109.5 -48.5t36.5 -91.5q0 -79 -60 -116.5t-148 -37.5q-91 0 -150 39zM84 712h72l78 -104l79 104h72l-98 -128h-105z" />
    <glyph glyph-name="uni0162" unicode="&#x162;" horiz-adv-x="577" 
d="M252 635h-224v65h520v-65h-223v-635h-73v635zM330 -68.5q23 -21.5 23 -57.5q0 -47 -38 -69.5t-95 -22.5v44q37 0 57.5 12t20.5 35q0 19 -12 30t-32 11q-15 0 -30 -7l-25 29l52 64h56l-43 -48q4 1 12 1q31 0 54 -21.5z" />
    <glyph glyph-name="uni0163" unicode="&#x163;" horiz-adv-x="318" 
d="M227 -7l-37 -41q4 1 12 1q31 0 54 -21.5t23 -57.5q0 -47 -38 -69.5t-95 -22.5v44q37 0 57.5 12t20.5 35q0 19 -12 30t-32 11q-15 0 -30 -7l-25 29l52 64h5q-75 23 -75 117v346h-84v57h84v129h71v-129h103v-57h-103v-332q0 -43 17.5 -61t60.5 -18h33v-56q-18 -3 -53 -3h-9
z" />
    <glyph glyph-name="Tcaron" unicode="&#x164;" horiz-adv-x="577" 
d="M252 635h-224v65h520v-65h-223v-635h-73v635zM133 892h72l78 -104l79 104h72l-98 -128h-105z" />
    <glyph glyph-name="tcaron" unicode="&#x165;" horiz-adv-x="309" 
d="M289 52v-56q-18 -3 -53 -3q-129 0 -129 124v346h-84v57h84v129h71v-129h103v-57h-103v-332q0 -43 17.5 -61t60.5 -18h33zM300 709h69l-98 -130h-68z" />
    <glyph glyph-name="Tbar" unicode="&#x166;" horiz-adv-x="577" 
d="M548 635h-223v-119h104v-46h-104v-470h-73v470h-113v46h113v119h-224v65h520v-65z" />
    <glyph glyph-name="tbar" unicode="&#x167;" horiz-adv-x="318" 
d="M289 52v-56q-18 -3 -53 -3q-129 0 -129 124v206h-84v57h84v83h-84v57h84v129h71v-129h103v-57h-103v-83h103v-57h-103v-192q0 -43 17.5 -61t60.5 -18h33z" />
    <glyph glyph-name="Utilde" unicode="&#x168;" horiz-adv-x="650" 
d="M129 62q-71 72 -71 202v436h74v-432q0 -102 50.5 -157.5t142.5 -55.5q91 0 142 55.5t51 157.5v432h74v-436q0 -130 -71.5 -202t-195.5 -72q-125 0 -196 72zM358 796q-19 10 -44 30q-22 17 -36.5 25t-32.5 8q-24 0 -36 -15.5t-11 -33.5h-43q0 45 23.5 68.5t61.5 23.5
q26 0 45.5 -10t43.5 -29q22 -17 36.5 -25t32.5 -8q24 0 36 15t11 34h43q0 -45 -23.5 -69t-61.5 -24q-26 0 -45 10z" />
    <glyph glyph-name="utilde" unicode="&#x169;" horiz-adv-x="558" 
d="M499 520v-520h-71v97q-7 -21 -28.5 -45.5t-60.5 -43t-93 -18.5q-84 0 -136 50.5t-52 159.5v320h71v-306q0 -79 34.5 -121t105.5 -42q73 0 116 43.5t43 119.5v306h71zM310 616q-19 10 -44 30q-22 17 -36.5 25t-32.5 8q-24 0 -36 -15.5t-11 -33.5h-43q0 45 23.5 68.5
t61.5 23.5q26 0 45.5 -10t43.5 -29q22 -17 36.5 -25t32.5 -8q24 0 36 15t11 34h43q0 -45 -23.5 -69t-61.5 -24q-26 0 -45 10z" />
    <glyph glyph-name="Umacron" unicode="&#x16a;" horiz-adv-x="650" 
d="M129 62q-71 72 -71 202v436h74v-432q0 -102 50.5 -157.5t142.5 -55.5q91 0 142 55.5t51 157.5v432h74v-436q0 -130 -71.5 -202t-195.5 -72q-125 0 -196 72zM178 892h291v-46h-291v46z" />
    <glyph glyph-name="umacron" unicode="&#x16b;" horiz-adv-x="558" 
d="M499 520v-520h-71v97q-7 -21 -28.5 -45.5t-60.5 -43t-93 -18.5q-84 0 -136 50.5t-52 159.5v320h71v-306q0 -79 34.5 -121t105.5 -42q73 0 116 43.5t43 119.5v306h71zM129 712h291v-46h-291v46z" />
    <glyph glyph-name="Ubreve" unicode="&#x16c;" horiz-adv-x="650" 
d="M129 62q-71 72 -71 202v436h74v-432q0 -102 50.5 -157.5t142.5 -55.5q91 0 142 55.5t51 157.5v432h74v-436q0 -130 -71.5 -202t-195.5 -72q-125 0 -196 72zM218 802.5q-34 35.5 -34 89.5h52q3 -76 87 -76q82 0 87 76h52q0 -54 -34 -89.5t-105 -35.5t-105 35.5z" />
    <glyph glyph-name="ubreve" unicode="&#x16d;" horiz-adv-x="558" 
d="M499 520v-520h-71v97q-7 -21 -28.5 -45.5t-60.5 -43t-93 -18.5q-84 0 -136 50.5t-52 159.5v320h71v-306q0 -79 34.5 -121t105.5 -42q73 0 116 43.5t43 119.5v306h71zM170 622.5q-34 35.5 -34 89.5h52q3 -76 87 -76q82 0 87 76h52q0 -54 -34 -89.5t-105 -35.5t-105 35.5z
" />
    <glyph glyph-name="Uring" unicode="&#x16e;" horiz-adv-x="650" 
d="M129 62q-71 72 -71 202v436h74v-432q0 -102 50.5 -157.5t142.5 -55.5q91 0 142 55.5t51 157.5v432h74v-436q0 -130 -71.5 -202t-195.5 -72q-125 0 -196 72zM263 771.5q-25 24.5 -25 59.5t24.5 59t61.5 24t61.5 -24t24.5 -59t-25 -59.5t-61 -24.5t-61 24.5zM357.5 797.5
q13.5 13.5 13.5 33.5t-13.5 33.5t-33.5 13.5q-19 0 -33 -13.5t-14 -33.5t13.5 -33.5t33.5 -13.5t33.5 13.5z" />
    <glyph glyph-name="uring" unicode="&#x16f;" horiz-adv-x="558" 
d="M499 520v-520h-71v97q-7 -21 -28.5 -45.5t-60.5 -43t-93 -18.5q-84 0 -136 50.5t-52 159.5v320h71v-306q0 -79 34.5 -121t105.5 -42q73 0 116 43.5t43 119.5v306h71zM214 591.5q-25 24.5 -25 59.5t24.5 59t61.5 24t61.5 -24t24.5 -59t-25 -59.5t-61 -24.5t-61 24.5z
M308.5 617.5q13.5 13.5 13.5 33.5t-13.5 33.5t-33.5 13.5q-19 0 -33 -13.5t-14 -33.5t13.5 -33.5t33.5 -13.5t33.5 13.5z" />
    <glyph glyph-name="Uhungarumlaut" unicode="&#x170;" horiz-adv-x="650" 
d="M129 62q-71 72 -71 202v436h74v-432q0 -102 50.5 -157.5t142.5 -55.5q91 0 142 55.5t51 157.5v432h74v-436q0 -130 -71.5 -202t-195.5 -72q-125 0 -196 72zM436 892h69l-98 -130h-68zM300 892h69l-98 -130h-68z" />
    <glyph glyph-name="uhungarumlaut" unicode="&#x171;" horiz-adv-x="558" 
d="M499 520v-520h-71v97q-7 -21 -28.5 -45.5t-60.5 -43t-93 -18.5q-84 0 -136 50.5t-52 159.5v320h71v-306q0 -79 34.5 -121t105.5 -42q73 0 116 43.5t43 119.5v306h71zM388 712h69l-98 -130h-68zM252 712h69l-98 -130h-68z" />
    <glyph glyph-name="Uogonek" unicode="&#x172;" horiz-adv-x="650" 
d="M592 700v-436q0 -113 -54.5 -182.5t-151.5 -86.5q-34 -9 -51.5 -29.5t-17.5 -47.5q0 -28 19 -44.5t50 -16.5q6 0 20 2v-43q-20 -4 -32 -4q-46 0 -79.5 26t-33.5 73q0 49 36 80q-112 8 -175.5 79.5t-63.5 193.5v436h74v-432q0 -102 50.5 -157.5t142.5 -55.5q91 0 142 55.5
t51 157.5v432h74z" />
    <glyph glyph-name="uogonek" unicode="&#x173;" horiz-adv-x="558" 
d="M402 -126.5q19 -16.5 50 -16.5q6 0 20 2v-43q-20 -4 -32 -4q-46 0 -79.5 26t-33.5 73q0 44 29 73.5t72 37.5v75q-7 -21 -28.5 -45.5t-60.5 -43t-93 -18.5q-84 0 -136 50.5t-52 159.5v320h71v-306q0 -79 34.5 -121t105.5 -42q73 0 116 43.5t43 119.5v306h71v-519l1 -1
q-58 0 -87.5 -23t-29.5 -59q0 -28 19 -44.5z" />
    <glyph glyph-name="Wcircumflex" unicode="&#x174;" horiz-adv-x="964" 
d="M28 700h75l155 -598h4l181 598h79l180 -598h4l155 598h75l-188 -700h-80l-186 606l-186 -606h-79zM429 892h105l98 -128h-72l-79 104l-78 -104h-72z" />
    <glyph glyph-name="wcircumflex" unicode="&#x175;" horiz-adv-x="791" 
d="M23 520h70l122 -446h4l145 446h63l144 -446h4l123 446h69l-150 -520h-81l-141 426l-141 -426h-81zM343 712h105l98 -128h-72l-79 104l-78 -104h-72z" />
    <glyph glyph-name="Ycircumflex" unicode="&#x176;" horiz-adv-x="645" 
d="M285 276l-257 424h83l211 -353l212 353h83l-257 -424v-276h-75v276zM269 892h105l98 -128h-72l-79 104l-78 -104h-72z" />
    <glyph glyph-name="ycircumflex" unicode="&#x177;" horiz-adv-x="529" 
d="M105 -131q41 0 68 21.5t44 64.5q9 24 9 41q0 11 -5 26l-198 498h74l168 -438l167 438h74l-226 -568q-31 -75 -72 -110t-99 -35q-21 0 -32 2v62q20 -2 28 -2zM213 712h105l98 -128h-72l-79 104l-78 -104h-72z" />
    <glyph glyph-name="Ydieresis" unicode="&#x178;" horiz-adv-x="645" 
d="M285 276l-257 424h83l211 -353l212 353h83l-257 -424v-276h-75v276zM199 822.5q-14 13.5 -14 32.5t14 32.5t32 13.5q19 0 33 -13.5t14 -32.5t-14 -32.5t-33 -13.5q-18 0 -32 13.5zM381 822.5q-14 13.5 -14 32.5t14 32.5t33 13.5q18 0 32 -13.5t14 -32.5t-14 -32.5
t-32 -13.5q-19 0 -33 13.5z" />
    <glyph glyph-name="Zacute" unicode="&#x179;" horiz-adv-x="609" 
d="M40 65l442 570h-424v65h507l-1 -65l-442 -570h447v-65h-529v65zM355 892h69l-98 -130h-68z" />
    <glyph glyph-name="zacute" unicode="&#x17a;" horiz-adv-x="496" 
d="M40 61l332 398h-322v61h406v-61l-332 -398h332v-61h-416v61zM292 712h69l-98 -130h-68z" />
    <glyph glyph-name="Zdotaccent" unicode="&#x17b;" horiz-adv-x="609" 
d="M40 65l442 570h-424v65h507l-1 -65l-442 -570h447v-65h-529v65zM277 822.5q-14 13.5 -14 32.5t14 32.5t32 13.5q19 0 33 -13.5t14 -32.5t-14 -32.5t-33 -13.5q-18 0 -32 13.5z" />
    <glyph glyph-name="zdotaccent" unicode="&#x17c;" horiz-adv-x="496" 
d="M40 61l332 398h-322v61h406v-61l-332 -398h332v-61h-416v61zM214 642.5q-14 13.5 -14 32.5t14 32.5t32 13.5q19 0 33 -13.5t14 -32.5t-14 -32.5t-33 -13.5q-18 0 -32 13.5z" />
    <glyph glyph-name="Zcaron" unicode="&#x17d;" horiz-adv-x="609" 
d="M40 65l442 570h-424v65h507l-1 -65l-442 -570h447v-65h-529v65zM154 892h72l78 -104l79 104h72l-98 -128h-105z" />
    <glyph glyph-name="zcaron" unicode="&#x17e;" horiz-adv-x="496" 
d="M40 61l332 398h-322v61h406v-61l-332 -398h332v-61h-416v61zM91 712h72l78 -104l79 104h72l-98 -128h-105z" />
    <glyph glyph-name="florin" unicode="&#x192;" horiz-adv-x="295" 
d="M204 618q-22 -24 -22 -82v-108h88v-62h-88v-395q0 -89 -42 -125t-117 -36v62q44 0 66 25t22 82v387h-80v62h80v116q0 88 39.5 124.5t119.5 36.5v-63q-44 0 -66 -24z" />
    <glyph glyph-name="uni01CD" unicode="&#x1cd;" horiz-adv-x="674" 
d="M574 0l-68 181h-337l-68 -181h-78l270 700h89l269 -700h-77zM191 238h293l-144 382h-5zM182 892h72l78 -104l79 104h72l-98 -128h-105z" />
    <glyph glyph-name="uni01CE" unicode="&#x1ce;" horiz-adv-x="530" 
d="M422 488q50 -42 50 -135v-353h-67v90h-3q-9 -18 -32.5 -41t-66 -41t-100.5 -18q-78 0 -124 35.5t-46 104.5q0 64 43.5 99t131.5 47l114 15q79 11 79 34v28q0 66 -33.5 94t-101.5 28q-67 0 -100 -25t-33 -76v-11h-68v16q0 76 53 113.5t151 37.5q103 0 153 -42zM401 268
q-3 -19 -73 -28l-105 -15q-66 -9 -92.5 -31.5t-26.5 -59.5q0 -45 30.5 -66t81.5 -21q59 0 101 24t63 56t21 55v86zM110 712h72l78 -104l79 104h72l-98 -128h-105z" />
    <glyph glyph-name="uni01CF" unicode="&#x1cf;" horiz-adv-x="190" 
d="M58 700h74v-700h-74v700zM-60 892h72l78 -104l79 104h72l-98 -128h-105z" />
    <glyph glyph-name="uni01D0" unicode="&#x1d0;" horiz-adv-x="166" 
d="M47 520h71v-520h-71v520zM-72 712h72l78 -104l79 104h72l-98 -128h-105z" />
    <glyph glyph-name="uni01D1" unicode="&#x1d1;" horiz-adv-x="717" 
d="M196.5 32q-71.5 42 -112.5 123t-41 195t41 195t112.5 122.5t162.5 41.5t162 -41.5t112 -122.5t41 -195t-41 -195t-112 -123t-162 -42t-162.5 42zM483.5 87.5q54.5 33.5 85 100t30.5 162.5q0 95 -30.5 161.5t-85 100t-124.5 33.5q-71 0 -125 -33.5t-85 -100t-31 -161.5
q0 -96 31 -162.5t85 -100t125 -33.5q70 0 124.5 33.5zM204 892h72l78 -104l79 104h72l-98 -128h-105z" />
    <glyph glyph-name="uni01D2" unicode="&#x1d2;" horiz-adv-x="564" 
d="M158.5 20q-56.5 30 -91 91t-34.5 149t34.5 149t91 91t123.5 30q66 0 122.5 -30t91 -91t34.5 -149t-34.5 -149t-91 -91t-122.5 -30q-67 0 -123.5 30zM371 73q41 23 66 70.5t25 116.5t-25 116.5t-66 70.5t-89 23q-49 0 -90 -23t-65.5 -70.5t-24.5 -116.5t24.5 -116.5
t65.5 -70.5t90 -23q48 0 89 23zM127 712h72l78 -104l79 104h72l-98 -128h-105z" />
    <glyph glyph-name="uni01D3" unicode="&#x1d3;" horiz-adv-x="650" 
d="M129 62q-71 72 -71 202v436h74v-432q0 -102 50.5 -157.5t142.5 -55.5q91 0 142 55.5t51 157.5v432h74v-436q0 -130 -71.5 -202t-195.5 -72q-125 0 -196 72zM168 892h72l78 -104l79 104h72l-98 -128h-105z" />
    <glyph glyph-name="uni01D4" unicode="&#x1d4;" horiz-adv-x="558" 
d="M499 520v-520h-71v97q-7 -21 -28.5 -45.5t-60.5 -43t-93 -18.5q-84 0 -136 50.5t-52 159.5v320h71v-306q0 -79 34.5 -121t105.5 -42q73 0 116 43.5t43 119.5v306h71zM120 712h72l78 -104l79 104h72l-98 -128h-105z" />
    <glyph glyph-name="uni01EA" unicode="&#x1ea;" horiz-adv-x="717" 
d="M366.5 -35.5q-17.5 -20.5 -17.5 -46.5q0 -28 19 -44.5t51 -16.5q6 0 20 2v-43q-20 -4 -32 -4q-46 0 -79.5 26t-33.5 73q0 49 36 80q-84 7 -148.5 50.5t-101.5 122t-37 186.5q0 114 41 195t112.5 122.5t162.5 41.5t162 -41.5t112 -122.5t41 -195q0 -101 -32.5 -177
t-91 -121t-134.5 -58q-32 -9 -49.5 -29.5zM149 187.5q31 -66.5 85 -100t125 -33.5q70 0 124.5 33.5t85 100t30.5 162.5q0 95 -30.5 161.5t-85 100t-124.5 33.5q-71 0 -125 -33.5t-85 -100t-31 -161.5q0 -96 31 -162.5z" />
    <glyph glyph-name="uni01EB" unicode="&#x1eb;" horiz-adv-x="564" 
d="M282.5 -35q-17.5 -20 -17.5 -47q0 -28 19 -44.5t50 -16.5q6 0 20 2v-43q-20 -4 -32 -4q-46 0 -79.5 26t-33.5 73q0 49 37 81q-59 8 -107.5 40t-77 90t-28.5 138q0 88 34.5 149t91 91t123.5 30q66 0 122.5 -30t91 -91t34.5 -149q0 -114 -55.5 -181.5t-142.5 -83.5
q-32 -10 -49.5 -30zM126.5 143.5q24.5 -47.5 65.5 -70.5t90 -23q48 0 89 23t66 70.5t25 116.5t-25 116.5t-66 70.5t-89 23q-49 0 -90 -23t-65.5 -70.5t-24.5 -116.5t24.5 -116.5z" />
    <glyph glyph-name="uni0218" unicode="&#x218;" horiz-adv-x="607" 
d="M164 17q-60 27 -90.5 74.5t-30.5 108.5h74q4 -66 52 -106.5t141 -40.5q87 0 132.5 37t45.5 100q0 58 -37.5 88.5t-106.5 44.5l-91 18q-189 38 -189 183q0 84 61.5 134.5t174.5 50.5q74 0 129 -23t84.5 -64t29.5 -95h-73q-3 52 -46.5 85.5t-123.5 33.5q-81 0 -120.5 -34.5
t-39.5 -87.5q0 -98 133 -125l89 -18q99 -20 150.5 -63.5t51.5 -125.5q0 -95 -67.5 -148.5t-187.5 -53.5q-85 0 -145 27zM257 -181q33 0 44.5 13t10.5 44q-28 -1 -45 14t-17 38q0 21 14.5 36t37.5 15q26 0 42.5 -20.5t16.5 -64.5q0 -56 -26 -85.5t-68 -29.5h-17v40h7z" />
    <glyph glyph-name="uni0219" unicode="&#x219;" horiz-adv-x="477" 
d="M91 29q-59 39 -63 115h65q7 -51 49 -74.5t100 -23.5q59 0 97 24t38 73q0 38 -23.5 55.5t-73.5 30.5l-98 23q-68 17 -102 50.5t-34 85.5q0 67 52 104.5t139 37.5q86 0 138.5 -38t57.5 -113h-60q-9 51 -43.5 73t-91.5 22q-58 0 -91 -22t-33 -62q0 -31 22 -51.5t70 -32.5
l97 -22q73 -18 109.5 -48.5t36.5 -91.5q0 -79 -60 -116.5t-148 -37.5q-91 0 -150 39zM197 -192q33 0 44.5 13t10.5 44q-28 -1 -45 14t-17 38q0 21 14.5 36t37.5 15q26 0 42.5 -20.5t16.5 -64.5q0 -56 -26 -85.5t-68 -29.5h-17v40h7z" />
    <glyph glyph-name="uni021A" unicode="&#x21a;" horiz-adv-x="577" 
d="M252 635h-224v65h520v-65h-223v-635h-73v635zM234 -181q33 0 44.5 13t10.5 44q-28 -1 -45 14t-17 38q0 21 14.5 36t37.5 15q26 0 42.5 -20.5t16.5 -64.5q0 -56 -26 -85.5t-68 -29.5h-17v40h7z" />
    <glyph glyph-name="uni021B" unicode="&#x21b;" horiz-adv-x="318" 
d="M289 52v-56q-18 -3 -53 -3q-129 0 -129 124v346h-84v57h84v129h71v-129h103v-57h-103v-332q0 -43 17.5 -61t60.5 -18h33zM160 -181q33 0 44.5 13t10.5 44q-28 -1 -45 14t-17 38q0 21 14.5 36t37.5 15q26 0 42.5 -20.5t16.5 -64.5q0 -56 -26 -85.5t-68 -29.5h-17v40h7z
" />
    <glyph glyph-name="uni0237" unicode="&#x237;" horiz-adv-x="195" 
d="M-34 -184v56h31q44 0 62 18t18 61v569h71v-583q0 -124 -130 -124q-23 0 -52 3z" />
    <glyph glyph-name="circumflex" unicode="&#x2c6;" horiz-adv-x="301" 
d="M98 712h105l98 -128h-72l-79 104l-78 -104h-72z" />
    <glyph glyph-name="caron" unicode="&#x2c7;" horiz-adv-x="307" 
d="M0 712h72l78 -104l79 104h72l-98 -128h-105z" />
    <glyph glyph-name="breve" unicode="&#x2d8;" horiz-adv-x="278" 
d="M34 622.5q-34 35.5 -34 89.5h52q3 -76 87 -76q82 0 87 76h52q0 -54 -34 -89.5t-105 -35.5t-105 35.5z" />
    <glyph glyph-name="dotaccent" unicode="&#x2d9;" horiz-adv-x="93" 
d="M14 642.5q-14 13.5 -14 32.5t14 32.5t32 13.5q19 0 33 -13.5t14 -32.5t-14 -32.5t-33 -13.5q-18 0 -32 13.5z" />
    <glyph glyph-name="ring" unicode="&#x2da;" horiz-adv-x="172" 
d="M25 591.5q-25 24.5 -25 59.5t24.5 59t61.5 24t61.5 -24t24.5 -59t-25 -59.5t-61 -24.5t-61 24.5zM119.5 617.5q13.5 13.5 13.5 33.5t-13.5 33.5t-33.5 13.5q-19 0 -33 -13.5t-14 -33.5t13.5 -33.5t33.5 -13.5t33.5 13.5z" />
    <glyph glyph-name="ogonek" unicode="&#x2db;" horiz-adv-x="173" 
d="M113 -188q-46 0 -79.5 26t-33.5 73q0 34 18.5 60t47.5 39.5t60 13.5l47 -24q-58 0 -87.5 -23t-29.5 -59q0 -28 19 -44.5t50 -16.5q6 0 20 2v-43q-20 -4 -32 -4z" />
    <glyph glyph-name="tilde" unicode="&#x2dc;" horiz-adv-x="333" 
d="M203 616q-19 10 -44 30q-22 17 -36.5 25t-32.5 8q-24 0 -36 -15.5t-11 -33.5h-43q0 45 23.5 68.5t61.5 23.5q26 0 45.5 -10t43.5 -29q22 -17 36.5 -25t32.5 -8q24 0 36 15t11 34h43q0 -45 -23.5 -69t-61.5 -24q-26 0 -45 10z" />
    <glyph glyph-name="hungarumlaut" unicode="&#x2dd;" horiz-adv-x="302" 
d="M233 712h69l-98 -130h-68zM97 712h69l-98 -130h-68z" />
    <glyph glyph-name="uni0326" unicode="&#x326;" horiz-adv-x="0" 
d="M-87 -181q33 0 44.5 13t10.5 44q-28 -1 -45 14t-17 38q0 21 14.5 36t37.5 15q26 0 42.5 -20.5t16.5 -64.5q0 -56 -26 -85.5t-68 -29.5h-17v40h7z" />
    <glyph glyph-name="uni0394" unicode="&#x394;" horiz-adv-x="680" 
d="M339 713h1l316 -713h-633zM562 59l-222 515l-223 -515h445z" />
    <glyph glyph-name="uni03A9" unicode="&#x3a9;" horiz-adv-x="782" 
d="M237 59q-91 49 -142.5 127.5t-51.5 178.5q0 97 47.5 175t127.5 122.5t173 44.5t173 -44.5t127.5 -122.5t47.5 -175q0 -100 -51.5 -178.5t-142.5 -127.5h170v-59h-215v104q83 44 125 111t42 150q0 81 -38.5 143.5t-101.5 96.5t-136 34t-136 -34t-101.5 -96.5t-38.5 -143.5
q0 -83 42 -150t125 -111v-104h-215v59h170z" />
    <glyph glyph-name="uni03BC" unicode="&#x3bc;" horiz-adv-x="557" 
d="M499 520v-520h-71v97q-7 -21 -28.5 -45.5t-60.5 -43t-93 -18.5q-72 0 -117 34v-214h-71v710h71v-306q0 -79 34.5 -121t105.5 -42q73 0 116 43.5t43 119.5v306h71z" />
    <glyph glyph-name="pi" unicode="&#x3c0;" horiz-adv-x="661" 
d="M617 71v-57q-26 -20 -74 -20t-77.5 24t-29.5 79v361h-217v-458h-71v458h-100v62h558v-62h-99v-346q0 -30 13.5 -43t40.5 -13q30 0 56 15z" />
    <glyph glyph-name="uni0401" unicode="&#x401;" horiz-adv-x="542" 
d="M58 700h441v-65h-367v-245h337v-60h-337v-265h377v-65h-451v700zM154 822.5q-14 13.5 -14 32.5t14 32.5t32 13.5q19 0 33 -13.5t14 -32.5t-14 -32.5t-33 -13.5q-18 0 -32 13.5zM336 822.5q-14 13.5 -14 32.5t14 32.5t33 13.5q18 0 32 -13.5t14 -32.5t-14 -32.5t-32 -13.5
q-19 0 -33 13.5z" />
    <glyph glyph-name="uni0403" unicode="&#x403;" horiz-adv-x="495" 
d="M58 700h409v-66h-335v-634h-74v700zM316 892h69l-98 -130h-68z" />
    <glyph glyph-name="uni0404" unicode="&#x404;" horiz-adv-x="658" 
d="M485 91.5q52 37.5 71 107.5h72q-18 -102 -90 -155.5t-181 -53.5q-93 0 -163.5 41t-110.5 122t-40 197t40 196.5t110.5 121.5t163.5 41q109 0 181 -53.5t90 -154.5h-72q-19 69 -70.5 106.5t-128.5 37.5q-102 0 -165 -65.5t-72 -188.5h256v-61h-258q5 -133 69 -204.5
t170 -71.5q76 0 128 37.5z" />
    <glyph glyph-name="uni0407" unicode="&#x407;" horiz-adv-x="190" 
d="M58 700h74v-700h-74v700zM-29 822.5q-14 13.5 -14 32.5t14 32.5t32 13.5q19 0 33 -13.5t14 -32.5t-14 -32.5t-33 -13.5q-18 0 -32 13.5zM153 822.5q-14 13.5 -14 32.5t14 32.5t33 13.5q18 0 32 -13.5t14 -32.5t-14 -32.5t-32 -13.5q-19 0 -33 13.5z" />
    <glyph glyph-name="uni040C" unicode="&#x40c;" horiz-adv-x="626" 
d="M516 0l-276 325l-108 -119v-206h-74v700h74v-397l358 397h88l-292 -324l317 -376h-87zM362 892h69l-98 -130h-68z" />
    <glyph glyph-name="uni040E" unicode="&#x40e;" horiz-adv-x="559" 
d="M117 58q42 0 67 21t42 62q11 28 11 46q0 16 -8 35l-201 478h80l171 -424l172 424h80l-235 -563q-32 -76 -73.5 -111t-98.5 -35q-10 0 -30 2v67q16 -2 23 -2zM175 802.5q-34 35.5 -34 89.5h52q3 -76 87 -76q82 0 87 76h52q0 -54 -34 -89.5t-105 -35.5t-105 35.5z" />
    <glyph glyph-name="uni0410" unicode="&#x410;" horiz-adv-x="674" 
d="M574 0l-68 181h-337l-68 -181h-78l270 700h89l269 -700h-77zM191 238h293l-144 382h-5z" />
    <glyph glyph-name="uni0411" unicode="&#x411;" horiz-adv-x="587" 
d="M491 385q63 -58 63 -163t-63 -163.5t-181 -58.5h-252v700h409v-66h-335v-191h178q118 0 181 -58zM433 106q43 40 43 116q0 75 -43 115t-125 40h-176v-311h176q82 0 125 40z" />
    <glyph glyph-name="uni0412" unicode="&#x412;" horiz-adv-x="601" 
d="M318 700q103 0 154 -45.5t51 -121.5q0 -56 -26 -94.5t-78 -55.5q70 -17 109 -63t39 -119q0 -92 -62.5 -146.5t-184.5 -54.5h-262v700h260zM414 438.5q34 30.5 34 86.5q0 54 -34 83t-103 29h-179v-229h179q69 0 103 30.5zM445.5 101.5q44.5 37.5 44.5 103.5
q0 65 -44.5 102.5t-130.5 37.5h-183v-281h183q86 0 130.5 37.5z" />
    <glyph glyph-name="uni0413" unicode="&#x413;" horiz-adv-x="495" 
d="M58 700h409v-66h-335v-634h-74v700z" />
    <glyph glyph-name="uni0414" unicode="&#x414;" horiz-adv-x="676" 
d="M643 63v-132h-71v69h-478v-69h-71v132h33q32 30 49.5 88.5t24 152t6.5 242.5v154h465v-637h42zM204 302.5q-6 -92.5 -22 -151t-46 -88.5h391v571h-317v-88q0 -151 -6 -243.5z" />
    <glyph glyph-name="uni0415" unicode="&#x415;" horiz-adv-x="542" 
d="M58 700h441v-65h-367v-245h337v-60h-337v-265h377v-65h-451v700z" />
    <glyph glyph-name="uni0416" unicode="&#x416;" horiz-adv-x="889" 
d="M866 0h-87l-298 327v-327h-74v326l-297 -326h-87l324 358l-307 342h86l281 -310v310h74v-311l282 311h86l-307 -342z" />
    <glyph glyph-name="uni0417" unicode="&#x417;" horiz-adv-x="572" 
d="M102 53q-63 63 -64 169h68q1 -79 48.5 -124.5t129.5 -45.5q77 0 127.5 40.5t50.5 110.5q0 68 -50 106.5t-139 38.5h-29v56h25q83 0 119.5 35.5t36.5 87.5q0 56 -38 88t-105 32q-69 0 -111 -39t-42 -121h-68q0 109 59.5 165.5t163.5 56.5q66 0 114 -22.5t72.5 -62
t24.5 -89.5q0 -56 -31 -97t-87 -57q65 -12 111 -58.5t46 -123.5q0 -61 -31.5 -108.5t-89 -74t-132.5 -26.5q-116 0 -179 63z" />
    <glyph glyph-name="uni0418" unicode="&#x418;" horiz-adv-x="658" 
d="M599 0h-73v587h-2l-380 -587h-86v700h74v-589h2l382 589h83v-700z" />
    <glyph glyph-name="uni0419" unicode="&#x419;" horiz-adv-x="658" 
d="M223.5 802q-33.5 35 -33.5 90h51q5 -76 87 -76q84 0 87 76h52q0 -54 -34 -89.5t-105 -35.5t-104.5 35zM599 0h-73v587h-2l-380 -587h-86v700h74v-589h2l382 589h83v-700z" />
    <glyph glyph-name="uni041A" unicode="&#x41a;" horiz-adv-x="626" 
d="M516 0l-276 325l-108 -119v-206h-74v700h74v-397l358 397h88l-292 -324l317 -376h-87z" />
    <glyph glyph-name="uni041B" unicode="&#x41b;" horiz-adv-x="675" 
d="M110.5 94q34.5 36 34.5 128v478h472v-700h-74v634h-324v-414q0 -124 -55.5 -178.5t-148.5 -48.5v66q61 -1 95.5 35z" />
    <glyph glyph-name="uni041C" unicode="&#x41c;" horiz-adv-x="826" 
d="M58 700h88l267 -606l268 606h87v-700h-73v562h-3l-248 -562h-62l-248 562h-2v-562h-74v700z" />
    <glyph glyph-name="uni041D" unicode="&#x41d;" horiz-adv-x="645" 
d="M514 700h73v-700h-73v311h-382v-311h-74v700h74v-327h382v327z" />
    <glyph glyph-name="uni041E" unicode="&#x41e;" horiz-adv-x="717" 
d="M196.5 32q-71.5 42 -112.5 123t-41 195t41 195t112.5 122.5t162.5 41.5t162 -41.5t112 -122.5t41 -195t-41 -195t-112 -123t-162 -42t-162.5 42zM483.5 87.5q54.5 33.5 85 100t30.5 162.5q0 95 -30.5 161.5t-85 100t-124.5 33.5q-71 0 -125 -33.5t-85 -100t-31 -161.5
q0 -96 31 -162.5t85 -100t125 -33.5q70 0 124.5 33.5z" />
    <glyph glyph-name="uni041F" unicode="&#x41f;" horiz-adv-x="645" 
d="M58 700h529v-700h-74v634h-381v-634h-74v700z" />
    <glyph glyph-name="uni0420" unicode="&#x420;" horiz-adv-x="587" 
d="M310 700q119 0 181.5 -56.5t62.5 -157.5q0 -100 -62.5 -156t-181.5 -56h-178v-274h-74v700h252zM435.5 377.5q43.5 37.5 43.5 108.5q0 73 -43.5 111t-128.5 38h-175v-295h175q85 0 128.5 37.5z" />
    <glyph glyph-name="uni0421" unicode="&#x421;" horiz-adv-x="658" 
d="M193.5 31q-70.5 41 -110.5 122t-40 197t40 196.5t110.5 121.5t163.5 41q109 0 181 -53.5t90 -154.5h-72q-19 69 -70.5 106.5t-128.5 37.5q-110 0 -174.5 -76.5t-64.5 -218.5t64.5 -219t174.5 -77q76 0 128 37.5t71 107.5h72q-18 -102 -90 -155.5t-181 -53.5
q-93 0 -163.5 41z" />
    <glyph glyph-name="uni0422" unicode="&#x422;" horiz-adv-x="577" 
d="M252 635h-224v65h520v-65h-223v-635h-73v635z" />
    <glyph glyph-name="uni0423" unicode="&#x423;" horiz-adv-x="559" 
d="M117 58q42 0 67 21t42 62q11 28 11 46q0 16 -8 35l-201 478h80l171 -424l172 424h80l-235 -563q-32 -76 -73.5 -111t-98.5 -35q-10 0 -30 2v67q16 -2 23 -2z" />
    <glyph glyph-name="uni0424" unicode="&#x424;" horiz-adv-x="711" 
d="M593.5 143.5q-74.5 -75.5 -200.5 -85.5v-73h-74v73q-127 10 -201.5 85.5t-74.5 206.5q0 132 74.5 207t201.5 85v73h74v-73q127 -10 201 -85t74 -207q0 -131 -74.5 -206.5zM168.5 186.5q54.5 -59.5 150.5 -69.5v466q-96 -9 -150.5 -68.5t-54.5 -164.5q0 -104 54.5 -163.5z
M542.5 186.5q54.5 59.5 54.5 163.5q0 105 -54.5 164.5t-149.5 68.5v-466q95 10 149.5 69.5z" />
    <glyph glyph-name="uni0425" unicode="&#x425;" horiz-adv-x="641" 
d="M617 0h-83l-214 303l-214 -303h-83l256 362l-239 338h82l198 -280l198 280h83l-239 -339z" />
    <glyph glyph-name="uni0426" unicode="&#x426;" horiz-adv-x="652" 
d="M587 66h42v-207h-71v141h-500v700h74v-634h381v634h74v-634z" />
    <glyph glyph-name="uni0427" unicode="&#x427;" horiz-adv-x="621" 
d="M562 700v-700h-74v300q-6 -22 -37.5 -54.5t-83.5 -56.5t-118 -24q-90 0 -148 52.5t-58 164.5v318h74v-315q0 -81 43.5 -117.5t116.5 -36.5q58 0 104 23.5t73.5 57t33.5 61.5v327h74z" />
    <glyph glyph-name="uni0428" unicode="&#x428;" horiz-adv-x="782" 
d="M58 700h74v-634h222v634h74v-634h221v634h75v-700h-666v700z" />
    <glyph glyph-name="uni0429" unicode="&#x429;" horiz-adv-x="791" 
d="M724 66h44v-207h-72v141h-638v700h74v-634h222v634h74v-634h221v634h75v-634z" />
    <glyph glyph-name="uni042A" unicode="&#x42a;" horiz-adv-x="634" 
d="M537 385q63 -58 63 -163q0 -106 -63 -164t-184 -58h-248v634h-82v66h156v-257h174q121 0 184 -58zM480 106q43 40 43 116q0 75 -43.5 115t-125.5 40h-175v-311h175q83 0 126 40z" />
    <glyph glyph-name="uni042B" unicode="&#x42b;" horiz-adv-x="761" 
d="M490.5 385q63.5 -58 63.5 -163q0 -106 -63.5 -164t-184.5 -58h-248v700h74v-257h174q121 0 184.5 -58zM433 106q43 40 43 116q0 75 -43 115t-125 40h-176v-311h176q82 0 125 40zM629 700h74v-700h-74v700z" />
    <glyph glyph-name="uni042C" unicode="&#x42c;" horiz-adv-x="587" 
d="M490.5 385q63.5 -58 63.5 -163q0 -106 -63.5 -164t-184.5 -58h-248v700h74v-257h174q121 0 184.5 -58zM433 106q43 40 43 116q0 75 -43 115t-125 40h-176v-311h176q82 0 125 40z" />
    <glyph glyph-name="uni042D" unicode="&#x42d;" horiz-adv-x="661" 
d="M468.5 668q70.5 -41 110 -121.5t39.5 -196.5t-39.5 -197t-110 -122t-163.5 -41q-109 0 -181.5 53.5t-90.5 155.5h73q19 -70 70.5 -107.5t128.5 -37.5q106 0 170 71.5t69 204.5h-259v61h257q-9 123 -72 188.5t-165 65.5q-77 0 -128.5 -37.5t-70.5 -106.5h-73
q18 101 90.5 154.5t181.5 53.5q93 0 163.5 -41z" />
    <glyph glyph-name="uni042E" unicode="&#x42e;" horiz-adv-x="917" 
d="M720.5 667.5q71.5 -41.5 112.5 -122.5t41 -195t-41 -195t-112.5 -123t-162.5 -42q-85 0 -153.5 37t-111 109.5t-49.5 174.5h-112v-311h-74v700h74v-327h111q4 107 46 182.5t111.5 114.5t157.5 39q91 0 162.5 -41.5zM683 87.5q54 33.5 85 100t31 162.5q0 95 -31 161.5
t-85 100t-125 33.5q-70 0 -124.5 -33.5t-85.5 -100t-31 -161.5q0 -96 31 -162.5t85.5 -100t124.5 -33.5q71 0 125 33.5z" />
    <glyph glyph-name="uni042F" unicode="&#x42f;" horiz-adv-x="593" 
d="M534 700v-700h-73v274h-179h-12l-162 -274h-75l167 282q-79 18 -120 70.5t-41 133.5q0 101 62 157.5t181 56.5h252zM461 635h-176q-85 0 -128.5 -38t-43.5 -111q0 -71 44 -108.5t128 -37.5h176v295z" />
    <glyph glyph-name="uni0430" unicode="&#x430;" horiz-adv-x="526" 
d="M502 43v-44q-9 -5 -28 -5q-32 0 -50.5 15t-18.5 44v37h-3q-9 -18 -32.5 -41t-66 -41t-100.5 -18q-78 0 -124 35.5t-46 104.5q0 64 43.5 99t131.5 47l114 15q79 11 79 34v28q0 66 -33.5 94t-101.5 28q-67 0 -100 -25t-33 -76v-11h-68v16q0 76 53 113.5t151 37.5
q103 0 153 -42t50 -135v-278q0 -33 30 -32zM401 268q-3 -19 -73 -28l-105 -15q-66 -9 -92.5 -31.5t-26.5 -59.5q0 -45 30.5 -66t81.5 -21q59 0 101 24t63 56t21 55v86z" />
    <glyph glyph-name="uni0431" unicode="&#x431;" horiz-adv-x="554" 
d="M165.5 22q-54.5 31 -88.5 97.5t-34 166.5v184q1 114 57 172t163 58h74q32 0 49 5.5t28 16.5h68q-20 -45 -52 -62.5t-96 -17.5h-71q-71 0 -111.5 -39t-40.5 -106v-81q23 53 73.5 81t107.5 28q59 0 111.5 -29t85 -89.5t32.5 -147.5q0 -89 -34.5 -149.5t-89.5 -89.5
t-115 -29q-62 0 -116.5 31zM367 74q39 23 63 69.5t24 115.5t-24 116t-63 69.5t-85 22.5q-45 0 -84 -22.5t-62.5 -69.5t-23.5 -116q0 -68 24 -115t62.5 -70t83.5 -23q46 0 85 23z" />
    <glyph glyph-name="uni0432" unicode="&#x432;" horiz-adv-x="547" 
d="M307 520q80 0 124 -33.5t44 -92.5q0 -79 -75 -107q58 -15 86 -51t28 -87q0 -72 -53 -110.5t-154 -38.5h-249v520h249zM409 382q0 77 -111 77h-169v-155h170q110 0 110 78zM411.5 86.5q32.5 25.5 32.5 69.5q0 45 -33 73t-111 28h-171v-196h170q80 0 112.5 25.5z" />
    <glyph glyph-name="uni0433" unicode="&#x433;" horiz-adv-x="409" 
d="M58 520h328v-58h-257v-462h-71v520z" />
    <glyph glyph-name="uni0434" unicode="&#x434;" horiz-adv-x="580" 
d="M557 58v-124h-65v66h-404v-66h-65v124h33q22 26 32 70.5t12.5 105.5t2.5 176v110h420v-462h34zM452 58v404h-278v-52q0 -115 -2.5 -176t-12.5 -105.5t-33 -70.5h326z" />
    <glyph glyph-name="uni0435" unicode="&#x435;" horiz-adv-x="537" 
d="M501 239h-399q4 -96 50 -144.5t130 -48.5q115 0 150 96h65q-25 -81 -82.5 -117t-135.5 -36q-112 0 -179 68.5t-67 200.5q0 91 32 152t86.5 90.5t122.5 29.5q104 0 167 -65.5t63 -189.5q0 -22 -3 -36zM436 291q-1 88 -44.5 135t-118.5 47q-73 0 -119.5 -46.5t-50.5 -135.5
h333z" />
    <glyph glyph-name="uni0436" unicode="&#x436;" horiz-adv-x="728" 
d="M715 0h-88l-227 229v-229h-71v230l-228 -230h-88l264 263l-255 257h88l219 -223v223h71v-222l218 222h88l-255 -257z" />
    <glyph glyph-name="uni0437" unicode="&#x437;" horiz-adv-x="501" 
d="M89 40.5q-56 49.5 -56 134.5h65q0 -57 40.5 -93t112.5 -36q63 0 102 28.5t39 75.5q0 51 -45 77.5t-121 25.5v43q71 1 107.5 25t36.5 64q0 39 -34 63.5t-87 24.5q-59 0 -94 -29.5t-35 -75.5h-66q0 72 51.5 115.5t143.5 43.5q86 0 136.5 -38t50.5 -98q0 -43 -27.5 -72.5
t-76.5 -40.5q53 -8 91.5 -41.5t38.5 -91.5q0 -71 -59.5 -112.5t-153.5 -41.5q-104 0 -160 49.5z" />
    <glyph glyph-name="uni0438" unicode="&#x438;" horiz-adv-x="576" 
d="M58 520h71v-427h3l307 427h79v-520h-71v425h-2l-305 -425h-82v520z" />
    <glyph glyph-name="uni0439" unicode="&#x439;" horiz-adv-x="576" 
d="M58 520h71v-427h3l307 427h79v-520h-71v425h-2l-305 -425h-82v520zM184 622.5q-34 35.5 -34 89.5h52q3 -76 87 -76q82 0 87 76h52q0 -54 -34 -89.5t-105 -35.5t-105 35.5z" />
    <glyph glyph-name="uni043A" unicode="&#x43a;" horiz-adv-x="533" 
d="M438 0l-215 247l-94 -98v-149h-71v520h71v-287l274 287h83l-218 -227l251 -293h-81z" />
    <glyph glyph-name="uni043B" unicode="&#x43b;" horiz-adv-x="591" 
d="M107 88q32 36 32 130v302h394v-520h-70l-1 462h-252v-247q0 -124 -51 -175t-144 -45v58q60 -1 92 35z" />
    <glyph glyph-name="uni043C" unicode="&#x43c;" horiz-adv-x="694" 
d="M58 520h79l210 -440l210 440h79v-520h-71v392h-4l-184 -392h-60l-184 392h-4v-392h-71v520z" />
    <glyph glyph-name="uni043D" unicode="&#x43d;" horiz-adv-x="524" 
d="M58 520h71v-221h266v221h71v-520h-71v241h-266v-241h-71v520z" />
    <glyph glyph-name="uni043E" unicode="&#x43e;" horiz-adv-x="564" 
d="M158.5 20q-56.5 30 -91 91t-34.5 149t34.5 149t91 91t123.5 30q66 0 122.5 -30t91 -91t34.5 -149t-34.5 -149t-91 -91t-122.5 -30q-67 0 -123.5 30zM371 73q41 23 66 70.5t25 116.5t-25 116.5t-66 70.5t-89 23q-49 0 -90 -23t-65.5 -70.5t-24.5 -116.5t24.5 -116.5
t65.5 -70.5t90 -23q48 0 89 23z" />
    <glyph glyph-name="uni043F" unicode="&#x43f;" horiz-adv-x="531" 
d="M58 520h414v-520h-71v462h-272v-462h-71v520z" />
    <glyph glyph-name="uni0440" unicode="&#x440;" 
d="M434 500.5q53 -29.5 85.5 -90.5t32.5 -150t-32.5 -150t-85.5 -90.5t-117 -29.5q-60 0 -110 25.5t-78 73.5v-279h-71v710h71v-89q28 48 78 73.5t110 25.5q64 0 117 -29.5zM394.5 73.5q40.5 23.5 65.5 71t25 115.5t-25 115.5t-65.5 71t-88.5 23.5q-47 0 -88.5 -23.5
t-66.5 -71t-25 -115.5t25 -115.5t66.5 -71t88.5 -23.5q48 0 88.5 23.5z" />
    <glyph glyph-name="uni0441" unicode="&#x441;" horiz-adv-x="532" 
d="M157 20q-57 30 -90.5 90.5t-33.5 148.5q0 89 33.5 150t90.5 91t126 30q81 0 143.5 -43t75.5 -141h-64q-11 64 -54.5 94t-101.5 30q-80 0 -130 -54.5t-50 -156.5q0 -100 50 -154.5t130 -54.5q58 0 101.5 30.5t54.5 95.5h64q-12 -99 -74.5 -142.5t-144.5 -43.5
q-69 0 -126 30z" />
    <glyph glyph-name="uni0442" unicode="&#x442;" horiz-adv-x="468" 
d="M438 520v-58h-169v-462h-71v462h-168v58h408z" />
    <glyph glyph-name="uni0443" unicode="&#x443;" horiz-adv-x="529" 
d="M105 -131q41 0 68 21.5t44 64.5q9 24 9 41q0 11 -5 26l-198 498h74l168 -438l167 438h74l-226 -568q-31 -75 -72 -110t-99 -35q-21 0 -32 2v62q20 -2 28 -2z" />
    <glyph glyph-name="uni0444" unicode="&#x444;" horiz-adv-x="584" 
d="M520.5 120q-30.5 -58 -81.5 -89t-114 -38v-183h-66v183q-63 7 -114 38t-81.5 89t-30.5 139t30.5 138.5t81.5 89t114 38.5v175h66v-175q63 -7 114 -38.5t81.5 -89t30.5 -138.5t-30.5 -139zM139 111q45 -52 120 -62v420q-75 -9 -120 -62t-45 -148q0 -96 45 -148z
M445.5 111.5q45.5 52.5 45.5 147.5t-45.5 147.5t-120.5 62.5v-420q75 10 120.5 62.5z" />
    <glyph glyph-name="uni0445" unicode="&#x445;" horiz-adv-x="518" 
d="M220 263l-182 257h80l141 -204l141 204h80l-182 -257l186 -263h-79l-146 210l-146 -210h-80z" />
    <glyph glyph-name="uni0446" unicode="&#x446;" horiz-adv-x="570" 
d="M472 58h40v-198h-68v140h-386v520h71v-462h272v462h71v-462z" />
    <glyph glyph-name="uni0447" unicode="&#x447;" horiz-adv-x="535" 
d="M477 520v-520h-71v250q-6 -21 -30 -47.5t-65.5 -46.5t-96.5 -20q-80 0 -130.5 47.5t-50.5 149.5v187h71v-179q0 -76 36.5 -110t95.5 -34q51 0 90 22t59.5 56t20.5 66v179h71z" />
    <glyph glyph-name="uni0448" unicode="&#x448;" horiz-adv-x="753" 
d="M58 520h71v-462h214v462h67v-462h213v462h71v-520h-636v520z" />
    <glyph glyph-name="uni0449" unicode="&#x449;" horiz-adv-x="792" 
d="M694 58h40v-198h-68v140h-608v520h71v-462h214v462h67v-462h213v462h71v-462z" />
    <glyph glyph-name="uni044A" unicode="&#x44a;" horiz-adv-x="579" 
d="M495.5 286q50.5 -43 50.5 -122t-50.5 -121.5t-147.5 -42.5h-235v462h-90v58h161v-191h164q97 0 147.5 -43zM446 86q32 28 32 78q0 107 -134 107h-160v-213h160q70 0 102 28z" />
    <glyph glyph-name="uni044B" unicode="&#x44b;" horiz-adv-x="674" 
d="M129 520v-191h164q97 0 147.5 -43t50.5 -122t-50.5 -121.5t-147.5 -42.5h-235v520h71zM391 86q32 28 32 78q0 107 -134 107h-160v-213h160q70 0 102 28zM545 520h71v-520h-71v520z" />
    <glyph glyph-name="uni044C" unicode="&#x44c;" horiz-adv-x="524" 
d="M129 520v-191h164q97 0 147.5 -43t50.5 -122t-50.5 -121.5t-147.5 -42.5h-235v520h71zM391 86q32 28 32 78q0 107 -134 107h-160v-213h160q70 0 102 28z" />
    <glyph glyph-name="uni044D" unicode="&#x44d;" horiz-adv-x="535" 
d="M378 500q57 -30 90.5 -91t33.5 -150q0 -88 -33.5 -148.5t-90.5 -90.5t-126 -30q-81 0 -143.5 43.5t-75.5 142.5h64q11 -65 54.5 -95.5t101.5 -30.5q77 0 127 50.5t54 143.5h-186v47h185q-9 87 -57.5 133t-122.5 46q-58 0 -101.5 -30t-54.5 -94h-64q13 98 75.5 141
t143.5 43q69 0 126 -30z" />
    <glyph glyph-name="uni044E" unicode="&#x44e;" horiz-adv-x="721" 
d="M562.5 500q56.5 -30 91 -91t34.5 -149t-34.5 -149t-91 -91t-123.5 -30q-63 0 -117 27t-89 81t-41 132h-74v-230h-71v520h71v-232h74q6 79 41 133.5t89 81.5t117 27q67 0 123.5 -30zM529 73q41 23 66 70.5t25 116.5t-25 116.5t-66 70.5t-90 23q-48 0 -89 -23t-66 -70.5
t-25 -116.5t25 -116.5t66 -70.5t89 -23q49 0 90 23z" />
    <glyph glyph-name="uni044F" unicode="&#x44f;" horiz-adv-x="529" 
d="M471 520v-520h-71v191h-156l-129 -191h-76l135 196q-67 13 -101.5 54t-34.5 106q0 79 50.5 121.5t147.5 42.5h235zM400 462h-160q-70 0 -102 -28t-32 -78q0 -107 134 -107h160v213z" />
    <glyph glyph-name="uni0451" unicode="&#x451;" horiz-adv-x="537" 
d="M501 239h-399q4 -96 50 -144.5t130 -48.5q115 0 150 96h65q-25 -81 -82.5 -117t-135.5 -36q-112 0 -179 68.5t-67 200.5q0 91 32 152t86.5 90.5t122.5 29.5q104 0 167 -65.5t63 -189.5q0 -22 -3 -36zM436 291q-1 88 -44.5 135t-118.5 47q-73 0 -119.5 -46.5t-50.5 -135.5
h333zM147 642.5q-14 13.5 -14 32.5t14 32.5t32 13.5q19 0 33 -13.5t14 -32.5t-14 -32.5t-33 -13.5q-18 0 -32 13.5zM329 642.5q-14 13.5 -14 32.5t14 32.5t33 13.5q18 0 32 -13.5t14 -32.5t-14 -32.5t-32 -13.5q-19 0 -33 13.5z" />
    <glyph glyph-name="uni0453" unicode="&#x453;" horiz-adv-x="409" 
d="M58 520h328v-58h-257v-462h-71v520zM253 712h69l-98 -130h-68z" />
    <glyph glyph-name="uni0454" unicode="&#x454;" horiz-adv-x="532" 
d="M383.5 80.5q43.5 30.5 54.5 95.5h64q-12 -99 -74.5 -142.5t-144.5 -43.5q-69 0 -126 30t-90.5 90.5t-33.5 148.5q0 89 33.5 150t90.5 91t126 30q81 0 143.5 -43t75.5 -141h-64q-11 64 -54.5 94t-101.5 30q-74 0 -122.5 -46t-56.5 -133h184v-47h-185q4 -93 53.5 -143.5
t126.5 -50.5q58 0 101.5 30.5z" />
    <glyph glyph-name="uni0457" unicode="&#x457;" horiz-adv-x="166" 
d="M47 520h71v-520h-71v520zM-41 642.5q-14 13.5 -14 32.5t14 32.5t32 13.5q19 0 33 -13.5t14 -32.5t-14 -32.5t-33 -13.5q-18 0 -32 13.5zM141 642.5q-14 13.5 -14 32.5t14 32.5t33 13.5q18 0 32 -13.5t14 -32.5t-14 -32.5t-32 -13.5q-19 0 -33 13.5z" />
    <glyph glyph-name="uni045C" unicode="&#x45c;" horiz-adv-x="533" 
d="M438 0l-215 247l-94 -98v-149h-71v520h71v-287l274 287h83l-218 -227l251 -293h-81zM313 712h69l-98 -130h-68z" />
    <glyph glyph-name="uni045E" unicode="&#x45e;" horiz-adv-x="529" 
d="M105 -131q41 0 68 21.5t44 64.5q9 24 9 41q0 11 -5 26l-198 498h74l168 -438l167 438h74l-226 -568q-31 -75 -72 -110t-99 -35q-21 0 -32 2v62q20 -2 28 -2zM160 622.5q-34 35.5 -34 89.5h52q3 -76 87 -76q82 0 87 76h52q0 -54 -34 -89.5t-105 -35.5t-105 35.5z" />
    <glyph glyph-name="uni0490" unicode="&#x490;" horiz-adv-x="495" 
d="M393 800h74v-166h-335v-634h-74v700h335v100z" />
    <glyph glyph-name="uni0491" unicode="&#x491;" horiz-adv-x="409" 
d="M323 586h63v-124h-257v-462h-71v520h265v66z" />
    <glyph glyph-name="Wgrave" unicode="&#x1e80;" horiz-adv-x="964" 
d="M28 700h75l155 -598h4l181 598h79l180 -598h4l155 598h75l-188 -700h-80l-186 606l-186 -606h-79zM462 762l-97 130h68l97 -130h-68z" />
    <glyph glyph-name="wgrave" unicode="&#x1e81;" horiz-adv-x="791" 
d="M23 520h70l122 -446h4l145 446h63l144 -446h4l123 446h69l-150 -520h-81l-141 426l-141 -426h-81zM376 582l-97 130h68l97 -130h-68z" />
    <glyph glyph-name="Wacute" unicode="&#x1e82;" horiz-adv-x="964" 
d="M28 700h75l155 -598h4l181 598h79l180 -598h4l155 598h75l-188 -700h-80l-186 606l-186 -606h-79zM528 892h69l-98 -130h-68z" />
    <glyph glyph-name="wacute" unicode="&#x1e83;" horiz-adv-x="791" 
d="M23 520h70l122 -446h4l145 446h63l144 -446h4l123 446h69l-150 -520h-81l-141 426l-141 -426h-81zM442 712h69l-98 -130h-68z" />
    <glyph glyph-name="Wdieresis" unicode="&#x1e84;" horiz-adv-x="964" 
d="M28 700h75l155 -598h4l181 598h79l180 -598h4l155 598h75l-188 -700h-80l-186 606l-186 -606h-79zM358 822.5q-14 13.5 -14 32.5t14 32.5t32 13.5q19 0 33 -13.5t14 -32.5t-14 -32.5t-33 -13.5q-18 0 -32 13.5zM540 822.5q-14 13.5 -14 32.5t14 32.5t33 13.5
q18 0 32 -13.5t14 -32.5t-14 -32.5t-32 -13.5q-19 0 -33 13.5z" />
    <glyph glyph-name="wdieresis" unicode="&#x1e85;" horiz-adv-x="791" 
d="M23 520h70l122 -446h4l145 446h63l144 -446h4l123 446h69l-150 -520h-81l-141 426l-141 -426h-81zM272 642.5q-14 13.5 -14 32.5t14 32.5t32 13.5q19 0 33 -13.5t14 -32.5t-14 -32.5t-33 -13.5q-18 0 -32 13.5zM454 642.5q-14 13.5 -14 32.5t14 32.5t33 13.5
q18 0 32 -13.5t14 -32.5t-14 -32.5t-32 -13.5q-19 0 -33 13.5z" />
    <glyph glyph-name="uni1E9E" unicode="&#x1e9e;" horiz-adv-x="664" 
d="M255.5 42.5q-52.5 52.5 -52.5 147.5h68q0 -57 34.5 -96t99.5 -39q68 0 104 42t36 105q0 76 -53.5 122t-145.5 46h-52l171 274h-237q-54 0 -75 -23.5t-21 -76.5v-544h-74v548q0 88 39.5 124.5t126.5 36.5h351l-181 -281q101 -8 164 -67.5t63 -160.5q0 -97 -58 -153.5
t-159 -56.5q-96 0 -148.5 52.5z" />
    <glyph glyph-name="Ygrave" unicode="&#x1ef2;" horiz-adv-x="645" 
d="M285 276l-257 424h83l211 -353l212 353h83l-257 -424v-276h-75v276zM303 762l-97 130h68l97 -130h-68z" />
    <glyph glyph-name="ygrave" unicode="&#x1ef3;" horiz-adv-x="529" 
d="M105 -131q41 0 68 21.5t44 64.5q9 24 9 41q0 11 -5 26l-198 498h74l168 -438l167 438h74l-226 -568q-31 -75 -72 -110t-99 -35q-21 0 -32 2v62q20 -2 28 -2zM247 582l-97 130h68l97 -130h-68z" />
    <glyph glyph-name="endash" unicode="&#x2013;" horiz-adv-x="600" 
d="M45 308h510v-56h-510v56z" />
    <glyph glyph-name="emdash" unicode="&#x2014;" horiz-adv-x="660" 
d="M45 308h570v-56h-570v56z" />
    <glyph glyph-name="quoteleft" unicode="&#x2018;" horiz-adv-x="193" 
d="M98 651.5q-12 -13.5 -11 -43.5q29 1 45.5 -14t16.5 -38q0 -22 -14 -36.5t-37 -14.5q-26 0 -43 20.5t-17 64.5q0 56 26 85.5t68 29.5h17v-40h-7q-32 0 -44 -13.5z" />
    <glyph glyph-name="quoteright" unicode="&#x2019;" horiz-adv-x="193" 
d="M50 549q33 0 44.5 13t10.5 44q-28 -1 -45 14t-17 38q0 21 14.5 36t37.5 15q26 0 42.5 -20.5t16.5 -64.5q0 -56 -26 -85.5t-68 -29.5h-17v40h7z" />
    <glyph glyph-name="quotesinglbase" unicode="&#x201a;" horiz-adv-x="198" 
d="M50 -66q33 0 44.5 13t10.5 44q-28 -1 -45 14t-17 38q0 21 14.5 36t37.5 15q26 0 42.5 -20.5t16.5 -64.5q0 -56 -26 -85.5t-68 -29.5h-17v40h7z" />
    <glyph glyph-name="quotedblleft" unicode="&#x201c;" horiz-adv-x="339" 
d="M98 651.5q-12 -13.5 -11 -43.5q29 1 45.5 -14t16.5 -38q0 -22 -14 -36.5t-37 -14.5q-26 0 -43 20.5t-17 64.5q0 56 26 85.5t68 29.5h17v-40h-7q-32 0 -44 -13.5zM244 651.5q-12 -13.5 -11 -43.5q29 1 45.5 -14t16.5 -38q0 -22 -14 -36.5t-37 -14.5q-26 0 -43 20.5
t-17 64.5q0 56 26 85.5t68 29.5h17v-40h-7q-32 0 -44 -13.5z" />
    <glyph glyph-name="quotedblright" unicode="&#x201d;" horiz-adv-x="339" 
d="M196 549q33 0 44.5 13t10.5 44q-28 -1 -45 14t-17 38q0 21 14.5 36t37.5 15q26 0 42.5 -20.5t16.5 -64.5q0 -56 -26 -85.5t-68 -29.5h-17v40h7zM50 549q33 0 44.5 13t10.5 44q-28 -1 -45 14t-17 38q0 21 14.5 36t37.5 15q26 0 42.5 -20.5t16.5 -64.5q0 -56 -26 -85.5
t-68 -29.5h-17v40h7z" />
    <glyph glyph-name="quotedblbase" unicode="&#x201e;" horiz-adv-x="344" 
d="M196 -66q33 0 44.5 13t10.5 44q-28 -1 -45 14t-17 38q0 21 14.5 36t37.5 15q26 0 42.5 -20.5t16.5 -64.5q0 -56 -26 -85.5t-68 -29.5h-17v40h7zM50 -66q33 0 44.5 13t10.5 44q-28 -1 -45 14t-17 38q0 21 14.5 36t37.5 15q26 0 42.5 -20.5t16.5 -64.5q0 -56 -26 -85.5
t-68 -29.5h-17v40h7z" />
    <glyph glyph-name="dagger" unicode="&#x2020;" horiz-adv-x="327" 
d="M277 582v-55h-84v-256h-58v256h-85v55h85v118h58v-118h84z" />
    <glyph glyph-name="daggerdbl" unicode="&#x2021;" horiz-adv-x="327" 
d="M277 491h-84v-282h84v-55h-84v-154h-58v154h-85v55h85v282h-85v55h85v154h58v-154h84v-55z" />
    <glyph glyph-name="bullet" unicode="&#x2022;" horiz-adv-x="259" 
d="M73 207.5q-23 23.5 -23 56.5t23.5 56t56.5 23q32 0 55.5 -23.5t23.5 -55.5q0 -33 -23.5 -56.5t-55.5 -23.5q-34 0 -57 23.5z" />
    <glyph glyph-name="ellipsis" unicode="&#x2026;" horiz-adv-x="589" 
d="M257.5 5q-15.5 15 -15.5 37q0 21 15.5 36.5t36.5 15.5q22 0 37.5 -15.5t15.5 -36.5q0 -22 -15.5 -37t-37.5 -15q-21 0 -36.5 15zM456.5 5q-15.5 15 -15.5 37q0 21 15.5 36.5t36.5 15.5q22 0 37.5 -15.5t15.5 -36.5q0 -22 -15.5 -37t-37.5 -15q-21 0 -36.5 15zM58.5 5
q-15.5 15 -15.5 37q0 21 15.5 36.5t36.5 15.5q22 0 37.5 -15.5t15.5 -36.5q0 -22 -15.5 -37t-37.5 -15q-21 0 -36.5 15z" />
    <glyph glyph-name="perthousand" unicode="&#x2030;" horiz-adv-x="1038" 
d="M80 443q-37 40 -37 112q0 70 37 110.5t96 40.5t96.5 -40.5t37.5 -110.5q0 -72 -37.5 -112t-96.5 -40t-96 40zM233.5 479.5q21.5 25.5 21.5 75.5q0 49 -21.5 74.5t-57.5 25.5q-35 0 -56.5 -25.5t-21.5 -74.5q0 -50 21.5 -75.5t56.5 -25.5q36 0 57.5 25.5zM621 572l31 -44
l-550 -403l-31 44zM449.5 31q-37.5 40 -37.5 112q0 71 37.5 111.5t96.5 40.5t96 -40.5t37 -111.5q0 -72 -37 -112t-96 -40t-96.5 40zM765 31q-37 40 -37 112q0 71 37 111.5t96 40.5t96 -40.5t37 -111.5q0 -72 -37 -112t-96 -40t-96 40zM602.5 68q21.5 25 21.5 75
q0 49 -21.5 74.5t-56.5 25.5q-36 0 -57.5 -25.5t-21.5 -74.5q0 -50 21.5 -75t57.5 -25q35 0 56.5 25zM918.5 68q21.5 25 21.5 75q0 49 -21.5 74.5t-57.5 25.5t-57 -25.5t-21 -74.5q0 -50 21 -75t57 -25t57.5 25z" />
    <glyph glyph-name="guilsinglleft" unicode="&#x2039;" horiz-adv-x="224" 
d="M40 270v56l144 124v-70l-94 -82l94 -82v-70z" />
    <glyph glyph-name="guilsinglright" unicode="&#x203a;" horiz-adv-x="207" 
d="M28 146v70l94 82l-94 82v70l144 -124v-56z" />
    <glyph glyph-name="fraction" unicode="&#x2044;" horiz-adv-x="149" 
d="M273 700h40l-436 -700h-41z" />
    <glyph glyph-name="Euro" unicode="&#x20ac;" horiz-adv-x="703" 
d="M530 91.5q52 37.5 71 107.5h72q-18 -102 -90 -155.5t-181 -53.5q-123 0 -205.5 71.5t-102.5 205.5h-59v42h54q-1 13 -1 41v21h-53v43h56q16 143 99.5 219t211.5 76q109 0 181 -53.5t90 -154.5h-72q-19 69 -70.5 106.5t-128.5 37.5q-96 0 -158.5 -59.5t-76.5 -171.5h193
v-43h-197v-21q0 -15 2 -41h195v-42h-190q18 -103 78.5 -158t153.5 -55q76 0 128 37.5z" />
    <glyph glyph-name="trademark" unicode="&#x2122;" horiz-adv-x="490" 
d="M104 668h-64v32h165v-32h-64v-148h-37v148zM240 700h39l66 -144l66 144h39v-180h-37v115l-53 -115h-30l-53 115v-115h-37v180z" />
    <glyph glyph-name="partialdiff" unicode="&#x2202;" horiz-adv-x="579" 
d="M477.5 604.5q58.5 -104.5 58.5 -264.5q0 -175 -65.5 -262.5t-183.5 -87.5q-69 0 -123 29.5t-85 85t-31 128.5q0 72 29 125t80.5 81t116.5 28t117 -28.5t78 -82.5q-2 295 -188 295q-65 0 -103 -33.5t-43 -83.5h-63q1 45 24.5 85t70.5 65t114 25q138 0 196.5 -104.5z
M410 101q47 52 47 133q0 80 -47 128t-124 48q-78 0 -124 -48t-46 -128q0 -82 46.5 -133.5t123.5 -51.5t124 52z" />
    <glyph glyph-name="product" unicode="&#x220f;" horiz-adv-x="669" 
d="M45 800h579v-990h-67v926h-445v-926h-67v990z" />
    <glyph glyph-name="summation" unicode="&#x2211;" horiz-adv-x="659" 
d="M320 305l-275 495h569v-66h-455l239 -429l-239 -429h455v-66h-569z" />
    <glyph glyph-name="minus" unicode="&#x2212;" horiz-adv-x="410" 
d="M351 289v-56h-292v56h292z" />
    <glyph glyph-name="radical" unicode="&#x221a;" horiz-adv-x="729" 
d="M155 273h-110v74h156l167 -438l247 891h69l-274 -990h-75z" />
    <glyph glyph-name="infinity" unicode="&#x221e;" horiz-adv-x="804" 
d="M127 116.5q-39 21.5 -61.5 59.5t-22.5 86q0 47 22.5 84.5t61.5 58.5t86 21q53 0 99 -30.5t90 -85.5q44 55 90.5 85.5t99.5 30.5q47 0 85 -21t60.5 -58.5t22.5 -84.5q0 -48 -22 -86t-60.5 -59.5t-85.5 -21.5q-54 0 -100.5 31t-89.5 87q-43 -56 -89.5 -87t-99.5 -31
q-47 0 -86 21.5zM294.5 182.5q35.5 29.5 69.5 79.5q-34 49 -69.5 78t-77.5 29q-48 0 -78 -30.5t-30 -76.5q0 -47 30 -78t78 -31q42 0 77.5 29.5zM664.5 184q29.5 31 29.5 78q0 46 -29.5 76.5t-77.5 30.5q-42 0 -77.5 -29t-69.5 -78q34 -50 69.5 -79.5t77.5 -29.5
q48 0 77.5 31z" />
    <glyph glyph-name="integral" unicode="&#x222b;" horiz-adv-x="295" 
d="M89 -103q22 25 22 82v565q0 88 39.5 124.5t119.5 36.5v-63q-44 0 -66 -24t-22 -82v-565q0 -89 -42 -125t-117 -36v62q44 0 66 25z" />
    <glyph glyph-name="approxequal" unicode="&#x2248;" horiz-adv-x="505" 
d="M296.5 144.5q-22.5 11.5 -52.5 34.5q-25 20 -43 30t-40 10q-29 0 -43.5 -17.5t-14.5 -39.5h-45q-1 47 28 74.5t71 27.5q29 0 51 -11.5t52 -34.5q27 -20 44.5 -30t39.5 -10q29 0 43 17.5t14 39.5h45q1 -47 -27 -74.5t-71 -27.5q-29 0 -51.5 11.5zM296.5 304.5
q-22.5 11.5 -52.5 34.5q-25 20 -43 30t-40 10q-29 0 -43.5 -17.5t-14.5 -39.5h-45q-1 47 28 74.5t71 27.5q29 0 51 -11.5t52 -34.5q27 -20 44.5 -30t39.5 -10q29 0 43 17.5t14 39.5h45q1 -47 -27 -74.5t-71 -27.5q-29 0 -51.5 11.5z" />
    <glyph glyph-name="notequal" unicode="&#x2260;" horiz-adv-x="410" 
d="M351 332h-102l-41 -104h143v-56h-165l-67 -172h-48l67 172h-79v56h101l41 104h-142v56h164l68 173h48l-68 -173h80v-56z" />
    <glyph glyph-name="lessequal" unicode="&#x2264;" horiz-adv-x="444" 
d="M50 344v62l343 188v-64l-291 -155l291 -154v-64zM50 56h344v-56h-344v56z" />
    <glyph glyph-name="greaterequal" unicode="&#x2265;" horiz-adv-x="444" 
d="M51 221l291 154l-291 155v64l343 -188v-62l-343 -187v64zM50 56h344v-56h-344v56z" />
    <glyph glyph-name="lozenge" unicode="&#x25ca;" horiz-adv-x="494" 
d="M294 700l155 -350l-155 -350h-94l-155 350l155 350h94zM247 59l129 291l-129 291l-129 -291z" />
    <glyph glyph-name="G.ss01" horiz-adv-x="690" 
d="M190.5 31q-68.5 41 -108 122t-39.5 197t41 197t113.5 121.5t166.5 40.5q101 0 168 -46.5t90 -136.5h-75q-41 119 -183 119q-113 0 -179.5 -76t-66.5 -219q0 -95 31.5 -161.5t86.5 -100t125 -34.5q61 0 109.5 25t75.5 69.5t27 102.5v44h-184v60h253v-355h-68v116
q-33 -62 -91 -94t-136 -32q-88 0 -156.5 41z" />
    <glyph glyph-name="R.ss01" horiz-adv-x="617" 
d="M556.5 25.5q2.5 -14.5 7.5 -25.5h-72q-6 11 -8 25t-2 49v101q0 116 -141 116h-209v-291h-74v700h270q115 0 173.5 -52t58.5 -144q0 -66 -30.5 -112t-88.5 -65q55 -15 84 -51t29 -101v-101q0 -34 2.5 -48.5zM445 388.5q41 37.5 41 107.5q0 139 -162 139h-192v-284h192
q80 0 121 37.5z" />
    <glyph glyph-name="G.ss05" horiz-adv-x="690" 
d="M190.5 31q-68.5 41 -108 122t-39.5 197t41 197t113.5 121.5t166.5 40.5q101 0 168 -46.5t90 -136.5h-75q-41 119 -183 119q-113 0 -179.5 -76t-66.5 -219q0 -95 31.5 -161.5t86.5 -100t125 -34.5q61 0 109.5 25t75.5 69.5t27 102.5v44h-184v60h253v-355h-68v116
q-33 -62 -91 -94t-136 -32q-88 0 -156.5 41z" />
    <glyph glyph-name="i.loclTRK" horiz-adv-x="166" 
d="M47 520h71v-520h-71v520zM51 642.5q-14 13.5 -14 32.5t14 32.5t32 13.5q19 0 33 -13.5t14 -32.5t-14 -32.5t-33 -13.5q-18 0 -32 13.5z" />
    <glyph glyph-name="a.ss01" 
d="M527 520v-520h-71v88q-28 -47 -78 -72.5t-110 -25.5q-63 0 -116.5 29.5t-86 90.5t-32.5 150t32.5 150t86 90.5t116.5 29.5q60 0 110 -25.5t78 -72.5v88h71zM368.5 74q41.5 23 66.5 70.5t25 115.5t-25 115.5t-66.5 70.5t-88.5 23q-48 0 -88.5 -23t-65.5 -70.5t-25 -115.5
t25 -115.5t65.5 -70.5t88.5 -23q47 0 88.5 23z" />
    <glyph glyph-name="aacute.ss01" 
d="M527 520v-520h-71v88q-28 -47 -78 -72.5t-110 -25.5q-63 0 -116.5 29.5t-86 90.5t-32.5 150t32.5 150t86 90.5t116.5 29.5q60 0 110 -25.5t78 -72.5v88h71zM368.5 74q41.5 23 66.5 70.5t25 115.5t-25 115.5t-66.5 70.5t-88.5 23q-48 0 -88.5 -23t-65.5 -70.5t-25 -115.5
t25 -115.5t65.5 -70.5t88.5 -23q47 0 88.5 23zM338 712h69l-98 -130h-68z" />
    <glyph glyph-name="abreve.ss01" 
d="M527 520v-520h-71v88q-28 -47 -78 -72.5t-110 -25.5q-63 0 -116.5 29.5t-86 90.5t-32.5 150t32.5 150t86 90.5t116.5 29.5q60 0 110 -25.5t78 -72.5v88h71zM368.5 74q41.5 23 66.5 70.5t25 115.5t-25 115.5t-66.5 70.5t-88.5 23q-48 0 -88.5 -23t-65.5 -70.5t-25 -115.5
t25 -115.5t65.5 -70.5t88.5 -23q47 0 88.5 23zM187 622.5q-34 35.5 -34 89.5h52q3 -76 87 -76q82 0 87 76h52q0 -54 -34 -89.5t-105 -35.5t-105 35.5z" />
    <glyph glyph-name="uni01CE.ss01" 
d="M527 520v-520h-71v88q-28 -47 -78 -72.5t-110 -25.5q-63 0 -116.5 29.5t-86 90.5t-32.5 150t32.5 150t86 90.5t116.5 29.5q60 0 110 -25.5t78 -72.5v88h71zM368.5 74q41.5 23 66.5 70.5t25 115.5t-25 115.5t-66.5 70.5t-88.5 23q-48 0 -88.5 -23t-65.5 -70.5t-25 -115.5
t25 -115.5t65.5 -70.5t88.5 -23q47 0 88.5 23zM137 712h72l78 -104l79 104h72l-98 -128h-105z" />
    <glyph glyph-name="acircumflex.ss01" 
d="M527 520v-520h-71v88q-28 -47 -78 -72.5t-110 -25.5q-63 0 -116.5 29.5t-86 90.5t-32.5 150t32.5 150t86 90.5t116.5 29.5q60 0 110 -25.5t78 -72.5v88h71zM368.5 74q41.5 23 66.5 70.5t25 115.5t-25 115.5t-66.5 70.5t-88.5 23q-48 0 -88.5 -23t-65.5 -70.5t-25 -115.5
t25 -115.5t65.5 -70.5t88.5 -23q47 0 88.5 23zM239 712h105l98 -128h-72l-79 104l-78 -104h-72z" />
    <glyph glyph-name="adieresis.ss01" 
d="M527 520v-520h-71v88q-28 -47 -78 -72.5t-110 -25.5q-63 0 -116.5 29.5t-86 90.5t-32.5 150t32.5 150t86 90.5t116.5 29.5q60 0 110 -25.5t78 -72.5v88h71zM368.5 74q41.5 23 66.5 70.5t25 115.5t-25 115.5t-66.5 70.5t-88.5 23q-48 0 -88.5 -23t-65.5 -70.5t-25 -115.5
t25 -115.5t65.5 -70.5t88.5 -23q47 0 88.5 23zM168 642.5q-14 13.5 -14 32.5t14 32.5t32 13.5q19 0 33 -13.5t14 -32.5t-14 -32.5t-33 -13.5q-18 0 -32 13.5zM350 642.5q-14 13.5 -14 32.5t14 32.5t33 13.5q18 0 32 -13.5t14 -32.5t-14 -32.5t-32 -13.5q-19 0 -33 13.5z" />
    <glyph glyph-name="agrave.ss01" 
d="M527 520v-520h-71v88q-28 -47 -78 -72.5t-110 -25.5q-63 0 -116.5 29.5t-86 90.5t-32.5 150t32.5 150t86 90.5t116.5 29.5q60 0 110 -25.5t78 -72.5v88h71zM368.5 74q41.5 23 66.5 70.5t25 115.5t-25 115.5t-66.5 70.5t-88.5 23q-48 0 -88.5 -23t-65.5 -70.5t-25 -115.5
t25 -115.5t65.5 -70.5t88.5 -23q47 0 88.5 23zM272 582l-97 130h68l97 -130h-68z" />
    <glyph glyph-name="amacron.ss01" 
d="M527 520v-520h-71v88q-28 -47 -78 -72.5t-110 -25.5q-63 0 -116.5 29.5t-86 90.5t-32.5 150t32.5 150t86 90.5t116.5 29.5q60 0 110 -25.5t78 -72.5v88h71zM368.5 74q41.5 23 66.5 70.5t25 115.5t-25 115.5t-66.5 70.5t-88.5 23q-48 0 -88.5 -23t-65.5 -70.5t-25 -115.5
t25 -115.5t65.5 -70.5t88.5 -23q47 0 88.5 23zM147 712h291v-46h-291v46z" />
    <glyph glyph-name="aogonek.ss01" 
d="M430 -126.5q19 -16.5 50 -16.5q6 0 20 2v-43q-20 -4 -32 -4q-46 0 -79.5 26t-33.5 73q0 44 29 73.5t72 37.5v66q-28 -47 -78 -72.5t-110 -25.5q-63 0 -116.5 29.5t-86 90.5t-32.5 150t32.5 150t86 90.5t116.5 29.5q60 0 110 -25.5t78 -72.5v88h71v-519l1 -1
q-58 0 -87.5 -23t-29.5 -59q0 -28 19 -44.5zM368.5 74q41.5 23 66.5 70.5t25 115.5t-25 115.5t-66.5 70.5t-88.5 23q-48 0 -88.5 -23t-65.5 -70.5t-25 -115.5t25 -115.5t65.5 -70.5t88.5 -23q47 0 88.5 23z" />
    <glyph glyph-name="aring.ss01" 
d="M527 520v-520h-71v88q-28 -47 -78 -72.5t-110 -25.5q-63 0 -116.5 29.5t-86 90.5t-32.5 150t32.5 150t86 90.5t116.5 29.5q60 0 110 -25.5t78 -72.5v88h71zM368.5 74q41.5 23 66.5 70.5t25 115.5t-25 115.5t-66.5 70.5t-88.5 23q-48 0 -88.5 -23t-65.5 -70.5t-25 -115.5
t25 -115.5t65.5 -70.5t88.5 -23q47 0 88.5 23zM232 591.5q-25 24.5 -25 59.5t24.5 59t61.5 24t61.5 -24t24.5 -59t-25 -59.5t-61 -24.5t-61 24.5zM326.5 617.5q13.5 13.5 13.5 33.5t-13.5 33.5t-33.5 13.5q-19 0 -33 -13.5t-14 -33.5t13.5 -33.5t33.5 -13.5t33.5 13.5z" />
    <glyph glyph-name="atilde.ss01" 
d="M527 520v-520h-71v88q-28 -47 -78 -72.5t-110 -25.5q-63 0 -116.5 29.5t-86 90.5t-32.5 150t32.5 150t86 90.5t116.5 29.5q60 0 110 -25.5t78 -72.5v88h71zM368.5 74q41.5 23 66.5 70.5t25 115.5t-25 115.5t-66.5 70.5t-88.5 23q-48 0 -88.5 -23t-65.5 -70.5t-25 -115.5
t25 -115.5t65.5 -70.5t88.5 -23q47 0 88.5 23zM327 616q-19 10 -44 30q-22 17 -36.5 25t-32.5 8q-24 0 -36 -15.5t-11 -33.5h-43q0 45 23.5 68.5t61.5 23.5q26 0 45.5 -10t43.5 -29q22 -17 36.5 -25t32.5 -8q24 0 36 15t11 34h43q0 -45 -23.5 -69t-61.5 -24q-26 0 -45 10z
" />
    <glyph glyph-name="g.ss01" horiz-adv-x="525" 
d="M424 91.5q66 -40.5 66 -124.5q0 -85 -67 -126t-162 -41t-161.5 40.5t-66.5 122.5q0 52 28 86t73 50q-36 0 -62.5 21t-26.5 56q0 27 17.5 46.5t47.5 24.5q-41 44 -41 112q0 78 53 122.5t136 44.5q86 0 138 -47q26 42 84 41v-54q-38 0 -56 -20q22 -38 22 -87
q0 -79 -52.5 -123.5t-135.5 -44.5q-63 0 -109 26q-23 -1 -34.5 -12t-11.5 -27q0 -24 23 -35t71 -11h67q94 0 160 -40.5zM163.5 441q-33.5 -31 -33.5 -82q0 -52 33.5 -83t94.5 -31t94.5 31t33.5 83q0 51 -33.5 82t-94.5 31t-94.5 -31zM376.5 -117.5q44.5 27.5 44.5 85.5
q0 56 -44 84t-115 28q-72 0 -115.5 -27.5t-43.5 -84.5t43.5 -85t114.5 -28t115.5 27.5z" />
    <glyph glyph-name="i.ss01" horiz-adv-x="188" 
d="M58 709h71v-70h-71v70zM58 520h71v-520h-71v520z" />
    <glyph glyph-name="l.ss01" horiz-adv-x="198" 
d="M146 -4q-45 0 -66.5 22t-21.5 72v615h71v-615q0 -20 11 -29.5t36 -8.5v-54q-22 -2 -30 -2z" />
    <glyph glyph-name="a.ss02" 
d="M527 520v-520h-71v88q-28 -47 -78 -72.5t-110 -25.5q-63 0 -116.5 29.5t-86 90.5t-32.5 150t32.5 150t86 90.5t116.5 29.5q60 0 110 -25.5t78 -72.5v88h71zM368.5 74q41.5 23 66.5 70.5t25 115.5t-25 115.5t-66.5 70.5t-88.5 23q-48 0 -88.5 -23t-65.5 -70.5t-25 -115.5
t25 -115.5t65.5 -70.5t88.5 -23q47 0 88.5 23z" />
    <glyph glyph-name="aacute.ss02" 
d="M527 520v-520h-71v88q-28 -47 -78 -72.5t-110 -25.5q-63 0 -116.5 29.5t-86 90.5t-32.5 150t32.5 150t86 90.5t116.5 29.5q60 0 110 -25.5t78 -72.5v88h71zM368.5 74q41.5 23 66.5 70.5t25 115.5t-25 115.5t-66.5 70.5t-88.5 23q-48 0 -88.5 -23t-65.5 -70.5t-25 -115.5
t25 -115.5t65.5 -70.5t88.5 -23q47 0 88.5 23zM338 712h69l-98 -130h-68z" />
    <glyph glyph-name="abreve.ss02" 
d="M527 520v-520h-71v88q-28 -47 -78 -72.5t-110 -25.5q-63 0 -116.5 29.5t-86 90.5t-32.5 150t32.5 150t86 90.5t116.5 29.5q60 0 110 -25.5t78 -72.5v88h71zM368.5 74q41.5 23 66.5 70.5t25 115.5t-25 115.5t-66.5 70.5t-88.5 23q-48 0 -88.5 -23t-65.5 -70.5t-25 -115.5
t25 -115.5t65.5 -70.5t88.5 -23q47 0 88.5 23zM187 622.5q-34 35.5 -34 89.5h52q3 -76 87 -76q82 0 87 76h52q0 -54 -34 -89.5t-105 -35.5t-105 35.5z" />
    <glyph glyph-name="uni01CE.ss02" 
d="M527 520v-520h-71v88q-28 -47 -78 -72.5t-110 -25.5q-63 0 -116.5 29.5t-86 90.5t-32.5 150t32.5 150t86 90.5t116.5 29.5q60 0 110 -25.5t78 -72.5v88h71zM368.5 74q41.5 23 66.5 70.5t25 115.5t-25 115.5t-66.5 70.5t-88.5 23q-48 0 -88.5 -23t-65.5 -70.5t-25 -115.5
t25 -115.5t65.5 -70.5t88.5 -23q47 0 88.5 23zM137 712h72l78 -104l79 104h72l-98 -128h-105z" />
    <glyph glyph-name="acircumflex.ss02" 
d="M527 520v-520h-71v88q-28 -47 -78 -72.5t-110 -25.5q-63 0 -116.5 29.5t-86 90.5t-32.5 150t32.5 150t86 90.5t116.5 29.5q60 0 110 -25.5t78 -72.5v88h71zM368.5 74q41.5 23 66.5 70.5t25 115.5t-25 115.5t-66.5 70.5t-88.5 23q-48 0 -88.5 -23t-65.5 -70.5t-25 -115.5
t25 -115.5t65.5 -70.5t88.5 -23q47 0 88.5 23zM239 712h105l98 -128h-72l-79 104l-78 -104h-72z" />
    <glyph glyph-name="adieresis.ss02" 
d="M527 520v-520h-71v88q-28 -47 -78 -72.5t-110 -25.5q-63 0 -116.5 29.5t-86 90.5t-32.5 150t32.5 150t86 90.5t116.5 29.5q60 0 110 -25.5t78 -72.5v88h71zM368.5 74q41.5 23 66.5 70.5t25 115.5t-25 115.5t-66.5 70.5t-88.5 23q-48 0 -88.5 -23t-65.5 -70.5t-25 -115.5
t25 -115.5t65.5 -70.5t88.5 -23q47 0 88.5 23zM168 642.5q-14 13.5 -14 32.5t14 32.5t32 13.5q19 0 33 -13.5t14 -32.5t-14 -32.5t-33 -13.5q-18 0 -32 13.5zM350 642.5q-14 13.5 -14 32.5t14 32.5t33 13.5q18 0 32 -13.5t14 -32.5t-14 -32.5t-32 -13.5q-19 0 -33 13.5z" />
    <glyph glyph-name="agrave.ss02" 
d="M527 520v-520h-71v88q-28 -47 -78 -72.5t-110 -25.5q-63 0 -116.5 29.5t-86 90.5t-32.5 150t32.5 150t86 90.5t116.5 29.5q60 0 110 -25.5t78 -72.5v88h71zM368.5 74q41.5 23 66.5 70.5t25 115.5t-25 115.5t-66.5 70.5t-88.5 23q-48 0 -88.5 -23t-65.5 -70.5t-25 -115.5
t25 -115.5t65.5 -70.5t88.5 -23q47 0 88.5 23zM272 582l-97 130h68l97 -130h-68z" />
    <glyph glyph-name="amacron.ss02" 
d="M527 520v-520h-71v88q-28 -47 -78 -72.5t-110 -25.5q-63 0 -116.5 29.5t-86 90.5t-32.5 150t32.5 150t86 90.5t116.5 29.5q60 0 110 -25.5t78 -72.5v88h71zM368.5 74q41.5 23 66.5 70.5t25 115.5t-25 115.5t-66.5 70.5t-88.5 23q-48 0 -88.5 -23t-65.5 -70.5t-25 -115.5
t25 -115.5t65.5 -70.5t88.5 -23q47 0 88.5 23zM147 712h291v-46h-291v46z" />
    <glyph glyph-name="aogonek.ss02" 
d="M430 -126.5q19 -16.5 50 -16.5q6 0 20 2v-43q-20 -4 -32 -4q-46 0 -79.5 26t-33.5 73q0 44 29 73.5t72 37.5v66q-28 -47 -78 -72.5t-110 -25.5q-63 0 -116.5 29.5t-86 90.5t-32.5 150t32.5 150t86 90.5t116.5 29.5q60 0 110 -25.5t78 -72.5v88h71v-519l1 -1
q-58 0 -87.5 -23t-29.5 -59q0 -28 19 -44.5zM368.5 74q41.5 23 66.5 70.5t25 115.5t-25 115.5t-66.5 70.5t-88.5 23q-48 0 -88.5 -23t-65.5 -70.5t-25 -115.5t25 -115.5t65.5 -70.5t88.5 -23q47 0 88.5 23z" />
    <glyph glyph-name="aring.ss02" 
d="M527 520v-520h-71v88q-28 -47 -78 -72.5t-110 -25.5q-63 0 -116.5 29.5t-86 90.5t-32.5 150t32.5 150t86 90.5t116.5 29.5q60 0 110 -25.5t78 -72.5v88h71zM368.5 74q41.5 23 66.5 70.5t25 115.5t-25 115.5t-66.5 70.5t-88.5 23q-48 0 -88.5 -23t-65.5 -70.5t-25 -115.5
t25 -115.5t65.5 -70.5t88.5 -23q47 0 88.5 23zM232 591.5q-25 24.5 -25 59.5t24.5 59t61.5 24t61.5 -24t24.5 -59t-25 -59.5t-61 -24.5t-61 24.5zM326.5 617.5q13.5 13.5 13.5 33.5t-13.5 33.5t-33.5 13.5q-19 0 -33 -13.5t-14 -33.5t13.5 -33.5t33.5 -13.5t33.5 13.5z" />
    <glyph glyph-name="atilde.ss02" 
d="M527 520v-520h-71v88q-28 -47 -78 -72.5t-110 -25.5q-63 0 -116.5 29.5t-86 90.5t-32.5 150t32.5 150t86 90.5t116.5 29.5q60 0 110 -25.5t78 -72.5v88h71zM368.5 74q41.5 23 66.5 70.5t25 115.5t-25 115.5t-66.5 70.5t-88.5 23q-48 0 -88.5 -23t-65.5 -70.5t-25 -115.5
t25 -115.5t65.5 -70.5t88.5 -23q47 0 88.5 23zM327 616q-19 10 -44 30q-22 17 -36.5 25t-32.5 8q-24 0 -36 -15.5t-11 -33.5h-43q0 45 23.5 68.5t61.5 23.5q26 0 45.5 -10t43.5 -29q22 -17 36.5 -25t32.5 -8q24 0 36 15t11 34h43q0 -45 -23.5 -69t-61.5 -24q-26 0 -45 10z
" />
    <glyph glyph-name="a.ss03" horiz-adv-x="526" 
d="M502 43v-44q-9 -5 -28 -5q-32 0 -50.5 15t-18.5 44v37h-3q-9 -18 -32.5 -41t-66 -41t-100.5 -18q-78 0 -124 35.5t-46 104.5q0 64 43.5 99t131.5 47l114 15q79 11 79 34v28q0 66 -33.5 94t-101.5 28q-67 0 -100 -25t-33 -76v-11h-68v16q0 76 53 113.5t151 37.5
q103 0 153 -42t50 -135v-278q0 -33 30 -32zM401 268q-3 -19 -73 -28l-105 -15q-66 -9 -92.5 -31.5t-26.5 -59.5q0 -45 30.5 -66t81.5 -21q59 0 101 24t63 56t21 55v86z" />
    <glyph glyph-name="g.ss03" horiz-adv-x="525" 
d="M424 91.5q66 -40.5 66 -124.5q0 -85 -67 -126t-162 -41t-161.5 40.5t-66.5 122.5q0 52 28 86t73 50q-36 0 -62.5 21t-26.5 56q0 27 17.5 46.5t47.5 24.5q-41 44 -41 112q0 78 53 122.5t136 44.5q86 0 138 -47q26 42 84 41v-54q-38 0 -56 -20q22 -38 22 -87
q0 -79 -52.5 -123.5t-135.5 -44.5q-63 0 -109 26q-23 -1 -34.5 -12t-11.5 -27q0 -24 23 -35t71 -11h67q94 0 160 -40.5zM163.5 441q-33.5 -31 -33.5 -82q0 -52 33.5 -83t94.5 -31t94.5 31t33.5 83q0 51 -33.5 82t-94.5 31t-94.5 -31zM376.5 -117.5q44.5 27.5 44.5 85.5
q0 56 -44 84t-115 28q-72 0 -115.5 -27.5t-43.5 -84.5t43.5 -85t114.5 -28t115.5 27.5z" />
    <glyph glyph-name="l.ss04" horiz-adv-x="198" 
d="M146 -4q-45 0 -66.5 22t-21.5 72v615h71v-615q0 -20 11 -29.5t36 -8.5v-54q-22 -2 -30 -2z" />
    <glyph glyph-name="f_t" horiz-adv-x="636" 
d="M608 52v-56q-18 -3 -53 -3q-130 0 -130 124v346h-259v-463h-71v463h-72v57h72v73q0 123 130 123h53v-57h-35q-42 0 -59.5 -17.5t-17.5 -60.5v-61h259v129h71v-129h104v-57h-104v-332q0 -43 18 -61t61 -18h33z" />
    <glyph glyph-name="r_t" horiz-adv-x="623" 
d="M595 52v-56q-18 -3 -53 -3q-130 0 -130 124v346h-92q-92 0 -141.5 -49t-49.5 -134v-280h-71v520h71v-133h1q12 55 60.5 94t134.5 39h87v129h71v-129h104v-57h-104v-332q0 -43 18 -61t61 -18h33z" />
    <glyph glyph-name="zero.dnom" horiz-adv-x="281" 
d="M64 33q-29 35 -29 91v13q0 56 29 91t77 35q47 0 76 -35t29 -91v-13q0 -56 -29 -91t-76 -35q-48 0 -77 35zM193.5 53.5q20.5 25.5 20.5 70.5v13q0 45 -20.5 70.5t-52.5 25.5t-53 -25.5t-21 -70.5v-13q0 -45 21 -70.5t53 -25.5t52.5 25.5z" />
    <glyph glyph-name="one.dnom" horiz-adv-x="169" 
d="M72 199q-14 -6 -32 -4v30q17 -1 32 10t21 26h31v-261h-31v217q-7 -12 -21 -18z" />
    <glyph glyph-name="two.dnom" horiz-adv-x="252" 
d="M57 72.5q17 27.5 57 53.5q34 20 45.5 31.5t11.5 33.5q0 20 -13.5 32t-35.5 12q-23 0 -36 -13.5t-13 -37.5v-6h-33v6q0 37 22 59t60 22t60 -21t22 -53q0 -29 -18.5 -48.5t-55.5 -41.5q-27 -16 -41 -34t-14 -34v-3h132v-30h-167v9q0 36 17 63.5z" />
    <glyph glyph-name="three.dnom" horiz-adv-x="267" 
d="M64.5 19q-24.5 23 -24.5 62h31q1 -28 18 -42.5t46 -14.5q27 0 44 13t17 37q0 25 -18 37.5t-49 12.5h-11v25h11q27 0 41.5 13.5t14.5 32.5t-13.5 30.5t-37.5 11.5q-26 0 -40.5 -13.5t-14.5 -40.5h-30q0 39 23 60.5t62 21.5q38 0 59.5 -19.5t21.5 -49.5q0 -22 -13 -37
t-33 -20q23 -4 40.5 -20.5t17.5 -45.5q0 -34 -24.5 -55.5t-68.5 -21.5q-45 0 -69.5 23z" />
    <glyph glyph-name="four.dnom" horiz-adv-x="261" 
d="M159 66h-119v26l119 169h32v-169h30v-26h-30v-66h-32v66zM159 92v127l-89 -127h89z" />
    <glyph glyph-name="five.dnom" horiz-adv-x="244" 
d="M54.5 18.5q-24.5 23.5 -24.5 61.5h30q1 -24 17 -40.5t44 -16.5q29 0 45.5 17t16.5 46q0 32 -18 47t-41 15q-36 0 -57 -27h-31l22 140h133v-29h-110l-14 -83q7 9 23 17t39 8q35 0 60 -23.5t25 -64.5q0 -42 -25.5 -66.5t-68.5 -24.5q-41 0 -65.5 23.5z" />
    <glyph glyph-name="six.dnom" horiz-adv-x="267" 
d="M66.5 26.5q-26.5 31.5 -26.5 98.5q0 62 23 100.5t73 38.5q40 0 60.5 -21.5t22.5 -48.5h-28q-8 42 -55 42q-38 0 -51 -30t-14 -74q8 15 27 26.5t44 11.5q36 0 60.5 -21t24.5 -62q0 -46 -26 -69t-65 -23q-43 0 -69.5 31.5zM179 40q16 16 16 47q0 29 -16 43.5t-42 14.5
t-43.5 -15.5t-17.5 -41.5q0 -29 17 -46.5t44 -17.5q26 0 42 16z" />
    <glyph glyph-name="seven.dnom" horiz-adv-x="225" 
d="M165 232h-145v29h175v-29l-107 -232h-33z" />
    <glyph glyph-name="eight.dnom" horiz-adv-x="233" 
d="M50.5 18q-25.5 20 -25.5 56q0 47 47 69q-31 18 -31 55q0 27 19.5 46t55.5 19t56 -19t20 -46q0 -37 -31 -55q47 -22 47 -69q0 -36 -26 -56t-66 -20t-65.5 20zM150.5 166q13.5 12 13.5 32q0 17 -12 28.5t-36 11.5q-23 0 -35 -11.5t-12 -28.5q0 -20 13 -32t34 -12t34.5 12z
M161.5 37q17.5 13 17.5 37q0 26 -17.5 40t-45.5 14q-27 0 -44.5 -14t-17.5 -40q0 -24 17.5 -37t44.5 -13q28 0 45.5 13z" />
    <glyph glyph-name="nine.dnom" horiz-adv-x="267" 
d="M71 16.5q-21 21.5 -23 48.5h29q3 -18 16 -30t38 -12q38 0 51 29.5t15 74.5q-9 -15 -27.5 -26.5t-43.5 -11.5q-36 0 -61 21t-25 62q0 46 26 69t65 23q43 0 69.5 -31.5t26.5 -98.5q0 -62 -23 -100.5t-73 -38.5q-39 0 -60 21.5zM174.5 129.5q17.5 15.5 17.5 41.5
q0 29 -17.5 46.5t-44.5 17.5q-26 0 -42 -16t-16 -47q0 -29 16.5 -43.5t42.5 -14.5t43.5 15.5z" />
    <glyph glyph-name="zero.numr" horiz-adv-x="281" 
d="M64 473q-29 35 -29 91v13q0 56 29 91t77 35q47 0 76 -35t29 -91v-13q0 -56 -29 -91t-76 -35q-48 0 -77 35zM193.5 493.5q20.5 25.5 20.5 70.5v13q0 45 -20.5 70.5t-52.5 25.5t-53 -25.5t-21 -70.5v-13q0 -45 21 -70.5t53 -25.5t52.5 25.5z" />
    <glyph glyph-name="one.numr" horiz-adv-x="169" 
d="M72 638q-14 -6 -32 -4v30q17 -1 32 10t21 26h31v-261h-31v217q-7 -12 -21 -18z" />
    <glyph glyph-name="two.numr" horiz-adv-x="252" 
d="M57 512.5q17 27.5 57 53.5q34 20 45.5 31.5t11.5 33.5q0 20 -13.5 32t-35.5 12q-23 0 -36 -13.5t-13 -37.5v-6h-33v6q0 37 22 59t60 22t60 -21t22 -53q0 -29 -18.5 -48.5t-55.5 -41.5q-27 -16 -41 -34t-14 -34v-3h132v-30h-167v9q0 36 17 63.5z" />
    <glyph glyph-name="three.numr" horiz-adv-x="267" 
d="M64.5 459q-24.5 23 -24.5 62h31q1 -28 18 -42.5t46 -14.5q27 0 44 13t17 37q0 25 -18 37.5t-49 12.5h-11v25h11q27 0 41.5 13.5t14.5 32.5t-13.5 30.5t-37.5 11.5q-26 0 -40.5 -13.5t-14.5 -40.5h-30q0 39 23 60.5t62 21.5q38 0 59.5 -19.5t21.5 -49.5q0 -22 -13 -37
t-33 -20q23 -4 40.5 -20.5t17.5 -45.5q0 -34 -24.5 -55.5t-68.5 -21.5q-45 0 -69.5 23z" />
    <glyph glyph-name="four.numr" horiz-adv-x="261" 
d="M159 506h-119v26l119 169h32v-169h30v-26h-30v-66h-32v66zM159 532v127l-89 -127h89z" />
    <glyph glyph-name="five.numr" horiz-adv-x="244" 
d="M54.5 458.5q-24.5 23.5 -24.5 61.5h30q1 -24 17 -40.5t44 -16.5q29 0 45.5 17t16.5 46q0 32 -18 47t-41 15q-36 0 -57 -27h-31l22 140h133v-29h-110l-14 -83q7 9 23 17t39 8q35 0 60 -23.5t25 -64.5q0 -42 -25.5 -66.5t-68.5 -24.5q-41 0 -65.5 23.5z" />
    <glyph glyph-name="six.numr" horiz-adv-x="267" 
d="M66.5 465.5q-26.5 31.5 -26.5 98.5q0 62 23 100.5t73 38.5q40 0 60.5 -21.5t22.5 -48.5h-28q-8 42 -55 42q-38 0 -51 -30t-14 -74q8 15 27 26.5t44 11.5q36 0 60.5 -21t24.5 -62q0 -46 -26 -69t-65 -23q-43 0 -69.5 31.5zM179 479q16 16 16 47q0 29 -16 43.5t-42 14.5
t-43.5 -15.5t-17.5 -41.5q0 -29 17 -46.5t44 -17.5q26 0 42 16z" />
    <glyph glyph-name="seven.numr" horiz-adv-x="225" 
d="M165 672h-145v29h175v-29l-107 -232h-33z" />
    <glyph glyph-name="eight.numr" horiz-adv-x="233" 
d="M50.5 458q-25.5 20 -25.5 56q0 47 47 69q-31 18 -31 55q0 27 19.5 46t55.5 19t56 -19t20 -46q0 -37 -31 -55q47 -22 47 -69q0 -36 -26 -56t-66 -20t-65.5 20zM150.5 606q13.5 12 13.5 32q0 17 -12 28.5t-36 11.5q-23 0 -35 -11.5t-12 -28.5q0 -20 13 -32t34 -12t34.5 12z
M161.5 477q17.5 13 17.5 37q0 26 -17.5 40t-45.5 14q-27 0 -44.5 -14t-17.5 -40q0 -24 17.5 -37t44.5 -13q28 0 45.5 13z" />
    <glyph glyph-name="nine.numr" horiz-adv-x="267" 
d="M71 456.5q-21 21.5 -23 48.5h29q3 -18 16 -30t38 -12q38 0 51 29.5t15 74.5q-9 -15 -27.5 -26.5t-43.5 -11.5q-36 0 -61 21t-25 62q0 46 26 69t65 23q43 0 69.5 -31.5t26.5 -98.5q0 -62 -23 -100.5t-73 -38.5q-39 0 -60 21.5zM174.5 569.5q17.5 15.5 17.5 41.5
q0 29 -17.5 46.5t-44.5 17.5q-26 0 -42 -16t-16 -47q0 -29 16.5 -43.5t42.5 -14.5t43.5 15.5z" />
    <glyph glyph-name="period.ss01" horiz-adv-x="187" 
d="M50 93h87v-93h-87v93z" />
    <glyph glyph-name="Aacutecy" horiz-adv-x="674" 
d="M574 0l-68 181h-337l-68 -181h-78l270 700h89l269 -700h-77zM191 238h293l-144 382h-5zM383 892h69l-98 -130h-68z" />
    <glyph glyph-name="Ieacutecy" horiz-adv-x="542" 
d="M58 700h441v-65h-367v-245h337v-60h-337v-265h377v-65h-451v700zM324 892h69l-98 -130h-68z" />
    <glyph glyph-name="Iiacutecy" horiz-adv-x="658" 
d="M599 0h-73v587h-2l-380 -587h-86v700h74v-589h2l382 589h83v-700zM375 892h69l-98 -130h-68z" />
    <glyph glyph-name="Oacutecy" horiz-adv-x="717" 
d="M196.5 32q-71.5 42 -112.5 123t-41 195t41 195t112.5 122.5t162.5 41.5t162 -41.5t112 -122.5t41 -195t-41 -195t-112 -123t-162 -42t-162.5 42zM483.5 87.5q54.5 33.5 85 100t30.5 162.5q0 95 -30.5 161.5t-85 100t-124.5 33.5q-71 0 -125 -33.5t-85 -100t-31 -161.5
q0 -96 31 -162.5t85 -100t125 -33.5q70 0 124.5 33.5zM405 892h69l-98 -130h-68z" />
    <glyph glyph-name="Uacutecy" horiz-adv-x="559" 
d="M117 58q42 0 67 21t42 62q11 28 11 46q0 16 -8 35l-201 478h80l171 -424l172 424h80l-235 -563q-32 -76 -73.5 -111t-98.5 -35q-10 0 -30 2v67q16 -2 23 -2zM326 892h69l-98 -130h-68z" />
    <glyph glyph-name="Yeruacutecy" horiz-adv-x="761" 
d="M490.5 385q63.5 -58 63.5 -163q0 -106 -63.5 -164t-184.5 -58h-248v700h74v-257h174q121 0 184.5 -58zM433 106q43 40 43 116q0 75 -43 115t-125 40h-176v-311h176q82 0 125 40zM629 700h74v-700h-74v700zM428 892h69l-98 -130h-68z" />
    <glyph glyph-name="Ereversedacutecy" horiz-adv-x="661" 
d="M468.5 668q70.5 -41 110 -121.5t39.5 -196.5t-39.5 -197t-110 -122t-163.5 -41q-109 0 -181.5 53.5t-90.5 155.5h73q19 -70 70.5 -107.5t128.5 -37.5q106 0 170 71.5t69 204.5h-259v61h257q-9 123 -72 188.5t-165 65.5q-77 0 -128.5 -37.5t-70.5 -106.5h-73
q18 101 90.5 154.5t181.5 53.5q93 0 163.5 -41zM377 892h69l-98 -130h-68z" />
    <glyph glyph-name="Iuacutecy" horiz-adv-x="917" 
d="M720.5 667.5q71.5 -41.5 112.5 -122.5t41 -195t-41 -195t-112.5 -123t-162.5 -42q-85 0 -153.5 37t-111 109.5t-49.5 174.5h-112v-311h-74v700h74v-327h111q4 107 46 182.5t111.5 114.5t157.5 39q91 0 162.5 -41.5zM683 87.5q54 33.5 85 100t31 162.5q0 95 -31 161.5
t-85 100t-125 33.5q-70 0 -124.5 -33.5t-85.5 -100t-31 -161.5q0 -96 31 -162.5t85.5 -100t124.5 -33.5q71 0 125 33.5zM502 892h69l-98 -130h-68z" />
    <glyph glyph-name="Iaacutecy" horiz-adv-x="593" 
d="M534 700v-700h-73v274h-179h-12l-162 -274h-75l167 282q-79 18 -120 70.5t-41 133.5q0 101 62 157.5t181 56.5h252zM461 635h-176q-85 0 -128.5 -38t-43.5 -111q0 -71 44 -108.5t128 -37.5h176v295zM355 892h69l-98 -130h-68z" />
    <glyph glyph-name="aacutecy" horiz-adv-x="526" 
d="M502 43v-44q-9 -5 -28 -5q-32 0 -50.5 15t-18.5 44v37h-3q-9 -18 -32.5 -41t-66 -41t-100.5 -18q-78 0 -124 35.5t-46 104.5q0 64 43.5 99t131.5 47l114 15q79 11 79 34v28q0 66 -33.5 94t-101.5 28q-67 0 -100 -25t-33 -76v-11h-68v16q0 76 53 113.5t151 37.5
q103 0 153 -42t50 -135v-278q0 -33 30 -32zM401 268q-3 -19 -73 -28l-105 -15q-66 -9 -92.5 -31.5t-26.5 -59.5q0 -45 30.5 -66t81.5 -21q59 0 101 24t63 56t21 55v86zM311 712h69l-98 -130h-68z" />
    <glyph glyph-name="ieacutecy" horiz-adv-x="537" 
d="M501 239h-399q4 -96 50 -144.5t130 -48.5q115 0 150 96h65q-25 -81 -82.5 -117t-135.5 -36q-112 0 -179 68.5t-67 200.5q0 91 32 152t86.5 90.5t122.5 29.5q104 0 167 -65.5t63 -189.5q0 -22 -3 -36zM436 291q-1 88 -44.5 135t-118.5 47q-73 0 -119.5 -46.5t-50.5 -135.5
h333zM317 712h69l-98 -130h-68z" />
    <glyph glyph-name="iiacutecy" horiz-adv-x="576" 
d="M58 520h71v-427h3l307 427h79v-520h-71v425h-2l-305 -425h-82v520zM334 712h69l-98 -130h-68z" />
    <glyph glyph-name="oacutecy" horiz-adv-x="564" 
d="M158.5 20q-56.5 30 -91 91t-34.5 149t34.5 149t91 91t123.5 30q66 0 122.5 -30t91 -91t34.5 -149t-34.5 -149t-91 -91t-122.5 -30q-67 0 -123.5 30zM371 73q41 23 66 70.5t25 116.5t-25 116.5t-66 70.5t-89 23q-49 0 -90 -23t-65.5 -70.5t-24.5 -116.5t24.5 -116.5
t65.5 -70.5t90 -23q48 0 89 23zM328 712h69l-98 -130h-68z" />
    <glyph glyph-name="uacutecy" horiz-adv-x="529" 
d="M105 -131q41 0 68 21.5t44 64.5q9 24 9 41q0 11 -5 26l-198 498h74l168 -438l167 438h74l-226 -568q-31 -75 -72 -110t-99 -35q-21 0 -32 2v62q20 -2 28 -2zM311 712h69l-98 -130h-68z" />
    <glyph glyph-name="yeruacutecy" horiz-adv-x="674" 
d="M129 520v-191h164q97 0 147.5 -43t50.5 -122t-50.5 -121.5t-147.5 -42.5h-235v520h71zM391 86q32 28 32 78q0 107 -134 107h-160v-213h160q70 0 102 28zM545 520h71v-520h-71v520zM389 712h69l-98 -130h-68z" />
    <glyph glyph-name="ereversedacutecy" horiz-adv-x="535" 
d="M378 500q57 -30 90.5 -91t33.5 -150q0 -88 -33.5 -148.5t-90.5 -90.5t-126 -30q-81 0 -143.5 43.5t-75.5 142.5h64q11 -65 54.5 -95.5t101.5 -30.5q77 0 127 50.5t54 143.5h-186v47h185q-9 87 -57.5 133t-122.5 46q-58 0 -101.5 -30t-54.5 -94h-64q13 98 75.5 141
t143.5 43q69 0 126 -30zM320 712h69l-98 -130h-68z" />
    <glyph glyph-name="iuacutecy" horiz-adv-x="721" 
d="M562.5 500q56.5 -30 91 -91t34.5 -149t-34.5 -149t-91 -91t-123.5 -30q-63 0 -117 27t-89 81t-41 132h-74v-230h-71v520h71v-232h74q6 79 41 133.5t89 81.5t117 27q67 0 123.5 -30zM529 73q41 23 66 70.5t25 116.5t-25 116.5t-66 70.5t-90 23q-48 0 -89 -23t-66 -70.5
t-25 -116.5t25 -116.5t66 -70.5t89 -23q49 0 90 23zM391 712h69l-98 -130h-68z" />
    <glyph glyph-name="iaacutecy" horiz-adv-x="529" 
d="M471 520v-520h-71v191h-156l-129 -191h-76l135 196q-67 13 -101.5 54t-34.5 106q0 79 50.5 121.5t147.5 42.5h235zM400 462h-160q-70 0 -102 -28t-32 -78q0 -107 134 -107h160v213zM311 712h69l-98 -130h-68z" />
    </font>
</defs>
</svg>
