<svg width="84" height="54" viewBox="0 0 84 54" fill="none" xmlns="http://www.w3.org/2000/svg">
<path d="M10.0298 1.16016C5.50981 1.16016 2.49975 4.87986 1.84975 9.35986C0.999753 15.1899 2.45977 22.92 10.0498 22.96L41.9198 22.9399H73.9697C78.4897 22.9399 81.4998 19.2202 82.1498 14.7402C82.9998 8.91023 81.5398 1.18014 73.9498 1.14014L42.0798 1.16016H10.0298Z" stroke="#009245" stroke-width="2" stroke-miterlimit="10"/>
<path d="M10.0298 31.1099C5.50981 31.1099 2.49975 34.8301 1.84975 39.3101C0.999753 45.1401 2.45977 52.8702 10.0498 52.9102L41.9198 52.8901H73.9697C78.4897 52.8901 81.4998 49.1699 82.1498 44.6899C82.9998 38.8599 81.5398 31.1298 73.9498 31.0898L42.0798 31.1099H10.0298Z" stroke="#009245" stroke-width="2" stroke-miterlimit="10"/>
<path d="M20.2999 36.95C20.0799 37.48 19.4799 37.7295 18.9599 37.5095C18.4299 37.2895 18.1899 36.6897 18.3999 36.1697C18.6199 35.6397 19.2199 35.3896 19.7399 35.6096C20.2699 35.8196 20.5199 36.43 20.2999 36.95Z" stroke="#009245" stroke-width="2" stroke-miterlimit="10"/>
<path d="M28.5699 45.79C28.3499 46.32 27.7499 46.5701 27.2299 46.3501C26.6999 46.1301 26.4599 45.5297 26.6699 45.0097C26.8899 44.4897 27.4899 44.2302 28.0099 44.4502C28.5299 44.6602 28.7799 45.26 28.5699 45.79Z" stroke="#009245" stroke-width="2" stroke-miterlimit="10"/>
<path d="M13.4898 16.85C13.2698 17.38 12.6698 17.63 12.1498 17.41C11.6198 17.19 11.3798 16.5897 11.5898 16.0697C11.8098 15.5497 12.4098 15.2897 12.9298 15.5097C13.4498 15.7297 13.6998 16.33 13.4898 16.85Z" stroke="#009245" stroke-width="2" stroke-miterlimit="10"/>
<path d="M30.6099 6.58973C30.3899 7.11973 29.7899 7.36979 29.2699 7.14979C28.7399 6.92979 28.4999 6.32994 28.7099 5.80994C28.9299 5.28994 29.5299 5.02988 30.0499 5.24988C30.5799 5.46988 30.8299 6.06973 30.6099 6.58973Z" stroke="#009245" stroke-width="2" stroke-miterlimit="10"/>
<path d="M31.5797 17.3997C31.3597 17.9297 30.7597 18.1797 30.2397 17.9597C29.7097 17.7397 29.4697 17.1399 29.6797 16.6199C29.8997 16.0899 30.4997 15.8398 31.0197 16.0598C31.5497 16.2698 31.7997 16.8697 31.5797 17.3997Z" stroke="#009245" stroke-width="2" stroke-miterlimit="10"/>
<path d="M56.2496 9.99001C56.0296 10.52 55.4296 10.7696 54.9096 10.5496C54.3796 10.3296 54.1396 9.72973 54.3496 9.20973C54.5696 8.67974 55.1696 8.42968 55.6896 8.64968C56.2096 8.85968 56.4596 9.46001 56.2496 9.99001Z" stroke="#009245" stroke-width="2" stroke-miterlimit="10"/>
<path d="M64.3297 13.99C64.1097 14.52 63.5097 14.7696 62.9897 14.5496C62.4597 14.3296 62.2197 13.7297 62.4297 13.2097C62.6497 12.6797 63.2497 12.4297 63.7697 12.6497C64.2997 12.8597 64.5497 13.47 64.3297 13.99Z" stroke="#009245" stroke-width="2" stroke-miterlimit="10"/>
<path d="M51.9596 46.7499C51.7396 47.2799 51.1396 47.5299 50.6196 47.3099C50.0896 47.0899 49.8496 46.4901 50.0596 45.9701C50.2796 45.4501 50.8796 45.19 51.3996 45.41C51.9196 45.62 52.1696 46.2199 51.9596 46.7499Z" stroke="#009245" stroke-width="2" stroke-miterlimit="10"/>
<path d="M61.9097 41.1C61.6897 41.63 61.0898 41.88 60.5698 41.66C60.0398 41.44 59.7998 40.8397 60.0098 40.3197C60.2298 39.7997 60.8297 39.5397 61.3497 39.7597C61.8697 39.9697 62.1197 40.58 61.9097 41.1Z" stroke="#009245" stroke-width="2" stroke-miterlimit="10"/>
<path d="M45.5299 38.7001C45.3099 39.2301 44.7099 39.4796 44.1899 39.2596C43.6599 39.0396 43.4199 38.4398 43.6299 37.9198C43.8499 37.3998 44.4498 37.1397 44.9698 37.3597C45.4998 37.5697 45.7499 38.1801 45.5299 38.7001Z" stroke="#009245" stroke-width="2" stroke-miterlimit="10"/>
<path d="M75.6597 15.4398C75.4397 15.9698 74.8398 16.2199 74.3198 15.9999C73.7898 15.7799 73.5498 15.18 73.7598 14.66C73.9798 14.14 74.5797 13.88 75.0997 14.1C75.6297 14.31 75.8797 14.9098 75.6597 15.4398Z" stroke="#009245" stroke-width="2" stroke-miterlimit="10"/>
</svg>
