<svg width="50" height="76" viewBox="0 0 50 76" fill="none" xmlns="http://www.w3.org/2000/svg">
<path d="M1.81982 48.76C3.01982 47.39 5.91981 46.41 7.55981 46.41C11.5898 46.41 20.9998 52.87 20.9998 52.87V21.53C20.9998 21.53 21.3598 16.96 24.4198 16.96C28.0898 16.96 28.1598 21.65 28.1598 21.65V39.49C28.1598 39.49 30.1198 37.2 32.4098 37.2C34.6998 37.2 35.9998 39.26 35.9998 39.26C35.9998 39.26 37.7398 37.89 39.2698 38.12C40.7998 38.35 42.4298 40.29 42.4298 40.29C42.4298 40.29 44.6998 39.35 45.9098 39.6C48.0898 40.06 48.7398 42.12 48.7398 42.12C48.7398 42.12 48.7998 58.5899 47.7598 64.1899C46.6698 71.9699 41.4398 74.25 41.4398 74.25H26.7398C26.7398 74.25 20.8698 72.31 18.7898 67.16C14.6498 54.48 1.81982 48.76 1.81982 48.76Z" stroke="#009245" stroke-width="2" stroke-miterlimit="10" stroke-linecap="round"/>
<path d="M14.8798 25.9901C13.7198 24.2301 13.0498 22.1401 13.0498 19.8901C13.0498 13.6601 18.2298 8.6001 24.6298 8.6001C31.0198 8.6001 36.2098 13.6501 36.2098 19.8901C36.2098 22.1801 35.5098 24.3101 34.3098 26.0901" stroke="#009245" stroke-width="2" stroke-miterlimit="10" stroke-linecap="round"/>
<path d="M9.06 29.15C7.12 26.28 6 22.85 6 19.17C6 9.14004 14.35 1 24.64 1C34.93 1 43.28 9.13004 43.28 19.17C43.28 22.86 42.15 26.29 40.22 29.15" stroke="#009245" stroke-width="2" stroke-miterlimit="10" stroke-linecap="round"/>
</svg>
