<svg width="43" height="52" viewBox="0 0 43 52" fill="none" xmlns="http://www.w3.org/2000/svg">
<path d="M0.299805 1.5603H42.9998" stroke="#666666" stroke-width="2.5" stroke-miterlimit="10"/>
<path d="M3.79004 8.8103C3.79004 8.8103 4.44 12.8803 8.12 15.7603C11.81 18.6403 17.78 20.0003 17.91 24.1003C18.02 27.8303 13.3499 29.4602 9.68994 32.9102C6.70994 35.7202 4.12004 38.9503 3.79004 41.5503L7.25 41.5303L38.79 41.3801C38.79 41.3801 37.2499 36.8404 33.6899 33.6204C30.4799 30.7104 24.7399 27.8204 24.6899 24.3604C24.6199 19.3504 31.11 18.4402 34.33 15.9302C37.35 13.5802 38.93 11.3203 39.26 8.80029H3.79004V8.8103Z" stroke="#666666" stroke-width="2.5" stroke-miterlimit="10"/>
<path d="M7.85986 41.5402C8.67986 39.6302 9.6899 37.8 12.0199 37.15C15.0599 36.31 16.5398 35.8902 18.3298 35.0302C19.8398 34.3102 20.8499 33.8001 21.2599 32.9201C22.0999 31.0901 21.4298 34.0302 25.4498 35.5602C27.4998 36.3402 29.4699 36.64 31.3499 37.13C33.1899 37.61 35.5298 39.16 35.3198 41.41" stroke="#666666" stroke-width="2.5" stroke-miterlimit="10"/>
<path d="M14.1396 19.3403C16.0196 19.7303 20.9996 20.9304 21.3796 23.8604L21.6096 25.5703C21.6096 25.5703 21.7096 23.2702 22.6396 22.2002C24.0496 20.5702 27.0796 19.2403 29.0996 18.7603" stroke="#666666" stroke-width="2.5" stroke-miterlimit="10"/>
<path d="M42.9998 49.8403H0.299805" stroke="#666666" stroke-width="2.5" stroke-miterlimit="10"/>
</svg>
