<svg width="43" height="39" viewBox="0 0 43 39" fill="none" xmlns="http://www.w3.org/2000/svg">
<path d="M0.890137 10.79C2.65014 10.79 9.53014 10.8 10.5801 10.8C10.5801 10.8 13.3701 16.1999 14.4101 18.1899C16.0101 21.2399 17.6501 24.27 19.2701 27.3C19.6501 28.01 20.0402 28.7101 20.5302 29.6201C21.0002 28.7801 21.3901 28.0999 21.7501 27.3999C23.4801 24.0499 25.1801 20.7001 26.9201 17.3601C27.9101 15.4601 30.5201 10.8 30.5201 10.8C33.1501 10.79 39.9001 10.7801 40.3001 10.8101C38.7501 13.7901 26.4901 38.3101 26.2201 38.3101L14.7802 38.3301C14.1702 38.3501 0.910137 11.07 0.890137 10.79Z" fill="white"/>
<path d="M43 0.490253C42.58 3.20025 40.95 8.56031 36.31 8.55031C-10.67 8.50031 52.28 8.52031 0 8.55031C0 4.52031 2.63998 0.480253 8.22998 0.490253C19.45 0.520253 43 0.490253 43 0.490253Z" fill="white"/>
</svg>
