<svg width="146" height="32" viewBox="0 0 146 32" fill="none" xmlns="http://www.w3.org/2000/svg">
<path d="M61.0502 27.5001C61.2902 28.4401 61.6302 28.8597 62.3602 28.8497C65.3602 28.8097 68.3502 28.83 71.3502 28.84C72.3402 28.84 72.3402 28.8402 72.3402 30.0802C72.3402 30.3202 72.3302 30.5602 72.3402 30.7902C72.3802 31.3802 72.1602 31.5697 71.7102 31.5597C70.2402 31.5397 68.7602 31.5499 67.2902 31.5499C65.3202 31.5499 63.3402 31.4702 61.3702 31.5802C59.8602 31.6702 58.3902 30.2103 57.9902 28.7003C57.8902 28.3203 57.8902 27.8906 57.8802 27.4806C57.8702 26.3206 57.9202 25.1599 57.8602 24.0099C57.8002 22.6699 58.3802 21.7701 59.2002 21.2101C59.8302 20.7701 60.6102 20.5006 61.3302 20.4806C64.1102 20.4006 66.8902 20.4705 69.6802 20.4405C70.7502 20.4305 71.5102 21.0901 72.1902 22.0001C72.2802 22.1201 72.3302 22.3098 72.3302 22.4698C72.3402 23.6598 72.3602 24.8404 72.3302 26.0304C72.3102 26.7604 71.6302 27.3605 70.8802 27.3605C67.9102 27.3605 64.9302 27.3602 61.9602 27.3702C61.6802 27.3702 61.3902 27.4501 61.0502 27.5001ZM69.2002 24.6202C69.3002 23.5802 69.0402 23.18 68.3202 23.17C66.3202 23.16 64.3202 23.1405 62.3302 23.1905C61.9902 23.2005 61.6402 23.4798 61.3402 23.7198C61.2302 23.7998 61.1802 24.1702 61.2402 24.3302C61.2902 24.4702 61.5202 24.5997 61.6802 24.5997C64.1602 24.6197 66.6602 24.6202 69.2002 24.6202Z" fill="#4D4D4D"/>
<path d="M56.01 25.5501C56.16 25.8001 56.23 25.9506 56.33 26.0706C56.65 26.4906 57.2 26.8706 57.24 27.3206C57.33 28.4206 57.29 29.5799 57.07 30.6399C56.98 31.0499 56.26 31.5098 55.82 31.5198C51.94 31.5898 48.07 31.5506 44.19 31.5706C43.7 31.5706 43.52 31.3505 43.53 30.7405C43.55 29.0205 43.56 27.3004 43.53 25.5804C43.51 24.8204 43.74 24.6104 44.32 24.6204C47.13 24.6504 49.93 24.6302 52.74 24.6302C52.91 24.6302 53.12 24.7106 53.23 24.6107C53.45 24.4107 53.7 24.1401 53.76 23.8401C53.79 23.6801 53.47 23.3503 53.27 23.2103C53.12 23.1103 52.9 23.18 52.71 23.18C49.97 23.18 47.24 23.18 44.5 23.18C43.66 23.18 43.56 23.0403 43.55 22.0003C43.55 21.7903 43.57 21.5802 43.55 21.3802C43.48 20.6802 43.72 20.4405 44.28 20.4505C45.94 20.4805 47.61 20.4603 49.27 20.4603C51.15 20.4603 53.03 20.4603 54.91 20.4603C56.08 20.4603 56.87 21.4402 56.86 22.8802C56.83 23.8502 57.06 24.9401 56.01 25.5501ZM50.24 28.8304C51.17 28.8304 52.09 28.8204 53.02 28.8304C53.46 28.8404 53.94 28.7604 53.87 28.1204C53.84 27.8304 53.32 27.3999 53.02 27.3899C51.14 27.3199 49.26 27.3599 47.39 27.3499C47 27.3499 46.76 27.4603 46.76 28.0403C46.76 28.6103 46.92 28.8404 47.39 28.8304C48.34 28.8104 49.29 28.8304 50.24 28.8304Z" fill="#4D4D4D"/>
<path d="M102.61 20.4901C103.66 20.4901 104.63 20.4901 105.66 20.4901C105.66 23.0101 105.66 25.4894 105.66 28.0194C106.56 28.2894 106.96 27.4203 107.41 26.9003C108.93 25.1103 110.41 23.2597 111.86 21.3797C113.02 19.8797 115.96 19.7294 116.98 21.5194C117.17 21.8594 117.35 22.3098 117.35 22.7098C117.38 25.3798 117.35 28.0498 117.38 30.7098C117.39 31.3898 117.16 31.5894 116.66 31.5594C116.11 31.5194 115.56 31.5094 115.02 31.5594C114.43 31.6094 114.29 31.29 114.3 30.62C114.33 28.63 114.32 26.65 114.3 24.66C114.3 24.34 114.16 23.8399 113.97 23.7499C113.78 23.6599 113.4 23.8695 113.22 24.0995C111.32 26.4295 109.43 28.7695 107.56 31.1395C106.47 32.5195 103.2 32.19 102.68 29.91C102.65 29.77 102.62 29.6203 102.61 29.4803C102.61 26.5203 102.61 23.5601 102.61 20.4901Z" fill="#4D4D4D"/>
<path d="M101.41 20.55C101.41 21.37 101.41 22.1903 101.41 23.1203C101.17 23.1303 100.92 23.1603 100.67 23.1603C98.1003 23.1603 95.5302 23.1603 92.9602 23.1603C91.6902 23.1603 91.1902 23.7602 91.1902 25.2902C91.1902 26.2102 91.2002 27.13 91.1902 28.05C91.1802 28.49 91.2602 28.8205 91.6802 28.8205C93.8602 28.8205 96.0503 28.8205 98.3503 28.8205C98.3503 27.7305 98.3902 26.7106 98.3402 25.6906C98.2902 24.8006 98.5702 24.5398 99.2402 24.5998C99.9402 24.6598 100.65 24.6105 101.4 24.6105C101.4 26.9405 101.4 29.1806 101.4 31.4806C96.9502 31.4806 92.5202 31.4806 87.9902 31.4806C87.9902 30.4406 87.9902 29.41 87.9902 28.38C87.9902 26.99 87.9902 25.5904 87.9902 24.2004C87.9902 22.2704 89.2602 20.4804 90.8302 20.4504C94.2802 20.3904 97.7303 20.4406 101.17 20.4406C101.24 20.4606 101.31 20.51 101.41 20.55Z" fill="#4D4D4D"/>
<path d="M136.51 31.5303C135.42 31.5303 134.42 31.5303 133.31 31.5303C133.31 31.2303 133.31 30.9499 133.31 30.6699C133.31 28.5399 133.31 26.3995 133.31 24.2695C133.31 22.2695 134.64 20.4897 136.24 20.4697C139.09 20.4297 141.95 20.4702 144.8 20.4502C145.31 20.4502 145.46 20.6998 145.45 21.2998C145.42 23.4998 145.63 23.1697 144 23.1797C141.93 23.1997 139.86 23.1797 137.79 23.1797C136.92 23.1797 136.53 23.6497 136.53 24.7197C136.53 26.6797 136.53 28.6298 136.53 30.5898C136.54 30.8698 136.52 31.1603 136.51 31.5303Z" fill="#4D4D4D"/>
<path d="M132.44 25.9905C132.44 27.5305 132.41 29.0707 132.45 30.6107C132.47 31.3807 132.24 31.5999 131.66 31.5599C131.07 31.5099 130.47 31.5199 129.88 31.5599C129.39 31.5899 129.19 31.3605 129.21 30.7405C129.24 29.9405 129.19 29.1402 129.23 28.3402C129.27 27.6102 129.06 27.3407 128.46 27.3607C127.06 27.4007 125.65 27.3502 124.25 27.3802C123.69 27.3902 123.5 27.1505 123.51 26.4505C123.55 24.3705 123.35 24.6402 124.95 24.6302C126.14 24.6202 127.33 24.61 128.52 24.64C129.04 24.65 129.26 24.4506 129.23 23.7806C129.2 22.9206 129.23 22.0605 129.22 21.2005C129.21 20.6705 129.38 20.4405 129.81 20.4505C130.5 20.4705 131.19 20.4705 131.88 20.4505C132.31 20.4405 132.47 20.6705 132.46 21.2005C132.43 22.7905 132.44 24.3905 132.44 25.9905Z" fill="#4D4D4D"/>
<path d="M83.7503 27.3607C82.1103 27.3607 80.5703 27.3607 79.0303 27.3607C78.0503 27.3607 78.0503 27.3607 78.0503 26.1507C78.0503 25.7407 78.0503 25.3299 78.0503 24.8099C79.9603 24.8099 81.8203 24.8099 83.7503 24.8099C83.7503 23.5499 83.7703 22.4001 83.7403 21.2601C83.7203 20.6301 83.9203 20.4207 84.4103 20.4407C85.0703 20.4707 85.7403 20.4605 86.4103 20.4505C86.8003 20.4405 86.9603 20.6607 86.9603 21.1507C86.9503 24.3807 86.9503 27.6104 86.9603 30.8304C86.9603 31.3604 86.8003 31.5799 86.3703 31.5599C85.7103 31.5399 85.0403 31.5299 84.3703 31.5599C83.9103 31.5799 83.7303 31.3606 83.7403 30.7806C83.7703 29.6906 83.7503 28.6007 83.7503 27.3607Z" fill="#4D4D4D"/>
<path d="M76.3 26.0298C76.3 27.5398 76.2701 29.0491 76.3101 30.5591C76.3301 31.3591 76.0901 31.6091 75.4801 31.5591C74.8901 31.5091 74.2901 31.5291 73.7001 31.5591C73.2501 31.5791 73.0601 31.3896 73.0601 30.7896C73.0701 27.6496 73.0701 24.5096 73.0601 21.3696C73.0601 20.7096 73.2501 20.4 73.8201 20.44C74.4401 20.49 75.0601 20.4697 75.6701 20.4497C76.1301 20.4297 76.3 20.6698 76.3 21.2398C76.29 22.8298 76.3 24.4298 76.3 26.0298Z" fill="#4D4D4D"/>
<path d="M118.56 20.4505C119.51 20.4505 120.34 20.4608 121.17 20.4408C121.6 20.4308 121.76 20.65 121.76 21.18C121.75 24.41 121.75 27.6307 121.76 30.8607C121.76 31.3407 121.62 31.5699 121.22 31.5599C120.51 31.5399 119.79 31.5906 119.08 31.5306C118.9 31.5106 118.59 31.2001 118.58 31.0101C118.55 27.5201 118.56 24.0405 118.56 20.4505Z" fill="#4D4D4D"/>
<path d="M144.57 13.2197C144.57 14.1897 144.6 15.08 144.55 15.96C144.53 16.19 144.24 16.5603 144.06 16.5703C143.14 16.6303 142.22 16.5996 141.25 16.5996C141.25 15.4496 141.25 14.3697 141.25 13.2197C142.34 13.2197 143.41 13.2197 144.57 13.2197Z" fill="#4D4D4D"/>
<path d="M0.740234 8.76953C2.20023 8.76953 7.92022 8.78027 8.79022 8.78027C8.79022 8.78027 11.1102 13.2697 11.9702 14.9297C13.3002 17.4697 14.6602 19.9798 16.0102 22.5098C16.3302 23.0998 16.6502 23.6897 17.0602 24.4297C17.4502 23.7297 17.7802 23.1698 18.0802 22.5898C19.5202 19.8098 20.9302 17.0202 22.3802 14.2402C23.2002 12.6602 25.3702 8.79004 25.3702 8.79004C27.5602 8.78004 33.1702 8.7798 33.5002 8.7998C32.2102 11.2698 22.0102 31.6602 21.7902 31.6602L12.2802 31.6797C11.7802 31.6697 0.760234 8.99953 0.740234 8.76953Z" fill="#4D4D4D"/>
<path d="M118.78 8.55979C118.94 7.07979 118.38 6.24069 117.24 6.23069C113.46 6.22069 109.68 6.23069 105.89 6.23069C105.68 6.23069 105.46 6.25041 105.25 6.20041C104.85 6.10041 104.57 5.89998 104.63 5.25998C104.69 4.61998 104.66 3.96002 104.64 3.30002C104.63 2.77002 104.8 2.55002 105.23 2.55002C109.77 2.56002 114.32 2.48006 118.86 2.59006C120.75 2.63006 121.98 4.18987 122.89 6.13987C122.93 6.22987 122.92 6.37045 122.92 6.49045C122.92 9.81045 122.92 13.1298 122.92 16.5998C121.46 16.4698 120.02 16.8805 118.59 16.3205C118.2 16.4005 117.75 16.5901 117.3 16.5901C113.73 16.6101 110.16 16.5998 106.6 16.5998C105.11 16.5998 104.51 15.8402 104.51 13.9602C104.51 12.8002 104.56 11.6405 104.5 10.4905C104.42 9.03045 105.51 7.87057 106.54 7.86057C110.06 7.83057 113.58 7.8201 117.1 7.8801C117.64 7.9001 118.18 8.30979 118.78 8.55979ZM113.33 11.4905C112 11.4905 110.67 11.4497 109.34 11.5197C109.09 11.5297 108.85 11.9799 108.61 12.2199C108.85 12.4999 109.09 13.0097 109.35 13.0197C111.91 13.1097 114.48 13.1199 117.04 13.1399C117.13 13.1399 117.25 13.1403 117.31 13.0803C117.56 12.8103 118 12.5205 117.99 12.2405C117.99 11.6905 117.59 11.4707 117.12 11.4807C115.85 11.5107 114.59 11.4905 113.33 11.4905Z" fill="#009245"/>
<path d="M47.9599 7.01963C47.8399 7.67963 47.7199 8.02975 47.7199 8.38975C47.7299 10.7898 47.7499 13.1802 47.7799 15.5802C47.7899 16.2902 47.5699 16.6205 46.9899 16.6105C45.9699 16.5905 44.9499 16.6105 43.8199 16.6105C43.8199 16.2405 43.8199 15.9302 43.8199 15.6202C43.8199 12.3902 43.8599 9.15002 43.7999 5.92002C43.7799 4.67002 44.2899 3.90967 45.0099 3.30967C46.1899 2.31967 47.4699 1.86967 48.8699 2.55967C49.8899 3.05967 50.6499 3.93991 51.2599 5.04991C52.3999 7.12991 53.5499 9.20038 54.6799 11.2804C54.8399 11.5804 54.9599 11.9199 55.1399 12.3399C55.3499 12.0999 55.5199 11.9799 55.6199 11.7999C56.9099 9.47991 58.1799 7.15018 59.4599 4.83018C60.9999 2.04018 63.4499 1.38971 65.6599 3.34971C66.3699 3.97971 66.8199 4.82014 66.7999 6.04014C66.7499 9.21014 66.7799 12.3897 66.7799 15.5597C66.7799 15.8797 66.7799 16.2002 66.7799 16.6202C65.5599 16.6202 64.3999 16.6502 63.2499 16.5802C63.0999 16.5702 62.8499 16.0499 62.8499 15.7599C62.8199 13.4499 62.8299 11.1304 62.8299 8.82041C62.8299 8.61041 62.8499 8.4003 62.8199 8.2003C62.7399 7.5703 62.3699 7.36995 62.0299 7.83995C61.5799 8.45995 61.1799 9.13995 60.8099 9.83995C59.7199 11.8999 58.6799 13.9901 57.5699 16.0401C57.4099 16.3401 57.0199 16.5697 56.7199 16.5997C55.8399 16.6697 54.9599 16.6897 54.0799 16.5997C53.7299 16.5597 53.2799 16.3098 53.0899 15.9698C51.7299 13.5498 50.4299 11.07 49.0799 8.62998C48.8099 8.09999 48.4299 7.67963 47.9599 7.01963Z" fill="#009245"/>
<path d="M78.78 16.6C76.52 16.6 74.26 16.6 72 16.6C70.02 16.6 68.24 14.3808 68.24 11.9408C68.24 10.3108 68.33 8.67017 68.22 7.05017C68.11 5.34017 68.8 4.33013 69.82 3.51013C70.63 2.86013 71.5 2.54017 72.49 2.55017C75.91 2.58017 79.34 2.60041 82.77 2.54041C84.23 2.52041 85.3 3.32048 86.2 4.62048C86.7 5.34048 86.69 9.63048 86.2 10.3705C85.74 11.0505 85.14 11.3099 84.44 11.3099C80.66 11.3099 76.88 11.3004 73.09 11.3304C72.8 11.3304 72.33 11.5306 72.25 11.7806C72.09 12.3006 72.65 13.1108 73.12 13.1508C73.52 13.1908 73.93 13.1605 74.33 13.1605C78.02 13.1605 81.7 13.1605 85.39 13.1605C86.29 13.1605 86.37 13.2702 86.38 14.3802C86.39 16.6102 86.39 16.6107 84.57 16.6107C82.63 16.6007 80.71 16.6 78.78 16.6ZM77.33 8.04041C78.8 8.04041 80.28 8.07013 81.75 8.01013C82.03 8.00013 82.52 7.63052 82.53 7.41052C82.54 7.04052 82.3 6.59041 82.06 6.29041C81.91 6.10041 81.58 6.05017 81.33 6.05017C78.74 6.03017 76.14 6.01068 73.55 6.07068C73.16 6.08068 72.75 6.48017 72.42 6.80017C72.28 6.94017 72.22 7.42076 72.3 7.65076C72.37 7.85076 72.69 8.01013 72.9 8.01013C74.38 8.05013 75.86 8.04041 77.33 8.04041Z" fill="#009245"/>
<path d="M139.59 6.04008C138.28 6.04008 137.08 6.04008 135.87 6.04008C134.18 6.04008 132.49 6.04008 130.8 6.04008C129.25 6.04008 128.47 7.02976 128.47 8.96976C128.47 9.49976 128.47 10.0403 128.47 10.5703C128.47 12.1503 129.25 13.1297 130.55 13.1397C133.33 13.1497 136.11 13.1699 138.9 13.1299C139.56 13.1199 139.81 13.3705 139.74 14.1905C139.69 14.7505 139.71 15.3199 139.74 15.8799C139.76 16.4299 139.56 16.5996 139.14 16.5996C135.53 16.5896 131.91 16.6696 128.3 16.5596C126.7 16.5096 125.38 15.5304 124.63 13.6504C124.48 13.2704 124.42 12.8002 124.41 12.3702C124.39 10.6502 124.5 8.92 124.37 7.21C124.23 5.27 125.54 3.68039 126.7 3.11039C127.4 2.77039 128.19 2.57961 128.95 2.55961C132.18 2.49961 135.42 2.53008 138.65 2.54008C139.55 2.54008 139.59 2.59996 139.59 3.66996C139.6 4.42996 139.59 5.17008 139.59 6.04008Z" fill="#009245"/>
<path d="M97.0401 2.5598C98.8001 2.5598 100.56 2.58003 102.32 2.55003C102.97 2.54003 103.21 2.86038 103.2 3.66038C103.18 6.24038 103.4 6.06003 101.28 6.05003C98.6401 6.04003 96.0001 6.05003 93.3601 6.05003C92.3101 6.05003 91.7801 6.7007 91.7801 7.9807C91.7901 10.6507 91.7901 13.3207 91.8201 15.9807C91.8301 16.6807 91.4001 16.6601 91.1001 16.6701C90.2501 16.7001 89.4001 16.6003 88.5501 16.6203C88.0501 16.6303 87.8501 16.37 87.8501 15.8C87.8501 12.77 87.8101 9.74995 87.8601 6.71995C87.9001 4.63995 89.2801 3.39999 90.8501 2.75999C91.2701 2.58999 91.7301 2.5698 92.1701 2.5598C93.8001 2.5398 95.4201 2.5598 97.0401 2.5598Z" fill="#009245"/>
<path d="M35.75 0.200218C35.4 2.45022 34.05 6.91041 30.19 6.90041C21.12 6.89041 0 6.90041 0 6.90041C0 3.55041 2.2 0.190218 6.84 0.200218C16.17 0.220218 35.75 0.200218 35.75 0.200218Z" fill="#009245"/>
</svg>
