<svg width="37" height="33" viewBox="0 0 37 33" fill="none" xmlns="http://www.w3.org/2000/svg">
<path d="M0.930176 9.42969C2.43018 9.42969 8.31018 9.43969 9.20018 9.43969C9.20018 9.43969 11.5802 14.0597 12.4702 15.7597C13.8402 18.3697 15.2302 20.9497 16.6202 23.5497C16.9402 24.1597 17.2802 24.7597 17.7002 25.5297C18.1002 24.8097 18.4402 24.2297 18.7402 23.6397C20.2102 20.7797 21.6702 17.9097 23.1502 15.0597C23.9902 13.4397 26.2202 9.44969 26.2202 9.44969C28.4702 9.43969 34.2302 9.43969 34.5702 9.45969C33.2402 11.9997 22.7702 32.9597 22.5402 32.9597L12.7702 32.9797C12.2702 32.9797 0.940176 9.66969 0.930176 9.42969Z" fill="#009245"/>
<path d="M36.8802 0.629883C36.5202 2.93988 35.1301 7.51988 31.1702 7.51988C21.8502 7.50988 0.160156 7.51988 0.160156 7.51988C0.160156 4.06988 2.42016 0.629883 7.19016 0.629883C16.7802 0.659883 36.8802 0.629883 36.8802 0.629883Z" fill="#009245"/>
</svg>
