<svg width="45" height="73" viewBox="0 0 45 73" fill="none" xmlns="http://www.w3.org/2000/svg">
<path d="M8.78027 11.67C8.78027 11.67 10.1103 2.34994 11.1403 1.39994C11.7203 0.869941 31.2302 0.869941 31.8102 1.39994C32.8402 2.34994 33.6902 11.67 33.6902 11.67H8.78027Z" stroke="#009245" stroke-width="2" stroke-miterlimit="10"/>
<path d="M9.02002 59.3496C9.02002 59.3496 10.11 70.0296 11.14 70.9796C11.72 71.5096 31.23 71.5096 31.81 70.9796C32.84 70.0296 33.93 59.3496 33.93 59.3496H9.02002Z" stroke="#009245" stroke-width="2" stroke-miterlimit="10"/>
<path d="M8.46002 59.27C8.46002 59.27 5.31002 59.27 3.71002 57.41C2.10002 55.55 1.97998 53.75 1.97998 53.75V42.5699V28.7V17.52C1.97998 17.52 2.11002 15.72 3.71002 13.86C5.32002 12 8.46002 12 8.46002 12H34C34 12 37.15 12 38.75 13.86C40.36 15.72 40.48 17.52 40.48 17.52V24.4H42.02C42.02 24.4 42.73 24.4 43.18 24.72C43.63 25.04 43.82 25.6801 43.82 25.6801V31.8199C43.82 31.8199 43.63 32.46 43.18 32.78C42.73 33.1 42.02 33.1 42.02 33.1H40.48V53.73C40.48 53.73 40.35 55.53 38.75 57.39C37.14 59.25 34 59.25 34 59.25H8.46002V59.27Z" stroke="#009245" stroke-width="2" stroke-miterlimit="10"/>
<path d="M12.9102 32.0099L21.2502 45.1399L32.1802 24.3599" stroke="#009245" stroke-width="2" stroke-miterlimit="10" stroke-linecap="round"/>
</svg>
